<svg width="35" height="35" viewBox="0 0 35 35" fill="none" xmlns="http://www.w3.org/2000/svg">
<g id="Logo 2">
<path id="Vector" d="M11.9471 17.4992C11.9471 14.4331 14.4334 11.9469 17.5013 11.9469C20.5692 11.9469 23.0569 14.4331 23.0569 17.4992C23.0569 20.5652 20.5692 23.0514 17.5013 23.0514C14.4334 23.0514 11.9471 20.5652 11.9471 17.4992ZM8.94386 17.4992C8.94386 22.2226 12.775 26.0515 17.5013 26.0515C22.2277 26.0515 26.0588 22.2226 26.0588 17.4992C26.0588 12.7757 22.2277 8.94681 17.5013 8.94681C12.775 8.94681 8.94386 12.7757 8.94386 17.4992ZM24.3978 8.60771C24.3976 9.003 24.5147 9.38947 24.7344 9.71823C24.954 10.047 25.2662 10.3033 25.6316 10.4547C25.9969 10.6061 26.399 10.6459 26.787 10.5689C27.1749 10.4919 27.5314 10.3017 27.8111 10.0223C28.0909 9.74292 28.2816 9.38688 28.3589 8.99921C28.4362 8.61154 28.3967 8.20966 28.2455 7.84439C28.0943 7.47913 27.8381 7.16688 27.5093 6.94713C27.1805 6.72739 26.7939 6.61001 26.3984 6.60986H26.3976C25.8674 6.6101 25.359 6.82064 24.9841 7.19524C24.6091 7.56983 24.3982 8.07785 24.3978 8.60771ZM10.7685 31.0563C9.14371 30.9823 8.26058 30.7118 7.67369 30.4833C6.89561 30.1806 6.34046 29.82 5.75677 29.2375C5.17308 28.655 4.81177 28.1007 4.51019 27.3231C4.28141 26.7368 4.01076 25.8539 3.9369 24.2301C3.85611 22.4745 3.83998 21.9471 3.83998 17.4993C3.83998 13.0515 3.85744 12.5256 3.9369 10.7685C4.0109 9.14468 4.28354 8.26354 4.51019 7.67554C4.8131 6.89793 5.17388 6.3431 5.75677 5.75976C6.33966 5.17642 6.89428 4.81533 7.67369 4.51394C8.26031 4.28529 9.14371 4.01481 10.7685 3.94099C12.5252 3.86025 13.0529 3.84412 17.5013 3.84412C21.9498 3.84412 22.478 3.86158 24.2362 3.94099C25.861 4.01494 26.7426 4.28742 27.331 4.51394C28.1091 4.81533 28.6642 5.17722 29.2479 5.75976C29.8316 6.3423 30.1916 6.89793 30.4945 7.67554C30.7233 8.26181 30.9939 9.14468 31.0678 10.7685C31.1486 12.5256 31.1647 13.0515 31.1647 17.4993C31.1647 21.9471 31.1486 22.473 31.0678 24.2301C30.9938 25.8539 30.7218 26.7365 30.4945 27.3231C30.1916 28.1007 29.8308 28.6555 29.2479 29.2375C28.665 29.8195 28.1091 30.1806 27.331 30.4833C26.7444 30.712 25.861 30.9825 24.2362 31.0563C22.4795 31.137 21.9518 31.1531 17.5013 31.1531C13.0509 31.1531 12.5247 31.137 10.7685 31.0563ZM10.6305 0.944615C8.8564 1.02536 7.64409 1.3065 6.58537 1.71823C5.48892 2.14341 4.56072 2.71382 3.63319 3.63933C2.70566 4.56484 2.13637 5.49394 1.71094 6.58974C1.29897 7.64849 1.01766 8.8594 0.936863 10.6325C0.854736 12.4083 0.835938 12.9761 0.835938 17.4992C0.835938 22.0222 0.854736 22.59 0.936863 24.3659C1.01766 26.1391 1.29897 27.3498 1.71094 28.4086C2.13637 29.5037 2.7058 30.4339 3.63319 31.359C4.56059 32.2841 5.48892 32.8537 6.58537 33.2801C7.64609 33.6918 8.8564 33.973 10.6305 34.0537C12.4084 34.1345 12.9756 34.1546 17.5013 34.1546C22.0271 34.1546 22.5952 34.1358 24.3722 34.0537C26.1464 33.973 27.3579 33.6918 28.4173 33.2801C29.5131 32.8537 30.442 32.2845 31.3695 31.359C32.297 30.4335 32.8651 29.5037 33.2918 28.4086C33.7037 27.3498 33.9864 26.1389 34.0658 24.3659C34.1466 22.5887 34.1654 22.0222 34.1654 17.4992C34.1654 12.9761 34.1466 12.4083 34.0658 10.6325C33.985 8.85927 33.7037 7.64782 33.2918 6.58974C32.8651 5.49461 32.2956 4.5663 31.3695 3.63933C30.4434 2.71235 29.5131 2.14341 28.4187 1.71823C27.3579 1.3065 26.1463 1.02403 24.3735 0.944615C22.5966 0.86387 22.0285 0.84375 17.5027 0.84375C12.9769 0.84375 12.4084 0.862537 10.6305 0.944615Z" fill="url(#paint0_radial_3533_33731)"/>
<path id="Vector_2" d="M11.9471 17.4992C11.9471 14.4331 14.4334 11.9469 17.5013 11.9469C20.5692 11.9469 23.0569 14.4331 23.0569 17.4992C23.0569 20.5652 20.5692 23.0514 17.5013 23.0514C14.4334 23.0514 11.9471 20.5652 11.9471 17.4992ZM8.94386 17.4992C8.94386 22.2226 12.775 26.0515 17.5013 26.0515C22.2277 26.0515 26.0588 22.2226 26.0588 17.4992C26.0588 12.7757 22.2277 8.94681 17.5013 8.94681C12.775 8.94681 8.94386 12.7757 8.94386 17.4992ZM24.3978 8.60771C24.3976 9.003 24.5147 9.38947 24.7344 9.71823C24.954 10.047 25.2662 10.3033 25.6316 10.4547C25.9969 10.6061 26.399 10.6459 26.787 10.5689C27.1749 10.4919 27.5314 10.3017 27.8111 10.0223C28.0909 9.74292 28.2816 9.38688 28.3589 8.99921C28.4362 8.61154 28.3967 8.20966 28.2455 7.84439C28.0943 7.47913 27.8381 7.16688 27.5093 6.94713C27.1805 6.72739 26.7939 6.61001 26.3984 6.60986H26.3976C25.8674 6.6101 25.359 6.82064 24.9841 7.19524C24.6091 7.56983 24.3982 8.07785 24.3978 8.60771ZM10.7685 31.0563C9.14371 30.9823 8.26058 30.7118 7.67369 30.4833C6.89561 30.1806 6.34046 29.82 5.75677 29.2375C5.17308 28.655 4.81177 28.1007 4.51019 27.3231C4.28141 26.7368 4.01076 25.8539 3.9369 24.2301C3.85611 22.4745 3.83998 21.9471 3.83998 17.4993C3.83998 13.0515 3.85744 12.5256 3.9369 10.7685C4.0109 9.14468 4.28354 8.26354 4.51019 7.67554C4.8131 6.89793 5.17388 6.3431 5.75677 5.75976C6.33966 5.17642 6.89428 4.81533 7.67369 4.51394C8.26031 4.28529 9.14371 4.01481 10.7685 3.94099C12.5252 3.86025 13.0529 3.84412 17.5013 3.84412C21.9498 3.84412 22.478 3.86158 24.2362 3.94099C25.861 4.01494 26.7426 4.28742 27.331 4.51394C28.1091 4.81533 28.6642 5.17722 29.2479 5.75976C29.8316 6.3423 30.1916 6.89793 30.4945 7.67554C30.7233 8.26181 30.9939 9.14468 31.0678 10.7685C31.1486 12.5256 31.1647 13.0515 31.1647 17.4993C31.1647 21.9471 31.1486 22.473 31.0678 24.2301C30.9938 25.8539 30.7218 26.7365 30.4945 27.3231C30.1916 28.1007 29.8308 28.6555 29.2479 29.2375C28.665 29.8195 28.1091 30.1806 27.331 30.4833C26.7444 30.712 25.861 30.9825 24.2362 31.0563C22.4795 31.137 21.9518 31.1531 17.5013 31.1531C13.0509 31.1531 12.5247 31.137 10.7685 31.0563ZM10.6305 0.944615C8.8564 1.02536 7.64409 1.3065 6.58537 1.71823C5.48892 2.14341 4.56072 2.71382 3.63319 3.63933C2.70566 4.56484 2.13637 5.49394 1.71094 6.58974C1.29897 7.64849 1.01766 8.8594 0.936863 10.6325C0.854736 12.4083 0.835938 12.9761 0.835938 17.4992C0.835938 22.0222 0.854736 22.59 0.936863 24.3659C1.01766 26.1391 1.29897 27.3498 1.71094 28.4086C2.13637 29.5037 2.7058 30.4339 3.63319 31.359C4.56059 32.2841 5.48892 32.8537 6.58537 33.2801C7.64609 33.6918 8.8564 33.973 10.6305 34.0537C12.4084 34.1345 12.9756 34.1546 17.5013 34.1546C22.0271 34.1546 22.5952 34.1358 24.3722 34.0537C26.1464 33.973 27.3579 33.6918 28.4173 33.2801C29.5131 32.8537 30.442 32.2845 31.3695 31.359C32.297 30.4335 32.8651 29.5037 33.2918 28.4086C33.7037 27.3498 33.9864 26.1389 34.0658 24.3659C34.1466 22.5887 34.1654 22.0222 34.1654 17.4992C34.1654 12.9761 34.1466 12.4083 34.0658 10.6325C33.985 8.85927 33.7037 7.64782 33.2918 6.58974C32.8651 5.49461 32.2956 4.5663 31.3695 3.63933C30.4434 2.71235 29.5131 2.14341 28.4187 1.71823C27.3579 1.3065 26.1463 1.02403 24.3735 0.944615C22.5966 0.86387 22.0285 0.84375 17.5027 0.84375C12.9769 0.84375 12.4084 0.862537 10.6305 0.944615Z" fill="url(#paint1_radial_3533_33731)"/>
</g>
<defs>
<radialGradient id="paint0_radial_3533_33731" cx="0" cy="0" r="1" gradientUnits="userSpaceOnUse" gradientTransform="translate(5.26414 34.3119) scale(43.5106 43.4845)">
<stop offset="0.09" stop-color="#FA8F21"/>
<stop offset="0.78" stop-color="#D82D7E"/>
</radialGradient>
<radialGradient id="paint1_radial_3533_33731" cx="0" cy="0" r="1" gradientUnits="userSpaceOnUse" gradientTransform="translate(21.0496 35.8043) scale(34.2923 34.2718)">
<stop offset="0.64" stop-color="#8C3AAA" stop-opacity="0"/>
<stop offset="1" stop-color="#8C3AAA"/>
</radialGradient>
</defs>
</svg>
