<svg width="20" height="21" viewBox="0 0 20 21" fill="none" xmlns="http://www.w3.org/2000/svg">
<g id="Search">
<path id="Vector" d="M16.3333 18L11.0833 12.75C10.6667 13.0833 10.1875 13.3472 9.64583 13.5417C9.10417 13.7361 8.52778 13.8333 7.91667 13.8333C6.40278 13.8333 5.12167 13.3092 4.07333 12.2608C3.02444 11.2119 2.5 9.93056 2.5 8.41667C2.5 6.90278 3.02444 5.62139 4.07333 4.5725C5.12167 3.52417 6.40278 3 7.91667 3C9.43056 3 10.7119 3.52417 11.7608 4.5725C12.8092 5.62139 13.3333 6.90278 13.3333 8.41667C13.3333 9.02778 13.2361 9.60417 13.0417 10.1458C12.8472 10.6875 12.5833 11.1667 12.25 11.5833L17.5 16.8333L16.3333 18ZM7.91667 12.1667C8.95833 12.1667 9.84389 11.8022 10.5733 11.0733C11.3022 10.3439 11.6667 9.45833 11.6667 8.41667C11.6667 7.375 11.3022 6.48944 10.5733 5.76C9.84389 5.03111 8.95833 4.66667 7.91667 4.66667C6.875 4.66667 5.98944 5.03111 5.26 5.76C4.53111 6.48944 4.16667 7.375 4.16667 8.41667C4.16667 9.45833 4.53111 10.3439 5.26 11.0733C5.98944 11.8022 6.875 12.1667 7.91667 12.1667Z" fill="black"/>
</g>
</svg>
