<svg width="34" height="35" viewBox="0 0 34 35" fill="none" xmlns="http://www.w3.org/2000/svg">
<g id="Logo 8">
<path id="Vector" d="M16.6576 34.3191C25.8616 34.3191 33.323 26.8577 33.323 17.6537C33.323 8.44965 25.8616 0.988281 16.6576 0.988281C7.45356 0.988281 -0.0078125 8.44965 -0.0078125 17.6537C-0.0078125 26.8577 7.45356 34.3191 16.6576 34.3191Z" fill="#34AADF"/>
<path id="Vector_2" d="M7.13652 17.2878C7.13652 17.2878 15.3917 13.7758 18.2548 12.5391C19.3523 12.0445 23.0743 10.4615 23.0743 10.4615C23.0743 10.4615 24.7921 9.76906 24.649 11.4509C24.6012 12.1434 24.2195 14.5672 23.8378 17.1889C23.2651 20.8989 22.6448 24.955 22.6448 24.955C22.6448 24.955 22.5494 26.0928 21.7382 26.2906C20.927 26.4885 19.5908 25.5981 19.3523 25.4002C19.1614 25.2519 15.7734 23.0259 14.5328 21.9376C14.1987 21.6408 13.817 21.0473 14.5805 20.3547C16.2983 18.7224 18.3502 16.6943 19.5908 15.4082C20.1635 14.8145 20.7361 13.4295 18.3502 15.1113C14.9623 17.5352 11.622 19.8106 11.622 19.8106C11.622 19.8106 10.8585 20.3052 9.42698 19.86C7.99539 19.4149 6.32527 18.8213 6.32527 18.8213C6.32527 18.8213 5.18011 18.0793 7.13652 17.2878Z" fill="white"/>
</g>
</svg>
