<svg width="33" height="27" viewBox="0 0 33 27" fill="none" xmlns="http://www.w3.org/2000/svg">
<g id="Capa 2">
<g id="ELEMENTS">
<path id="Vector" d="M31.928 3.74933C30.9208 4.18279 29.862 4.48463 28.7776 4.64738C29.2846 4.56048 30.0305 3.64793 30.3275 3.27857C30.7786 2.72142 31.1224 2.08539 31.3414 1.40279C31.3414 1.35209 31.3921 1.27967 31.3414 1.24345C31.3159 1.22951 31.2872 1.2222 31.2581 1.2222C31.229 1.2222 31.2004 1.22951 31.1748 1.24345C29.9973 1.88109 28.7442 2.36776 27.445 2.69194C27.3997 2.70577 27.3515 2.70701 27.3056 2.69553C27.2596 2.68404 27.2177 2.66027 27.1843 2.62675C27.0831 2.50633 26.9743 2.39263 26.8583 2.28636C26.3284 1.81158 25.7272 1.423 25.0767 1.13482C24.1986 0.774564 23.2501 0.618546 22.3029 0.678546C21.3838 0.736593 20.4864 0.983117 19.6666 1.40279C18.8594 1.84524 18.1499 2.44633 17.5808 3.16993C16.9822 3.91471 16.5501 4.77903 16.3134 5.70478C16.1183 6.58535 16.0961 7.49545 16.2482 8.38447C16.2482 8.53656 16.2482 8.55828 16.1179 8.53656C10.954 7.7761 6.71722 5.94378 3.25535 2.01115C3.10326 1.83733 3.02359 1.83733 2.90047 2.01115C1.39405 4.29975 2.12553 7.92095 4.00856 9.70983C4.26204 9.94883 4.52277 10.1806 4.79798 10.3979C3.93463 10.3366 3.09236 10.1026 2.32108 9.70983C2.17623 9.61567 2.09656 9.66637 2.08932 9.84019C2.06879 10.0812 2.06879 10.3235 2.08932 10.5644C2.24044 11.7193 2.69557 12.8133 3.40816 13.7346C4.12076 14.6559 5.06526 15.3714 6.14507 15.8079C6.4083 15.9207 6.68258 16.0056 6.96346 16.0614C6.16421 16.2188 5.34447 16.2432 4.53726 16.1338C4.36344 16.0976 4.29826 16.1918 4.36344 16.3584C5.42807 19.2553 7.7384 20.1389 9.43312 20.6314C9.66488 20.6676 9.89664 20.6676 10.1574 20.7255C10.1574 20.7255 10.1574 20.7255 10.1139 20.769C9.61418 21.6815 7.59355 22.2971 6.66652 22.6158C4.97446 23.2236 3.1704 23.4559 1.37957 23.2966C1.09711 23.2531 1.03193 23.2604 0.959507 23.2966C0.887083 23.3328 0.959507 23.4125 1.03917 23.4849C1.40129 23.7239 1.76341 23.9339 2.14002 24.1367C3.26118 24.7482 4.44647 25.234 5.67431 25.5852C12.0331 27.3378 19.1886 26.0487 23.9614 21.3049C27.713 17.5823 29.0311 12.4475 29.0311 7.30535C29.0311 7.1098 29.2701 6.99392 29.4077 6.89253C30.3568 6.153 31.1936 5.27964 31.8918 4.29975C32.0127 4.15368 32.0747 3.96771 32.0656 3.7783C32.0656 3.66966 32.0656 3.69139 31.928 3.74933Z" fill="#33CCFF"/>
</g>
</g>
</svg>
