<svg width="61" height="61" viewBox="0 0 61 61" fill="none" xmlns="http://www.w3.org/2000/svg">
<g id="Social Media / Whatsapp">
<path id="Vector" d="M15.25 44.5293L17.4383 36.3999C15.6735 33.2331 15.1128 29.5377 15.8591 25.9918C16.6054 22.4459 18.6087 19.2873 21.5012 17.0958C24.3938 14.9042 27.9817 13.8267 31.6066 14.0608C35.2314 14.2949 38.65 15.825 41.2351 18.3704C43.8202 20.9157 45.3983 24.3056 45.6799 27.9179C45.9615 31.5301 44.9277 35.1226 42.7682 38.0359C40.6087 40.9493 37.4683 42.9881 33.9233 43.7783C30.3783 44.5686 26.6665 44.0572 23.4691 42.338L15.25 44.5293ZM23.8654 39.2959L24.3737 39.5966C26.6897 40.9659 29.3947 41.5325 32.0673 41.2082C34.7398 40.8839 37.2297 39.6869 39.149 37.8037C41.0683 35.9205 42.3092 33.4569 42.6782 30.7968C43.0472 28.1368 42.5237 25.4297 41.1892 23.0974C39.8547 20.7651 37.7842 18.9386 35.3004 17.9026C32.8166 16.8666 30.0589 16.6792 27.4572 17.3697C24.8554 18.0602 22.5558 19.5898 20.9165 21.72C19.2773 23.8503 18.3906 26.4616 18.3946 29.147C18.3924 31.3736 19.0098 33.5572 20.178 35.4546L20.4968 35.9788L19.2734 40.5161L23.8654 39.2959Z" fill="#00D95F"/>
<path id="Vector_2" fill-rule="evenodd" clip-rule="evenodd" d="M36.2026 31.2361C35.9046 30.9964 35.5557 30.8276 35.1825 30.7428C34.8092 30.6579 34.4215 30.6591 34.0488 30.7463C33.4888 30.9783 33.1269 31.8548 32.7651 32.2931C32.6888 32.3982 32.5766 32.4718 32.4497 32.5003C32.3228 32.5288 32.1899 32.5101 32.0758 32.4478C30.0257 31.6468 28.3072 30.178 27.1995 28.2799C27.1051 28.1615 27.0603 28.0111 27.0748 27.8604C27.0893 27.7098 27.1618 27.5706 27.2771 27.4722C27.6806 27.0737 27.977 26.5801 28.1386 26.0371C28.1745 25.4381 28.0369 24.8415 27.7423 24.3184C27.5145 23.585 27.081 22.9319 26.4931 22.4364C26.1898 22.3003 25.8536 22.2547 25.5249 22.3051C25.1962 22.3554 24.8892 22.4995 24.6408 22.72C24.2095 23.0911 23.8673 23.5539 23.6391 24.0745C23.411 24.595 23.3028 25.1599 23.3226 25.7277C23.3239 26.0465 23.3644 26.364 23.4432 26.673C23.6433 27.4154 23.9509 28.1246 24.3565 28.7784C24.649 29.2791 24.9683 29.7639 25.3128 30.2307C26.4324 31.7637 27.8397 33.0654 29.4568 34.0633C30.2682 34.5705 31.1354 34.9828 32.0414 35.2922C32.9824 35.7177 34.0215 35.881 35.0481 35.7649C35.6331 35.6765 36.1873 35.4462 36.662 35.094C37.1368 34.7419 37.5175 34.2787 37.7706 33.7454C37.9193 33.4232 37.9645 33.063 37.8998 32.7142C37.7447 32.0009 36.7884 31.5798 36.2026 31.2361Z" fill="#00D95F"/>
</g>
</svg>
