<svg width="61" height="61" viewBox="0 0 61 61" fill="none" xmlns="http://www.w3.org/2000/svg">
<g id="Social Media / Youtube">
<g id="Vector">
<path d="M47.4673 22.1105C47.069 20.6132 45.8908 19.4321 44.3918 19.0272C41.6815 18.3008 30.8069 18.3008 30.8069 18.3008C30.8069 18.3008 19.9378 18.3008 17.2219 19.0272C15.7284 19.4265 14.5503 20.6077 14.1465 22.1105C13.4219 24.8278 13.4219 30.5008 13.4219 30.5008C13.4219 30.5008 13.4219 36.1738 14.1465 38.8911C14.5447 40.3883 15.7229 41.5695 17.2219 41.9743C19.9378 42.7008 30.8069 42.7008 30.8069 42.7008C30.8069 42.7008 41.6815 42.7008 44.3918 41.9743C45.8853 41.5751 47.0635 40.3939 47.4673 38.8911C48.1919 36.1738 48.1919 30.5008 48.1919 30.5008C48.1919 30.5008 48.1919 24.8278 47.4673 22.1105Z" fill="#FF3000"/>
<path d="M27.3332 35.7301L36.3659 30.5008L27.3332 25.2714V35.7301Z" fill="white"/>
</g>
</g>
</svg>
