<?xml version="1.0" standalone="no"?>
<!DOCTYPE svg PUBLIC "-//W3C//DTD SVG 1.1//EN" "http://www.w3.org/Graphics/SVG/1.1/DTD/svg11.dtd" >
<svg xmlns="http://www.w3.org/2000/svg" xmlns:xlink="http://www.w3.org/1999/xlink" version="1.1">
<metadata>
Created by FontForge 20190801 at Tue Jul 25 00:03:15 2017
 By Unknown
(C) 2016 Frere-Jones Type LLC
</metadata>
<defs>
<font id="Retina-Regular" horiz-adv-x="0" >
  <font-face 
    font-family="Retina"
    font-weight="400"
    font-stretch="normal"
    units-per-em="1000"
    panose-1="2 11 6 4 4 5 2 2 3 4"
    ascent="800"
    descent="-200"
    x-height="518"
    cap-height="700"
    bbox="-189 -240 992 996"
    underline-thickness="50"
    underline-position="-175"
    unicode-range="U+0020-FB02"
  />
<missing-glyph horiz-adv-x="700" 
d="M600 -240h-500v1200h500v-1200zM507 910h-315l158 -481zM150 -154l171 514l-171 514v-1028zM550 874l-172 -514l172 -514v1028zM507 -190l-157 481l-158 -481h315z" />
    <glyph glyph-name="fi" unicode="fi" horiz-adv-x="616" 
d="M277 729q23 0 46 -3t43 -8v-79q-20 5 -39 8t-37 3q-42 0 -63.5 -22t-21.5 -65v-45h143v-80h-143v-438h-94v438h-85v80h85v45q0 82 42 124t124 42zM542 712v-89h-102v89h102zM538 518v-518h-95v518h95z" />
    <glyph glyph-name="fl" unicode="fl" horiz-adv-x="616" 
d="M277 729q23 0 46 -3t43 -8v-79q-20 5 -39 8t-37 3q-42 0 -63.5 -22t-21.5 -65v-45h143v-80h-143v-438h-94v438h-85v80h85v45q0 82 42 124t124 42zM538 724v-724h-95v724h95z" />
    <glyph glyph-name="f_f" unicode="ff" horiz-adv-x="733" 
d="M277 729q30 0 60 -4.5t53 -12.5l-15 -76q-20 7 -42 10.5t-43 3.5q-42 0 -63.5 -22t-21.5 -65v-45h143v-80h-143v-438h-94v438h-85v80h85v45q0 82 42 124t124 42zM644 729q30 0 60 -4.5t53 -12.5l-15 -76q-20 7 -42 10.5t-43 3.5q-42 0 -63.5 -22t-21.5 -65v-45h143v-80
h-143v-438h-94v438h-85v80h85v45q0 82 42 124t124 42z" />
    <glyph glyph-name="f_f_i" unicode="ffi" horiz-adv-x="983" 
d="M277 729q30 0 60 -4.5t53 -12.5l-15 -76q-20 7 -42 10.5t-43 3.5q-42 0 -63.5 -22t-21.5 -65v-45h143v-80h-143v-438h-94v438h-85v80h85v45q0 82 42 124t124 42zM644 729q23 0 46 -3t43 -8v-79q-20 5 -39 8t-37 3q-42 0 -63.5 -22t-21.5 -65v-45h143v-80h-143v-438h-94
v438h-85v80h85v45q0 82 42 124t124 42zM909 712v-89h-102v89h102zM905 518v-518h-95v518h95z" />
    <glyph glyph-name="f_f_l" unicode="ffl" horiz-adv-x="983" 
d="M277 729q30 0 60 -4.5t53 -12.5l-15 -76q-20 7 -42 10.5t-43 3.5q-42 0 -63.5 -22t-21.5 -65v-45h143v-80h-143v-438h-94v438h-85v80h85v45q0 82 42 124t124 42zM644 729q23 0 46 -3t43 -8v-79q-20 5 -39 8t-37 3q-42 0 -63.5 -22t-21.5 -65v-45h143v-80h-143v-438h-94
v438h-85v80h85v45q0 82 42 124t124 42zM905 724v-724h-95v724h95z" />
    <glyph glyph-name=".notdef" horiz-adv-x="700" 
d="M600 -240h-500v1200h500v-1200zM507 910h-315l158 -481zM150 -154l171 514l-171 514v-1028zM550 874l-172 -514l172 -514v1028zM507 -190l-157 481l-158 -481h315z" />
    <glyph glyph-name=".null" 
d="M0 0z" />
    <glyph glyph-name=".null" 
d="M0 0z" />
    <glyph glyph-name="nonmarkingreturn" horiz-adv-x="333" 
 />
    <glyph glyph-name="space" unicode=" " horiz-adv-x="182" 
d="M0 0z" />
    <glyph glyph-name="exclam" unicode="!" horiz-adv-x="262" 
d="M183 530l-25 -329h-54l-25 329v170h104v-170zM183 107v-107h-104v107h104z" />
    <glyph glyph-name="quotedbl" unicode="&#x22;" horiz-adv-x="417" 
d="M389 700v-1l-128 -262l-41 13l62 250h107zM211 700v-1l-128 -262l-40 13l62 250h106z" />
    <glyph glyph-name="numbersign" unicode="#" horiz-adv-x="625" 
d="M229 263l137 -7l29 180l-136 7zM382 -5h-58l31 191l-137 7l-32 -198h-59l33 201l-120 6v71l131 -7l29 180l-122 6v71l133 -7l31 189h59l-31 -191l137 -7l32 198h59l-33 -201l119 -6v-71l-130 6l-30 -180l123 -6v-70l-134 7z" />
    <glyph glyph-name="dollar" unicode="$" horiz-adv-x="568" 
d="M163 518q0 -40 26.5 -66t86.5 -45l29 217h-4q-63 0 -100.5 -29t-37.5 -77zM277 76h2q69 0 109.5 30.5t40.5 84.5q0 43 -28.5 71t-91.5 47zM517 198q0 -93 -65 -146t-179 -53l-15 -106h-58l15 110q-46 5 -91 19.5t-86 37.5l25 76q42 -23 84.5 -37t84.5 -20l32 242
q-99 28 -144 73.5t-45 117.5q0 87 62.5 138t169.5 51h2l12 83h58l-12 -87q37 -5 73 -16.5t71 -28.5l-25 -75q-36 18 -70 29t-66 15l-30 -226q103 -28 150 -75t47 -122z" />
    <glyph glyph-name="percent" unicode="%" horiz-adv-x="697" 
d="M531 711l48 -24l-215 -346l-199 -352l-47 24l214 347zM183 707q59 0 97.5 -50t38.5 -128t-38.5 -127.5t-97.5 -49.5q-60 0 -98.5 49.5t-38.5 127.5q0 79 39 128.5t98 49.5zM183 407q34 0 54.5 33t20.5 89q0 55 -21 89t-54 34t-54 -34t-21 -89q0 -56 20.5 -89t54.5 -33z
M515 348q59 0 97.5 -49.5t38.5 -127.5t-39 -128t-97 -50q-59 0 -98 49.5t-39 128.5q0 78 38.5 127.5t98.5 49.5zM515 48q33 0 54 34t21 89q0 56 -20.5 89t-54.5 33t-55 -33.5t-21 -88.5t21 -89t55 -34z" />
    <glyph glyph-name="ampersand" unicode="&#x26;" horiz-adv-x="675" 
d="M139 192q0 -52 30.5 -84.5t78.5 -32.5q42 0 79.5 22t74.5 69l-152 186q-54 -30 -82.5 -71t-28.5 -89zM655 0h-113l-87 102q-47 -55 -102 -82.5t-118 -27.5q-86 0 -139 52t-53 139q0 72 40.5 131t117.5 99q-27 38 -38.5 69.5t-11.5 64.5q0 73 50.5 117t134.5 44
q47 0 90.5 -11t91.5 -36l-31 -85q-40 23 -75 34.5t-68 11.5q-42 0 -67 -23.5t-25 -62.5q0 -25 11 -49.5t39 -58.5l155 -187q21 33 38.5 71t32.5 82h94q-24 -70 -49.5 -122t-58.5 -100z" />
    <glyph glyph-name="quotesingle" unicode="'" horiz-adv-x="245" 
d="M216 700v-1l-133 -262l-40 13l62 250h111z" />
    <glyph glyph-name="parenleft" unicode="(" horiz-adv-x="397" 
d="M150 304q0 -117 50.5 -207t159.5 -166l-35 -51q-133 79 -199 184.5t-66 239.5t66 239.5t199 184.5l35 -51q-109 -76 -159.5 -166t-50.5 -207z" />
    <glyph glyph-name="parenright" unicode=")" horiz-adv-x="397" 
d="M72 -120l-35 51q110 77 160.5 167t50.5 206t-50.5 206t-160.5 167l35 51q133 -79 199 -184t66 -240t-66 -240t-199 -184z" />
    <glyph glyph-name="asterisk" unicode="*" horiz-adv-x="331" 
d="M197 702l-25 -106h-13l-25 106h63zM300 583l-108 -11l-4 13l93 55zM143 585l-4 -13l-108 11l20 57zM267 483l-50 -37l-43 100l12 8zM157 546l-43 -100l-50 37l81 71z" />
    <glyph glyph-name="plus" unicode="+" horiz-adv-x="564" 
d="M322 318v-193h-80v193h-185v74h185v193h80v-193h186v-74h-186z" />
    <glyph glyph-name="comma" unicode="," horiz-adv-x="190" 
d="M51 117h97v-8q0 -72 -30.5 -133t-96.5 -122l-32 24q36 56 49 107t13 132z" />
    <glyph glyph-name="hyphen" unicode="-" horiz-adv-x="341" 
d="M297 347v-84h-253v84h253z" />
    <glyph glyph-name="period" unicode="." horiz-adv-x="190" 
d="M146 117v-117h-102v117h102z" />
    <glyph glyph-name="slash" unicode="/" horiz-adv-x="379" 
d="M306 795h73l-318 -925h-73z" />
    <glyph glyph-name="zero" unicode="0" horiz-adv-x="617" 
d="M308 711q118 0 186.5 -96t68.5 -265t-69 -265t-186 -96t-185.5 96t-68.5 265q0 168 69 264.5t185 96.5zM309 73q72 0 113.5 73t41.5 203q0 131 -42 204.5t-114 73.5t-113.5 -73t-41.5 -203q0 -131 42 -204.5t114 -73.5z" />
    <glyph glyph-name="one" unicode="1" horiz-adv-x="413" 
d="M303 704v-704h-99v596l-147 -55l-24 82l197 81h73z" />
    <glyph glyph-name="two" unicode="2" horiz-adv-x="549" 
d="M504 87v-87h-449l-18 71l263 284q49 53 68 88.5t19 70.5q0 47 -29.5 75.5t-79.5 28.5q-44 0 -88 -22t-93 -70l-46 77q54 53 113.5 79.5t124.5 26.5q93 0 146.5 -50t53.5 -134q0 -60 -27.5 -111.5t-97.5 -120.5l-187 -206h327z" />
    <glyph glyph-name="three" unicode="3" horiz-adv-x="547" 
d="M495 181q0 -83 -67 -136t-171 -53q-58 0 -109 12t-109 39l31 81q45 -23 89 -34t93 -11q62 0 101.5 30t39.5 79q0 58 -61 88t-179 29l-7 84q118 10 179 45t61 92q0 44 -33 70t-88 26q-42 0 -85 -15.5t-89 -47.5l-41 74q57 40 110.5 57.5t113.5 17.5q96 0 154.5 -47
t58.5 -123q0 -65 -40.5 -111.5t-117.5 -70.5q81 -16 123.5 -60.5t42.5 -114.5z" />
    <glyph glyph-name="four" unicode="4" horiz-adv-x="585" 
d="M456 157v-157h-98v157h-315l-14 78l301 469h126v-462h100v-85h-100zM135 241h224v356z" />
    <glyph glyph-name="five" unicode="5" horiz-adv-x="559" 
d="M507 231q0 -108 -71.5 -173.5t-190.5 -65.5q-51 0 -99.5 10t-95.5 31l27 83q45 -19 86 -28t79 -9q73 0 119.5 42t46.5 106q0 53 -33 84.5t-88 31.5q-33 0 -64.5 -9.5t-76.5 -34.5l-71 31l22 370h402v-86h-313l-13 -217q36 16 69.5 24t68.5 8q89 0 142.5 -54t53.5 -144z
" />
    <glyph glyph-name="six" unicode="6" horiz-adv-x="565" 
d="M518 228q0 -107 -63 -173t-166 -66q-109 0 -172.5 77t-63.5 210q0 153 82.5 263t247.5 178l42 -76q-107 -47 -170.5 -104t-88.5 -130q38 18 76 27t74 9q93 0 147.5 -57.5t54.5 -157.5zM151 265q0 -88 38 -140t103 -52q57 0 92.5 40.5t35.5 106.5t-36 102.5t-100 36.5
q-28 0 -61.5 -8t-67.5 -23q-2 -14 -3 -29t-1 -34z" />
    <glyph glyph-name="seven" unicode="7" horiz-adv-x="536" 
d="M494 606l-306 -616l-95 30l300 592h-348v88h449v-94z" />
    <glyph glyph-name="eight" unicode="8" horiz-adv-x="582" 
d="M534 186q0 -85 -68 -140t-175 -55q-108 0 -175.5 54.5t-67.5 140.5q0 64 32.5 109t95.5 70q-56 27 -83 67t-27 96q0 78 62.5 129.5t162.5 51.5t162.5 -51.5t62.5 -129.5q0 -56 -27.5 -96.5t-83.5 -66.5q64 -25 96.5 -70t32.5 -109zM165 515q0 -48 36 -78.5t90 -30.5
t90 30.5t36 78.5q0 49 -34.5 79.5t-91.5 30.5t-91.5 -30.5t-34.5 -79.5zM435 200q0 53 -41 88t-103 35q-63 0 -103.5 -34.5t-40.5 -88.5q0 -56 40 -90.5t104 -34.5t104 35t40 90z" />
    <glyph glyph-name="nine" unicode="9" horiz-adv-x="565" 
d="M47 472q0 107 63 173t166 66q109 0 172.5 -77t63.5 -210q0 -153 -82.5 -263t-247.5 -178l-42 76q107 47 170.5 104t88.5 130q-38 -18 -76 -27t-74 -9q-93 0 -147.5 57.5t-54.5 157.5zM414 435q0 88 -38 140t-103 52q-57 0 -92.5 -40.5t-35.5 -106.5t36 -102.5t100 -36.5
q28 0 61.5 8t67.5 23q2 14 3 29t1 34z" />
    <glyph glyph-name="colon" unicode=":" horiz-adv-x="200" 
d="M151 518v-117h-102v117h102zM151 117v-117h-102v117h102z" />
    <glyph glyph-name="semicolon" unicode=";" horiz-adv-x="200" 
d="M153 518v-117h-102v117h102zM55 117h98v-8q0 -72 -30.5 -133t-96.5 -122l-32 24q36 57 48.5 107.5t12.5 131.5z" />
    <glyph glyph-name="less" unicode="&#x3c;" horiz-adv-x="564" 
d="M498 212v-86l-440 191v76l440 191v-85l-350 -143z" />
    <glyph glyph-name="equal" unicode="=" horiz-adv-x="564" 
d="M500 492v-73h-436v73h436zM500 291v-73h-436v73h436z" />
    <glyph glyph-name="greater" unicode="&#x3e;" horiz-adv-x="564" 
d="M66 498v86l440 -191v-76l-440 -191v85l350 144z" />
    <glyph glyph-name="question" unicode="?" horiz-adv-x="531" 
d="M284 710q94 0 150.5 -46.5t56.5 -124.5q0 -72 -50.5 -124.5t-164.5 -96.5l-10 -117h-55l-17 168q109 41 154 78t45 84q0 42 -32.5 67t-86.5 25q-45 0 -95.5 -17.5t-105.5 -52.5l-37 77q62 40 123.5 60t124.5 20zM290 107v-107h-104v107h104z" />
    <glyph glyph-name="at" unicode="@" horiz-adv-x="731" 
d="M370 -150q-154 0 -237.5 87.5t-83.5 250.5q0 99 28 190t81 164q61 83 143.5 129t173.5 46q101 0 156 -48t55 -134q0 -25 -3.5 -51.5t-13.5 -69.5l-83 -350h-48l-12 47q-33 -25 -62 -36t-60 -11q-60 0 -96.5 43.5t-36.5 117.5q0 120 72.5 199.5t184.5 79.5q19 0 37.5 -3
t36.5 -9q2 12 2.5 23t0.5 21q0 60 -36.5 92t-104.5 32q-75 0 -145 -42.5t-121 -119.5q-43 -64 -66 -143t-23 -164q0 -141 69 -215.5t199 -74.5q29 0 60.5 4.5t59.5 13.5l9 -49q-34 -10 -67.5 -15t-68.5 -5zM353 232q0 -48 23 -75.5t62 -27.5q22 0 43 7.5t44 24.5l64 269
q-15 5 -30 8t-29 3q-75 0 -126 -61t-51 -148z" />
    <glyph glyph-name="A" unicode="A" horiz-adv-x="699" 
d="M221 243h256l-128 364zM669 0h-107l-54 155h-318l-54 -155h-106l262 708h116z" />
    <glyph glyph-name="B" unicode="B" horiz-adv-x="650" 
d="M603 191q0 -90 -67 -140.5t-186 -50.5h-262v700h262q110 0 170.5 -43.5t60.5 -122.5q0 -62 -37 -105t-109 -66q84 -18 126 -61.5t42 -110.5zM189 611v-207h122q77 0 122 31t45 84q0 44 -34.5 68t-98.5 24h-156zM189 317v-228h163q69 0 108.5 29.5t39.5 81.5
q0 55 -49.5 86t-137.5 31h-124z" />
    <glyph glyph-name="C" unicode="C" horiz-adv-x="612" 
d="M549 121l22 -88q-44 -21 -92 -31.5t-98 -10.5q-150 0 -239.5 97t-89.5 261q0 161 91.5 260.5t237.5 99.5q50 0 96 -9.5t90 -28.5l-22 -91q-39 18 -79 27.5t-80 9.5q-103 0 -167 -74t-64 -192q0 -122 64 -195t171 -73q38 0 77 9.5t82 28.5z" />
    <glyph glyph-name="D" unicode="D" horiz-adv-x="691" 
d="M639 351q0 -167 -96.5 -259t-268.5 -92h-186v700h189q170 0 266 -91.5t96 -257.5zM189 611v-522h93q120 0 187 68t67 192q0 125 -67 193.5t-188 68.5h-92z" />
    <glyph glyph-name="E" unicode="E" horiz-adv-x="618" 
d="M565 90v-90h-477v700h471v-90h-370v-206h330v-90h-330v-224h376z" />
    <glyph glyph-name="F" unicode="F" horiz-adv-x="585" 
d="M189 288v-288h-101v700h468v-90h-367v-232h280v-90h-280z" />
    <glyph glyph-name="G" unicode="G" horiz-adv-x="694" 
d="M617 382v-330q-54 -29 -114.5 -45t-121.5 -16q-153 0 -241 95.5t-88 262.5q0 164 92 262.5t243 98.5q55 0 107.5 -12t104.5 -37l-30 -88q-51 24 -94.5 34.5t-88.5 10.5q-105 0 -168 -74t-63 -195q0 -126 61.5 -198t169.5 -72q33 0 67.5 8t64.5 22v183h-168v90h267z" />
    <glyph glyph-name="H" unicode="H" horiz-adv-x="713" 
d="M523 312h-334v-312h-101v700h101v-293h334v293h102v-700h-102v312z" />
    <glyph glyph-name="I" unicode="I" horiz-adv-x="284" 
d="M193 700v-700h-102v700h102z" />
    <glyph glyph-name="J" unicode="J" horiz-adv-x="480" 
d="M399 700v-448q0 -128 -58.5 -194t-172.5 -66q-38 0 -73.5 5.5t-69.5 17.5l19 88q28 -11 55.5 -16t55.5 -5q70 0 106.5 43t36.5 127v448h101z" />
    <glyph glyph-name="K" unicode="K" horiz-adv-x="641" 
d="M628 0h-126l-299 334h-14v-334h-101v700h101v-316h15l291 316h126l-318 -339z" />
    <glyph glyph-name="L" unicode="L" horiz-adv-x="548" 
d="M519 91v-91h-431v700h101v-609h330z" />
    <glyph glyph-name="M" unicode="M" horiz-adv-x="916" 
d="M842 0h-100l-26 580l-211 -581h-98l-210 579l-27 -578h-96l36 700h138l209 -578l209 578h141z" />
    <glyph glyph-name="N" unicode="N" horiz-adv-x="716" 
d="M519 0l-334 547v-547h-97v700h114l329 -541v541h97v-700h-109z" />
    <glyph glyph-name="O" unicode="O" horiz-adv-x="718" 
d="M360 712q136 0 221 -100t85 -261q0 -162 -85.5 -262.5t-222.5 -100.5q-136 0 -221 100t-85 261q0 162 85.5 262.5t222.5 100.5zM360 76q91 0 147 75.5t56 197.5q0 123 -56.5 199t-148.5 76q-91 0 -147 -75.5t-56 -197.5q0 -124 56.5 -199.5t148.5 -75.5z" />
    <glyph glyph-name="P" unicode="P" horiz-adv-x="609" 
d="M189 225v-225h-101v700h212q134 0 204.5 -58.5t70.5 -170.5q0 -118 -74.5 -182t-210.5 -64h-101zM189 611v-297h101q88 0 135 39.5t47 114.5q0 71 -44 107t-131 36h-108z" />
    <glyph glyph-name="Q" unicode="Q" horiz-adv-x="718" 
d="M558 66l135 -142h-132l-83 90q-27 -12 -57 -18t-63 -6q-136 0 -221 99.5t-85 260.5t85.5 261.5t222.5 100.5q136 0 221 -99.5t85 -260.5q0 -89 -28 -162.5t-80 -123.5zM360 76q91 0 147 75.5t56 197.5q0 123 -56.5 199t-148.5 76q-91 0 -147 -75.5t-56 -197.5
q0 -124 56.5 -199.5t148.5 -75.5z" />
    <glyph glyph-name="R" unicode="R" horiz-adv-x="666" 
d="M189 611v-266h107q87 0 138.5 38.5t51.5 104.5q0 61 -40 92t-118 31h-139zM261 257h-72v-257h-101v700h246q125 0 190.5 -51t65.5 -148q0 -80 -49 -133.5t-141 -77.5q31 -12 53 -31.5t49 -59.5l151 -199h-123l-129 178q-31 44 -62 61.5t-78 17.5z" />
    <glyph glyph-name="S" unicode="S" horiz-adv-x="606" 
d="M329 406q128 -37 178.5 -84t50.5 -127q0 -96 -68.5 -150t-189.5 -54q-68 0 -134 16t-128 48l29 87q57 -30 118.5 -46t119.5 -16q69 0 110.5 29t41.5 77q0 46 -35.5 74t-125.5 57q-126 36 -176.5 81t-50.5 121q0 87 64 138.5t172 51.5q58 0 113 -12t109 -37l-29 -87
q-50 24 -100 35.5t-100 11.5q-58 0 -93 -25.5t-35 -67.5q0 -41 35.5 -67.5t123.5 -53.5z" />
    <glyph glyph-name="T" unicode="T" horiz-adv-x="620" 
d="M361 609v-609h-102v609h-232v91h565v-91h-231z" />
    <glyph glyph-name="U" unicode="U" horiz-adv-x="693" 
d="M614 700v-429q0 -134 -70.5 -207.5t-197.5 -73.5q-126 0 -196.5 73.5t-70.5 207.5v429h101v-431q0 -90 44.5 -141t122.5 -51t122.5 50.5t44.5 139.5v433h100z" />
    <glyph glyph-name="V" unicode="V" horiz-adv-x="683" 
d="M652 700l-257 -708h-107l-258 708h111l202 -588l201 588h108z" />
    <glyph glyph-name="W" unicode="W" horiz-adv-x="1026" 
d="M799 -6h-112l-174 570l-174 -570h-111l-194 706h108l146 -576l172 576h111l171 -576l146 576h104z" />
    <glyph glyph-name="X" unicode="X" horiz-adv-x="651" 
d="M621 0h-115l-181 287l-182 -287h-114l233 361l-221 339h114l171 -268l171 268h113l-222 -339z" />
    <glyph glyph-name="Y" unicode="Y" horiz-adv-x="642" 
d="M372 274v-274h-102v274l-252 426h112l192 -335l191 335h111z" />
    <glyph glyph-name="Z" unicode="Z" horiz-adv-x="609" 
d="M562 90v-90h-519v84l395 526h-376v90h500v-84l-395 -526h395z" />
    <glyph glyph-name="bracketleft" unicode="[" horiz-adv-x="412" 
d="M366 -35v-57l-277 -17v826l277 -17v-57l-195 9v-696z" />
    <glyph glyph-name="backslash" unicode="\" horiz-adv-x="379" 
d="M391 -130h-73l-318 925h73z" />
    <glyph glyph-name="bracketright" unicode="]" horiz-adv-x="412" 
d="M323 717v-826l-276 17v57l194 -9v696l-194 -9v57z" />
    <glyph glyph-name="asciicircum" unicode="^" horiz-adv-x="564" 
d="M152 421h-86l172 303h88l173 -303h-88l-129 229z" />
    <glyph glyph-name="underscore" unicode="_" horiz-adv-x="483" 
d="M485 -53v-44h-487v44h487z" />
    <glyph glyph-name="grave" unicode="`" horiz-adv-x="500" 
d="M303 587h-67l-144 115h118z" />
    <glyph glyph-name="a" unicode="a" horiz-adv-x="531" 
d="M133 157q0 -41 26 -64t72 -23q33 0 67 13.5t66 39.5v121q-25 2 -42.5 3t-32.5 1q-55 0 -85.5 -7t-49.5 -26q-10 -10 -15.5 -25t-5.5 -33zM390 0l-19 58q-42 -35 -83 -51t-87 -16q-74 0 -117 43t-43 119q0 37 10.5 66t30.5 50q29 29 75.5 41t120.5 12q18 0 39 -1.5
t47 -4.5v36q0 48 -27 71t-83 23q-36 0 -74 -9t-79 -26l-23 76q46 19 93.5 29t95.5 10q99 0 145.5 -41.5t46.5 -130.5v-253l12 -101h-81z" />
    <glyph glyph-name="b" unicode="b" horiz-adv-x="557" 
d="M513 261q0 -125 -57 -198t-153 -73q-37 0 -72 13t-68 40l-14 -43h-74v724h96v-248q31 25 65.5 38t71.5 13q93 0 149 -72t56 -194zM279 69q64 0 101 51t37 140q0 88 -36.5 138t-100.5 50q-28 0 -56 -11.5t-53 -32.5v-294q26 -20 53.5 -30.5t54.5 -10.5z" />
    <glyph glyph-name="c" unicode="c" horiz-adv-x="463" 
d="M409 104l21 -78q-40 -18 -76.5 -27t-74.5 -9q-107 0 -171.5 73.5t-64.5 194.5t66.5 195.5t175.5 74.5q36 0 70 -7t73 -23l-22 -82q-35 15 -62 21.5t-53 6.5q-68 0 -109.5 -51t-41.5 -133q0 -85 41.5 -135.5t111.5 -50.5q25 0 53 7t63 23z" />
    <glyph glyph-name="d" unicode="d" horiz-adv-x="557" 
d="M141 258q0 -88 36.5 -138.5t99.5 -50.5q28 0 56 11.5t54 33.5v294q-25 19 -53 29.5t-55 10.5q-65 0 -101.5 -50t-36.5 -140zM409 0l-16 47q-36 -30 -71 -43.5t-73 -13.5q-92 0 -148 72.5t-56 194.5q0 125 57.5 197.5t154.5 72.5q34 0 66 -10t64 -31v238h95v-724h-73z" />
    <glyph glyph-name="e" unicode="e" horiz-adv-x="521" 
d="M283 -10q-111 0 -175 71t-64 196q0 121 61.5 197t159.5 76q99 0 158 -75t59 -201v-35h-344q6 -69 46 -109.5t103 -40.5q35 0 73 11t74 32l28 -72q-42 -24 -88 -37t-91 -13zM264 452q-52 0 -87 -43t-40 -114h252q-5 73 -38.5 115t-86.5 42z" />
    <glyph glyph-name="f" unicode="f" horiz-adv-x="366" 
d="M277 729q30 0 60 -4.5t53 -12.5l-15 -76q-20 7 -42 10.5t-43 3.5q-42 0 -63.5 -22t-21.5 -65v-45h143v-80h-143v-438h-94v438h-85v80h85v45q0 82 42 124t124 42z" />
    <glyph glyph-name="g" unicode="g" horiz-adv-x="557" 
d="M279 448q-64 0 -101 -48t-37 -132q0 -83 37 -130.5t100 -47.5q27 0 55 10.5t54 29.5v278q-25 19 -53 29.5t-55 10.5zM409 518h73v-482q0 -105 -57 -159t-168 -54q-49 0 -95.5 9t-88.5 27l26 77q39 -17 77.5 -25.5t76.5 -8.5q67 0 100.5 31t33.5 93v29q-33 -23 -66.5 -34
t-68.5 -11q-94 0 -150.5 69t-56.5 187q0 119 57.5 190.5t151.5 71.5q38 0 73.5 -13.5t67.5 -39.5z" />
    <glyph glyph-name="h" unicode="h" horiz-adv-x="563" 
d="M297 442q-30 0 -63.5 -12.5t-62.5 -33.5v-396h-96v724h96v-253q41 29 80 42.5t80 13.5q79 0 120 -44.5t41 -129.5v-353h-95v332q0 54 -25.5 82t-74.5 28z" />
    <glyph glyph-name="i" unicode="i" horiz-adv-x="249" 
d="M176 712v-89h-102v89h102zM172 518v-518h-95v518h95z" />
    <glyph glyph-name="j" unicode="j" horiz-adv-x="249" 
d="M177 712v-89h-103v89h103zM55 -179l-64 49q54 49 70.5 89t16.5 106v453h95v-454q0 -86 -23.5 -137.5t-94.5 -105.5z" />
    <glyph glyph-name="k" unicode="k" horiz-adv-x="514" 
d="M502 0h-116l-212 259h-3v-259h-96v724h96v-444h2l208 238h115l-223 -248z" />
    <glyph glyph-name="l" unicode="l" horiz-adv-x="249" 
d="M172 724v-724h-95v724h95z" />
    <glyph glyph-name="m" unicode="m" horiz-adv-x="874" 
d="M804 354v-354h-96v333q0 54 -25.5 81.5t-74.5 27.5q-28 0 -61.5 -13t-67.5 -37q4 -11 6 -23.5t2 -25.5v-343h-95v333q0 54 -25 81.5t-73 27.5q-29 0 -61.5 -12t-61.5 -34v-396h-96v518h74l16 -51q44 32 83.5 46t80.5 14q47 0 80.5 -17t52.5 -50q49 35 93 51t87 16
q78 0 120 -44.5t42 -128.5z" />
    <glyph glyph-name="n" unicode="n" horiz-adv-x="563" 
d="M297 442q-30 0 -63.5 -12.5t-62.5 -33.5v-396h-96v518h74l16 -51q44 32 84 46t82 14q79 0 120 -44.5t41 -129.5v-353h-95v332q0 54 -25.5 82t-74.5 28z" />
    <glyph glyph-name="o" unicode="o" horiz-adv-x="545" 
d="M273 530q101 0 165 -75t64 -195q0 -121 -64.5 -196.5t-165.5 -75.5t-164.5 75t-63.5 195q0 121 64 196.5t165 75.5zM273 68q59 0 96 53t37 138t-37 138t-97 53q-59 0 -96 -53t-37 -138t37 -138t97 -53z" />
    <glyph glyph-name="p" unicode="p" horiz-adv-x="557" 
d="M279 69q64 0 101 51t37 140q0 88 -36.5 138t-100.5 50q-28 0 -56 -11.5t-53 -32.5v-294q26 -20 53.5 -30.5t54.5 -10.5zM300 -10q-33 0 -65 10.5t-64 31.5v-205h-96v691h74l15 -47q36 30 71 43.5t74 13.5q92 0 148 -72.5t56 -194.5q0 -125 -58 -198t-155 -73z" />
    <glyph glyph-name="q" unicode="q" horiz-adv-x="557" 
d="M482 518v-691h-95v215q-33 -26 -67 -39t-70 -13q-93 0 -149 72.5t-56 194.5q0 125 57 198t152 73q38 0 73 -13t68 -40l14 43h73zM141 258q0 -88 36.5 -138.5t99.5 -50.5q28 0 56 11.5t54 33.5v294q-25 19 -53 29.5t-55 10.5q-65 0 -101.5 -50t-36.5 -140z" />
    <glyph glyph-name="r" unicode="r" horiz-adv-x="380" 
d="M171 357v-357h-96v518h72l18 -86q39 48 85 70.5t101 21.5v-97q-50 -1 -95 -18.5t-85 -51.5z" />
    <glyph glyph-name="s" unicode="s" horiz-adv-x="480" 
d="M265 303q96 -29 134 -64t38 -97q0 -71 -51.5 -111.5t-141.5 -40.5q-54 0 -108.5 13.5t-100.5 38.5l27 79q44 -24 91.5 -37.5t91.5 -13.5q46 0 73 18.5t27 49.5q0 29 -25.5 47.5t-90.5 37.5q-97 27 -134 62t-37 95q0 67 49.5 107t133.5 40q46 0 90 -10.5t86 -30.5l-27 -79
q-38 20 -77 30.5t-75 10.5q-39 0 -63 -17t-24 -45t23.5 -45t90.5 -38z" />
    <glyph glyph-name="t" unicode="t" horiz-adv-x="395" 
d="M265 -8q-80 0 -119.5 39.5t-39.5 118.5v288h-80v80h80v149h95v-149h154v-80h-154v-274q0 -44 22.5 -67t64.5 -23q18 0 34 2.5t33 7.5v-79q-20 -6 -42.5 -9.5t-47.5 -3.5z" />
    <glyph glyph-name="u" unicode="u" horiz-adv-x="563" 
d="M414 0l-16 51q-44 -32 -84 -46t-82 -14q-79 0 -120 44.5t-41 129.5v353h95v-332q0 -54 25.5 -82.5t74.5 -28.5q30 0 63 12.5t63 34.5v396h96v-518h-74z" />
    <glyph glyph-name="v" unicode="v" horiz-adv-x="518" 
d="M495 518l-186 -525h-100l-186 525h98l140 -430l138 430h96z" />
    <glyph glyph-name="w" unicode="w" horiz-adv-x="800" 
d="M623 -5h-99l-125 409l-124 -409h-99l-149 523h96l106 -416l123 416h97l124 -415l106 415h94z" />
    <glyph glyph-name="x" unicode="x" horiz-adv-x="507" 
d="M482 0h-102l-128 204l-127 -204h-100l171 265l-163 253h102l119 -192l120 192h100l-164 -252z" />
    <glyph glyph-name="y" unicode="y" horiz-adv-x="516" 
d="M69 -178l-22 77q57 15 94.5 41.5t65.5 69.5l-179 508h98l137 -424l134 424h97l-163 -461q-39 -110 -92.5 -158t-169.5 -77z" />
    <glyph glyph-name="z" unicode="z" horiz-adv-x="478" 
d="M436 79v-79h-398v74l285 365h-270v79h383v-74l-285 -365h285z" />
    <glyph glyph-name="braceleft" unicode="{" horiz-adv-x="544" 
d="M500 -55l-9 -61q-86 9 -166 28.5t-151 48.5l-9 52q47 24 70 53t23 66q0 62 -56.5 100t-162.5 46v52q106 8 162.5 46t56.5 100q0 37 -23 66t-70 53l9 52q71 29 151 48.5t166 28.5l9 -61q-60 -6 -119.5 -19t-115.5 -32q42 -24 64 -58t22 -76q0 -62 -46 -106t-135 -68
q89 -24 135 -68t46 -106q0 -42 -22 -76t-64 -58q56 -19 115.5 -32t119.5 -19z" />
    <glyph glyph-name="bar" unicode="|" horiz-adv-x="306" 
d="M187 795v-925h-68v925h68z" />
    <glyph glyph-name="braceright" unicode="}" horiz-adv-x="544" 
d="M54 -116l-10 61q61 6 120.5 19t114.5 32q-42 24 -63.5 58t-21.5 76q0 62 46 106.5t134 67.5q-88 23 -134 67.5t-46 106.5q0 42 21.5 76t63.5 58q-55 19 -114.5 32t-120.5 19l10 61q86 -9 166.5 -28.5t150.5 -48.5l8 -52q-47 -24 -70 -53t-23 -66q0 -62 56.5 -100
t162.5 -46v-52q-106 -8 -162.5 -46t-56.5 -100q0 -37 23 -66t70 -53l-8 -52q-70 -29 -150.5 -48.5t-166.5 -28.5z" />
    <glyph glyph-name="asciitilde" unicode="~" horiz-adv-x="564" 
d="M379 357q17 0 32.5 17t38.5 62l58 -23q-30 -73 -58 -105t-64 -32q-22 0 -45 8.5t-66 33.5q-40 23 -57.5 30t-31.5 7q-18 0 -33.5 -17.5t-38.5 -62.5l-58 24q30 73 58.5 105t63.5 32q22 0 45.5 -9t65.5 -33q43 -24 59.5 -30.5t30.5 -6.5z" />
    <glyph glyph-name="uni00A0" unicode="&#xa0;" horiz-adv-x="182" 
d="M0 0z" />
    <glyph glyph-name="exclamdown" unicode="&#xa1;" horiz-adv-x="262" 
d="M79 170l25 329h54l25 -329v-170h-104v170zM79 593v107h104v-107h-104z" />
    <glyph glyph-name="cent" unicode="&#xa2;" horiz-adv-x="473" 
d="M136 360q0 -55 24 -92.5t68 -52.5l37 296q-57 -5 -93 -46.5t-36 -104.5zM408 242l22 -70q-40 -19 -80.5 -29t-79.5 -10l-18 -137h-57l18 143q-76 17 -120 75.5t-44 144.5q0 98 61 161t159 67l15 117h57l-15 -120q25 -3 49 -10.5t54 -21.5l-23 -72q-25 13 -47.5 20
t-46.5 10l-38 -302h5q31 0 64.5 9t64.5 25z" />
    <glyph glyph-name="sterling" unicode="&#xa3;" horiz-adv-x="570" 
d="M164 85h351v-85h-448l-18 67q38 36 58.5 79t29.5 105l7 56h-89v79h99l14 107q7 53 23.5 91.5t43.5 64.5q30 30 69.5 44.5t90.5 14.5q33 0 66 -5.5t62 -16.5l-20 -86q-25 9 -52 14t-50 5q-31 0 -55 -9t-41 -27q-17 -17 -28 -43.5t-16 -62.5l-12 -91h197v-79h-207l-9 -69
q-7 -52 -22 -87t-44 -66z" />
    <glyph glyph-name="yen" unicode="&#xa5;" horiz-adv-x="590" 
d="M510 170v-55h-166v-115h-99v115h-166v55h166v89h-166v56h153l-206 385h109l160 -329l161 329h107l-206 -385h153v-56h-166v-89h166z" />
    <glyph glyph-name="section" unicode="&#xa7;" horiz-adv-x="573" 
d="M132 364q0 -29 30.5 -49t110.5 -48q27 -10 41 -15t25 -10q52 23 77 46.5t25 48.5q0 28 -30.5 48t-111.5 48q-42 16 -50 19t-15 6q-52 -23 -77 -46t-25 -48zM458 115q0 -54 -48 -88.5t-127 -34.5q-44 0 -90.5 9t-92.5 27l21 72q40 -16 84 -26t78 -10q40 0 63.5 13.5
t23.5 35.5t-27 39t-107 46q-107 37 -148.5 70.5t-41.5 84.5q0 42 28.5 76t91.5 65q-27 18 -39 39.5t-12 51.5q0 54 47.5 88.5t126.5 34.5q44 0 90.5 -9t92.5 -27l-20 -72q-42 17 -85.5 27t-76.5 10q-40 0 -63.5 -14t-23.5 -36q0 -23 27 -39.5t106 -45.5q107 -37 149 -70.5
t42 -84.5q0 -42 -29 -76t-91 -64q27 -19 39 -40.5t12 -51.5z" />
    <glyph glyph-name="dieresis" unicode="&#xa8;" horiz-adv-x="500" 
d="M211 681v-88h-78v88h78zM367 681v-88h-78v88h78z" />
    <glyph glyph-name="copyright" unicode="&#xa9;" horiz-adv-x="756" 
d="M701 350q0 -163 -92 -269.5t-231 -106.5q-140 0 -231.5 106t-91.5 270t91.5 270t231.5 106q139 0 231 -106.5t92 -269.5zM669 350q0 151 -82.5 249t-208.5 98t-208.5 -98t-82.5 -249t82.5 -249t208.5 -98t208.5 98t82.5 249zM489 246l20 -53q-29 -15 -58 -22.5t-57 -7.5
q-82 0 -130.5 51.5t-48.5 138.5q0 85 50 137.5t129 52.5q29 0 56 -6.5t56 -21.5l-19 -56q-21 13 -43.5 19t-46.5 6q-51 0 -82.5 -36t-31.5 -94q0 -60 31.5 -96t84.5 -36q21 0 42 5.5t48 18.5z" />
    <glyph glyph-name="ordfeminine" unicode="&#xaa;" horiz-adv-x="402" 
d="M120 477q0 -27 16.5 -42t46.5 -15q20 0 43.5 9t42.5 23v82q-5 1 -26.5 2t-34.5 1q-42 0 -65 -15.5t-23 -44.5zM288 380l-13 36q-26 -20 -54 -30t-58 -10q-49 0 -77 26t-28 71q0 49 36 76t104 27q13 0 38.5 -1.5t32.5 -2.5v23q0 31 -16.5 45t-51.5 14q-24 0 -50.5 -5.5
t-51.5 -16.5l-16 49q31 12 63 18t63 6q64 0 95 -26.5t31 -80.5v-155l8 -63h-55zM350 310v-40h-299v40h299z" />
    <glyph glyph-name="guillemotleft" unicode="&#xab;" horiz-adv-x="509" 
d="M469 124l-34 -31l-198 187v50l198 187l34 -31l-143 -181zM267 124l-34 -31l-198 187v50l198 187l34 -31l-143 -181z" />
    <glyph glyph-name="registered" unicode="&#xae;" horiz-adv-x="393" 
d="M39 541q0 72 45 120t112 48t112 -48t45 -120t-45 -120t-112 -48t-112 48t-45 120zM58 541q0 -65 39.5 -108t98.5 -43q60 0 99.5 43t39.5 108t-39.5 108t-99.5 43t-99 -42.5t-39 -108.5zM166 603v-57h21q21 0 33 8.5t12 23.5q0 12 -8.5 18.5t-25.5 6.5h-32zM177 519h-11
v-60h-35v172h69q33 0 51 -13t18 -36q0 -19 -12.5 -32.5t-35.5 -20.5q7 -3 12 -7t12 -14l40 -49h-43l-35 45q-7 9 -13 12t-17 3z" />
    <glyph glyph-name="macron" unicode="&#xaf;" horiz-adv-x="500" 
d="M376 651v-53h-252v53h252z" />
    <glyph glyph-name="degree" unicode="&#xb0;" horiz-adv-x="422" 
d="M211 708q71 0 118.5 -47.5t47.5 -118.5q0 -70 -48 -118.5t-118 -48.5t-118 48t-48 118t48 118.5t118 48.5zM211 429q46 0 76.5 32t30.5 80t-30.5 80.5t-76.5 32.5t-76.5 -32t-30.5 -80t30.5 -80.5t76.5 -32.5z" />
    <glyph glyph-name="plusminus" unicode="&#xb1;" horiz-adv-x="564" 
d="M322 344v-176h-80v176h-176v75h176v179h80v-179h177v-75h-177zM499 73v-73h-433v73h433z" />
    <glyph glyph-name="uni00B2" unicode="&#xb2;" horiz-adv-x="411" 
d="M364 478v-61h-306l-13 51l176 164q32 32 44.5 52t12.5 39q0 26 -19 41t-50 15q-29 0 -59.5 -15.5t-61.5 -45.5l-33 51q35 36 76 54.5t86 18.5q62 0 99.5 -30.5t37.5 -81.5q0 -34 -19.5 -65.5t-66.5 -73.5l-119 -113h215z" />
    <glyph glyph-name="uni00B3" unicode="&#xb3;" horiz-adv-x="413" 
d="M361 527q0 -51 -46 -83t-116 -32q-41 0 -78 9.5t-78 31.5l27 52q33 -18 63.5 -27t63.5 -9q39 0 64.5 17.5t25.5 46.5q0 33 -39.5 49.5t-119.5 15.5l-5 54q78 6 118.5 26t40.5 51q0 26 -19.5 40.5t-52.5 14.5q-28 0 -59.5 -10t-68.5 -31l-29 50q42 25 82.5 37t82.5 12
q63 -1 100.5 -29.5t37.5 -76.5q0 -36 -24.5 -63t-70.5 -43q49 -12 74.5 -38t25.5 -65z" />
    <glyph glyph-name="acute" unicode="&#xb4;" horiz-adv-x="500" 
d="M408 702l-144 -115h-67l93 115h118z" />
    <glyph glyph-name="uni00B5" unicode="&#xb5;" horiz-adv-x="568" 
d="M163 43l5 -75v-141h-93v691h96v-330q0 -54 25.5 -82.5t74.5 -28.5q29 0 62.5 12.5t63.5 34.5v394h95v-518h-64l-17 53q-35 -31 -70 -45.5t-73 -14.5q-35 0 -61.5 12.5t-43.5 37.5z" />
    <glyph glyph-name="paragraph" unicode="&#xb6;" horiz-adv-x="546" 
d="M457 700v-700h-68v637h-107v-356q-111 -2 -177.5 54t-66.5 153q0 99 66 155.5t180 56.5h173z" />
    <glyph glyph-name="uni00B7" unicode="&#xb7;" horiz-adv-x="216" 
d="M159 364v-118h-102v118h102z" />
    <glyph glyph-name="cedilla" unicode="&#xb8;" horiz-adv-x="500" 
d="M338 -83q0 -34 -43.5 -52t-132.5 -21l-4 35q51 4 74.5 11.5t23.5 21.5q0 12 -16 15q-7 2 -16 2q-12 0 -28 -3l-16 20l50 63l60 -5l-37 -41q41 1 63 -10.5t22 -35.5z" />
    <glyph glyph-name="uni00B9" unicode="&#xb9;" horiz-adv-x="338" 
d="M245 839v-422h-74v344l-112 -39l-16 60l148 57h54z" />
    <glyph glyph-name="ordmasculine" unicode="&#xba;" horiz-adv-x="403" 
d="M49 539q0 74 43 121t110 47t109.5 -46.5t42.5 -120.5t-43 -120.5t-110 -46.5t-109.5 46.5t-42.5 119.5zM112 540q0 -50 25 -82t65 -32q39 0 64 31.5t25 81.5t-25 82t-65 32q-39 0 -64 -31.5t-25 -81.5zM349 310v-40h-295v40h295z" />
    <glyph glyph-name="guillemotright" unicode="&#xbb;" horiz-adv-x="509" 
d="M272 280l-198 -187l-34 30l143 182l-143 181l34 31l198 -187v-50zM474 280l-198 -187l-34 30l144 182l-144 181l34 31l198 -187v-50z" />
    <glyph glyph-name="onequarter" unicode="&#xbc;" horiz-adv-x="850" 
d="M230 703v-422h-74v344l-112 -39l-16 60l148 57h54zM203 0h-52l231 361l212 339h52l-231 -361zM758 90v-90h-71v90h-225l-3 56l202 276h97v-276h72v-56h-72zM530 145h159v222z" />
    <glyph glyph-name="onehalf" unicode="&#xbd;" horiz-adv-x="862" 
d="M230 703v-422h-74v344l-112 -39l-16 60l148 57h54zM203 0h-52l231 361l212 339h52l-231 -361zM830 61v-61h-306l-13 51l176 164q32 32 44.5 52t12.5 39q0 26 -19 41t-50 15q-29 0 -59.5 -15.5t-61.5 -45.5l-33 51q35 36 76 54.5t86 18.5q62 0 99.5 -30.5t37.5 -81.5
q0 -34 -19.5 -65.5t-66.5 -73.5l-119 -113h215z" />
    <glyph glyph-name="threequarters" unicode="&#xbe;" horiz-adv-x="912" 
d="M346 391q0 -51 -46 -83t-116 -32q-41 0 -78 9.5t-78 31.5l27 52q33 -18 63.5 -27t63.5 -9q39 0 64.5 17.5t25.5 46.5q0 33 -39.5 49.5t-119.5 15.5l-5 54q78 6 118.5 26t40.5 51q0 26 -19.5 40.5t-52.5 14.5q-28 0 -59.5 -10t-68.5 -31l-29 50q42 25 82.5 37t82.5 12
q63 -1 100.5 -29.5t37.5 -76.5q0 -36 -24.5 -63t-70.5 -43q49 -12 74.5 -38t25.5 -65zM264 0h-52l231 361l212 339h52l-231 -361zM819 90v-90h-71v90h-225l-3 56l202 276h97v-276h72v-56h-72zM591 145h159v222z" />
    <glyph glyph-name="questiondown" unicode="&#xbf;" horiz-adv-x="531" 
d="M247 -10q-94 0 -150.5 46.5t-56.5 124.5q0 72 50.5 124.5t164.5 96.5l10 117h55l17 -168q-109 -41 -154 -78t-45 -84q0 -42 32.5 -67t86.5 -25q45 0 95.5 17.5t105.5 52.5l37 -77q-62 -40 -123.5 -60t-124.5 -20zM241 593v107h104v-107h-104z" />
    <glyph glyph-name="Agrave" unicode="&#xc0;" horiz-adv-x="699" 
d="M221 243h256l-128 364zM669 0h-107l-54 155h-318l-54 -155h-106l262 708h116zM409 755h-81l-143 98h127z" />
    <glyph glyph-name="Aacute" unicode="&#xc1;" horiz-adv-x="699" 
d="M221 243h256l-128 364zM669 0h-107l-54 155h-318l-54 -155h-106l262 708h116zM513 853l-143 -98h-81l97 98h127z" />
    <glyph glyph-name="Acircumflex" unicode="&#xc2;" horiz-adv-x="699" 
d="M221 243h256l-128 364zM669 0h-107l-54 155h-318l-54 -155h-106l262 708h116zM415 755l-67 53l-67 -53h-69l94 101h86l94 -101h-71z" />
    <glyph glyph-name="Atilde" unicode="&#xc3;" horiz-adv-x="699" 
d="M221 243h256l-128 364zM669 0h-107l-54 155h-318l-54 -155h-106l262 708h116zM292 801q-13 0 -23 -11t-22 -38l-50 15q20 51 40 72.5t48 21.5q15 0 30 -5.5t42 -20.5q24 -13 35.5 -17.5t21.5 -4.5q13 0 23 11t22 38l49 -16q-19 -50 -39 -71.5t-48 -21.5q-15 0 -30 5
t-43 20q-25 14 -35.5 18.5t-20.5 4.5z" />
    <glyph glyph-name="Adieresis" unicode="&#xc4;" horiz-adv-x="699" 
d="M221 243h256l-128 364zM669 0h-107l-54 155h-318l-54 -155h-106l262 708h116zM307 843v-88h-81v88h81zM472 843v-88h-81v88h81z" />
    <glyph glyph-name="Aring" unicode="&#xc5;" horiz-adv-x="699" 
d="M350 827q-30 0 -49 -18t-19 -46t19 -46.5t49 -18.5t49 18.5t19 46.5t-19.5 46t-48.5 18zM221 243h256l-128 364zM669 0h-107l-54 155h-318l-54 -155h-106l254 687q-19 14 -29 34t-10 42q0 41 30 68.5t75 27.5t75 -27.5t30 -68.5q0 -23 -10.5 -43t-29.5 -33z" />
    <glyph glyph-name="AE" unicode="&#xc6;" horiz-adv-x="1040" 
d="M275 243h239v368h-16zM986 0h-472v155h-292l-94 -155h-112l428 700h537v-90h-367v-206h326v-90h-326v-224h372v-90z" />
    <glyph glyph-name="Ccedilla" unicode="&#xc7;" horiz-adv-x="612" 
d="M446 -83q0 -34 -43.5 -52t-132.5 -21l-4 35q51 4 74.5 11.5t23.5 21.5q0 12 -15 15q-7 2 -17 2q-12 0 -28 -3l-16 20l39 49q-128 18 -201.5 112.5t-73.5 241.5q0 161 91.5 260.5t237.5 99.5q50 0 96 -9.5t90 -28.5l-22 -91q-39 18 -79 27.5t-80 9.5q-103 0 -167 -74
t-64 -192q0 -122 64 -195t171 -73q38 0 77 9.5t82 28.5l22 -88q-43 -20 -90.5 -31t-94.5 -11l-25 -28q41 1 63 -10.5t22 -35.5z" />
    <glyph glyph-name="Egrave" unicode="&#xc8;" horiz-adv-x="618" 
d="M565 90v-90h-477v700h471v-90h-370v-206h330v-90h-330v-224h376zM392 749h-81l-143 98h127z" />
    <glyph glyph-name="Eacute" unicode="&#xc9;" horiz-adv-x="618" 
d="M565 90v-90h-477v700h471v-90h-370v-206h330v-90h-330v-224h376zM496 847l-143 -98h-81l97 98h127z" />
    <glyph glyph-name="Ecircumflex" unicode="&#xca;" horiz-adv-x="618" 
d="M565 90v-90h-477v700h471v-90h-370v-206h330v-90h-330v-224h376zM398 749l-67 53l-67 -53h-69l94 101h86l94 -101h-71z" />
    <glyph glyph-name="Edieresis" unicode="&#xcb;" horiz-adv-x="618" 
d="M565 90v-90h-477v700h471v-90h-370v-206h330v-90h-330v-224h376zM290 837v-88h-81v88h81zM455 837v-88h-81v88h81z" />
    <glyph glyph-name="Igrave" unicode="&#xcc;" horiz-adv-x="284" 
d="M193 700v-700h-102v700h102zM202 749h-81l-143 98h127z" />
    <glyph glyph-name="Iacute" unicode="&#xcd;" horiz-adv-x="284" 
d="M193 700v-700h-102v700h102zM306 847l-143 -98h-81l97 98h127z" />
    <glyph glyph-name="Icircumflex" unicode="&#xce;" horiz-adv-x="284" 
d="M193 700v-700h-102v700h102zM208 749l-67 53l-67 -53h-69l94 101h86l94 -101h-71z" />
    <glyph glyph-name="Idieresis" unicode="&#xcf;" horiz-adv-x="284" 
d="M193 700v-700h-102v700h102zM100 837v-88h-81v88h81zM265 837v-88h-81v88h81z" />
    <glyph glyph-name="Eth" unicode="&#xd0;" horiz-adv-x="703" 
d="M651 351q0 -167 -96.5 -259t-268.5 -92h-186v323h-74v72h74v305h189q170 0 266 -91.5t96 -257.5zM200 323v-234h94q120 0 187 68t67 192q0 125 -67 193.5t-189 68.5h-92v-217h166v-71h-166z" />
    <glyph glyph-name="Ntilde" unicode="&#xd1;" horiz-adv-x="716" 
d="M519 0l-334 547v-547h-97v700h114l329 -541v541h97v-700h-109zM309 795q-13 0 -23 -11t-22 -38l-50 15q20 51 40 72.5t48 21.5q15 0 30 -5.5t42 -20.5q24 -13 35.5 -17.5t21.5 -4.5q13 0 23 11t22 38l49 -16q-19 -50 -39 -71.5t-48 -21.5q-15 0 -30 5t-43 20
q-25 14 -35.5 18.5t-20.5 4.5z" />
    <glyph glyph-name="Ograve" unicode="&#xd2;" horiz-adv-x="718" 
d="M360 712q136 0 221 -100t85 -261q0 -162 -85.5 -262.5t-222.5 -100.5q-136 0 -221 100t-85 261q0 162 85.5 262.5t222.5 100.5zM360 76q91 0 147 75.5t56 197.5q0 123 -56.5 199t-148.5 76q-91 0 -147 -75.5t-56 -197.5q0 -124 56.5 -199.5t148.5 -75.5zM419 756h-81
l-143 98h127z" />
    <glyph glyph-name="Oacute" unicode="&#xd3;" horiz-adv-x="718" 
d="M360 712q136 0 221 -100t85 -261q0 -162 -85.5 -262.5t-222.5 -100.5q-136 0 -221 100t-85 261q0 162 85.5 262.5t222.5 100.5zM360 76q91 0 147 75.5t56 197.5q0 123 -56.5 199t-148.5 76q-91 0 -147 -75.5t-56 -197.5q0 -124 56.5 -199.5t148.5 -75.5zM523 854
l-143 -98h-81l97 98h127z" />
    <glyph glyph-name="Ocircumflex" unicode="&#xd4;" horiz-adv-x="718" 
d="M360 712q136 0 221 -100t85 -261q0 -162 -85.5 -262.5t-222.5 -100.5q-136 0 -221 100t-85 261q0 162 85.5 262.5t222.5 100.5zM360 76q91 0 147 75.5t56 197.5q0 123 -56.5 199t-148.5 76q-91 0 -147 -75.5t-56 -197.5q0 -124 56.5 -199.5t148.5 -75.5zM425 756l-67 53
l-67 -53h-69l94 101h86l94 -101h-71z" />
    <glyph glyph-name="Otilde" unicode="&#xd5;" horiz-adv-x="718" 
d="M360 712q136 0 221 -100t85 -261q0 -162 -85.5 -262.5t-222.5 -100.5q-136 0 -221 100t-85 261q0 162 85.5 262.5t222.5 100.5zM360 76q91 0 147 75.5t56 197.5q0 123 -56.5 199t-148.5 76q-91 0 -147 -75.5t-56 -197.5q0 -124 56.5 -199.5t148.5 -75.5zM302 802
q-13 0 -23 -11t-22 -38l-50 15q20 51 40 72.5t48 21.5q15 0 30 -5.5t42 -20.5q24 -13 35.5 -17.5t21.5 -4.5q13 0 23 11t22 38l49 -16q-19 -50 -39 -71.5t-48 -21.5q-15 0 -30 5t-43 20q-25 14 -35.5 18.5t-20.5 4.5z" />
    <glyph glyph-name="Odieresis" unicode="&#xd6;" horiz-adv-x="718" 
d="M360 712q136 0 221 -100t85 -261q0 -162 -85.5 -262.5t-222.5 -100.5q-136 0 -221 100t-85 261q0 162 85.5 262.5t222.5 100.5zM360 76q91 0 147 75.5t56 197.5q0 123 -56.5 199t-148.5 76q-91 0 -147 -75.5t-56 -197.5q0 -124 56.5 -199.5t148.5 -75.5zM317 844v-88h-81
v88h81zM482 844v-88h-81v88h81z" />
    <glyph glyph-name="multiply" unicode="&#xd7;" horiz-adv-x="564" 
d="M494 199l-56 -56l-156 158l-157 -158l-54 55l157 157l-158 156l56 56l156 -158l157 157l55 -54l-158 -157z" />
    <glyph glyph-name="Oslash" unicode="&#xd8;" horiz-adv-x="718" 
d="M358 625q-91 0 -147 -75.5t-56 -198.5q0 -56 12.5 -104.5t36.5 -84.5l269 422q-25 20 -54 30.5t-61 10.5zM360 75q91 0 147 75.5t56 198.5q0 57 -13 105.5t-37 84.5l-269 -422q25 -21 54 -31.5t62 -10.5zM666 351q0 -162 -85.5 -262.5t-222.5 -100.5q-47 0 -89 12.5
t-77 37.5l-59 -89h-83l92 133q-44 49 -67 117t-23 150q0 162 85.5 262.5t222.5 100.5q46 0 88 -12.5t77 -36.5l60 88h82l-91 -133q44 -49 67 -117t23 -150z" />
    <glyph glyph-name="Ugrave" unicode="&#xd9;" horiz-adv-x="693" 
d="M614 700v-429q0 -134 -70.5 -207.5t-197.5 -73.5q-126 0 -196.5 73.5t-70.5 207.5v429h101v-431q0 -90 44.5 -141t122.5 -51t122.5 50.5t44.5 139.5v433h100zM406 745h-81l-143 98h127z" />
    <glyph glyph-name="Uacute" unicode="&#xda;" horiz-adv-x="693" 
d="M614 700v-429q0 -134 -70.5 -207.5t-197.5 -73.5q-126 0 -196.5 73.5t-70.5 207.5v429h101v-431q0 -90 44.5 -141t122.5 -51t122.5 50.5t44.5 139.5v433h100zM510 843l-143 -98h-81l97 98h127z" />
    <glyph glyph-name="Ucircumflex" unicode="&#xdb;" horiz-adv-x="693" 
d="M614 700v-429q0 -134 -70.5 -207.5t-197.5 -73.5q-126 0 -196.5 73.5t-70.5 207.5v429h101v-431q0 -90 44.5 -141t122.5 -51t122.5 50.5t44.5 139.5v433h100zM412 749l-67 53l-67 -53h-69l94 101h86l94 -101h-71z" />
    <glyph glyph-name="Udieresis" unicode="&#xdc;" horiz-adv-x="693" 
d="M614 700v-429q0 -134 -70.5 -207.5t-197.5 -73.5q-126 0 -196.5 73.5t-70.5 207.5v429h101v-431q0 -90 44.5 -141t122.5 -51t122.5 50.5t44.5 139.5v433h100zM304 837v-88h-81v88h81zM469 837v-88h-81v88h81z" />
    <glyph glyph-name="Yacute" unicode="&#xdd;" horiz-adv-x="642" 
d="M372 274v-274h-102v274l-252 426h112l192 -335l191 335h111zM485 843l-143 -98h-81l97 98h127z" />
    <glyph glyph-name="Thorn" unicode="&#xde;" horiz-adv-x="621" 
d="M189 117v-117h-101v700h101v-108h111q134 0 204.5 -58.5t70.5 -170.5q0 -118 -74.5 -182t-210.5 -64h-101zM189 503v-297h101q88 0 135 39.5t47 114.5q0 71 -44 107t-131 36h-108z" />
    <glyph glyph-name="germandbls" unicode="&#xdf;" horiz-adv-x="634" 
d="M593 153q0 -74 -48 -117t-131 -43q-35 0 -68 6.5t-63 18.5v83q29 -13 59 -20t58 -7q46 0 72 22.5t26 61.5q0 52 -48.5 93t-145.5 71v75q73 24 111 62t38 87q0 46 -33 74.5t-87 28.5q-59 0 -93.5 -38t-34.5 -101v-510h-94v438h-85v80h85q1 101 59 156t165 55
q96 0 154.5 -49t58.5 -128q0 -62 -36 -110t-104 -78q93 -34 139 -86.5t46 -124.5z" />
    <glyph glyph-name="agrave" unicode="&#xe0;" horiz-adv-x="531" 
d="M133 157q0 -41 26 -64t72 -23q33 0 67 13.5t66 39.5v121q-25 2 -42.5 3t-32.5 1q-55 0 -85.5 -7t-49.5 -26q-10 -10 -15.5 -25t-5.5 -33zM390 0l-19 58q-42 -35 -83 -51t-87 -16q-74 0 -117 43t-43 119q0 37 10.5 66t30.5 50q29 29 75.5 41t120.5 12q18 0 39 -1.5
t47 -4.5v36q0 48 -27 71t-83 23q-36 0 -74 -9t-79 -26l-23 76q46 19 93.5 29t95.5 10q99 0 145.5 -41.5t46.5 -130.5v-253l12 -101h-81zM319 590h-67l-144 115h118z" />
    <glyph glyph-name="aacute" unicode="&#xe1;" horiz-adv-x="531" 
d="M133 157q0 -41 26 -64t72 -23q33 0 67 13.5t66 39.5v121q-25 2 -42.5 3t-32.5 1q-55 0 -85.5 -7t-49.5 -26q-10 -10 -15.5 -25t-5.5 -33zM390 0l-19 58q-42 -35 -83 -51t-87 -16q-74 0 -117 43t-43 119q0 37 10.5 66t30.5 50q29 29 75.5 41t120.5 12q18 0 39 -1.5
t47 -4.5v36q0 48 -27 71t-83 23q-36 0 -74 -9t-79 -26l-23 76q46 19 93.5 29t95.5 10q99 0 145.5 -41.5t46.5 -130.5v-253l12 -101h-81zM424 705l-144 -115h-67l93 115h118z" />
    <glyph glyph-name="acircumflex" unicode="&#xe2;" horiz-adv-x="531" 
d="M133 157q0 -41 26 -64t72 -23q33 0 67 13.5t66 39.5v121q-25 2 -42.5 3t-32.5 1q-55 0 -85.5 -7t-49.5 -26q-10 -10 -15.5 -25t-5.5 -33zM390 0l-19 58q-42 -35 -83 -51t-87 -16q-74 0 -117 43t-43 119q0 37 10.5 66t30.5 50q29 29 75.5 41t120.5 12q18 0 39 -1.5
t47 -4.5v36q0 48 -27 71t-83 23q-36 0 -74 -9t-79 -26l-23 76q46 19 93.5 29t95.5 10q99 0 145.5 -41.5t46.5 -130.5v-253l12 -101h-81zM334 590l-68 66l-69 -66h-61l93 118h74l93 -118h-62z" />
    <glyph glyph-name="atilde" unicode="&#xe3;" horiz-adv-x="531" 
d="M133 157q0 -41 26 -64t72 -23q33 0 67 13.5t66 39.5v121q-25 2 -42.5 3t-32.5 1q-55 0 -85.5 -7t-49.5 -26q-10 -10 -15.5 -25t-5.5 -33zM390 0l-19 58q-42 -35 -83 -51t-87 -16q-74 0 -117 43t-43 119q0 37 10.5 66t30.5 50q29 29 75.5 41t120.5 12q18 0 39 -1.5
t47 -4.5v36q0 48 -27 71t-83 23q-36 0 -74 -9t-79 -26l-23 76q46 19 93.5 29t95.5 10q99 0 145.5 -41.5t46.5 -130.5v-253l12 -101h-81zM211 637q-12 0 -22 -11.5t-22 -39.5l-46 15q18 52 38 74.5t47 22.5q13 0 25.5 -4.5t43.5 -22.5q21 -13 32.5 -17.5t21.5 -4.5
q13 0 22.5 11t21.5 39l46 -14q-18 -52 -37.5 -74.5t-47.5 -22.5q-14 0 -27.5 5t-41.5 21q-26 15 -35.5 19t-18.5 4z" />
    <glyph glyph-name="adieresis" unicode="&#xe4;" horiz-adv-x="531" 
d="M133 157q0 -41 26 -64t72 -23q33 0 67 13.5t66 39.5v121q-25 2 -42.5 3t-32.5 1q-55 0 -85.5 -7t-49.5 -26q-10 -10 -15.5 -25t-5.5 -33zM390 0l-19 58q-42 -35 -83 -51t-87 -16q-74 0 -117 43t-43 119q0 37 10.5 66t30.5 50q29 29 75.5 41t120.5 12q18 0 39 -1.5
t47 -4.5v36q0 48 -27 71t-83 23q-36 0 -74 -9t-79 -26l-23 76q46 19 93.5 29t95.5 10q99 0 145.5 -41.5t46.5 -130.5v-253l12 -101h-81zM227 684v-88h-78v88h78zM383 684v-88h-78v88h78z" />
    <glyph glyph-name="aring" unicode="&#xe5;" horiz-adv-x="531" 
d="M133 157q0 -41 26 -64t72 -23q33 0 67 13.5t66 39.5v121q-25 2 -42.5 3t-32.5 1q-55 0 -85.5 -7t-49.5 -26q-10 -10 -15.5 -25t-5.5 -33zM390 0l-19 58q-42 -35 -83 -51t-87 -16q-74 0 -117 43t-43 119q0 37 10.5 66t30.5 50q29 29 75.5 41t120.5 12q18 0 39 -1.5
t47 -4.5v36q0 48 -27 71t-83 23q-36 0 -74 -9t-79 -26l-23 76q46 19 93.5 29t95.5 10q99 0 145.5 -41.5t46.5 -130.5v-253l12 -101h-81zM266 584q-43 0 -71 27t-28 68t28 68t71 27t71 -27t28 -68t-28 -68t-71 -27zM266 743q-27 0 -45 -18.5t-18 -45.5t18 -45.5t45 -18.5
t45 18.5t18 45.5t-18 45.5t-45 18.5z" />
    <glyph glyph-name="ae" unicode="&#xe6;" horiz-adv-x="838" 
d="M582 451q-53 0 -87.5 -42.5t-40.5 -113.5h253q-5 72 -38.5 114t-86.5 42zM600 -10q-59 0 -106 21t-78 61q-52 -41 -102.5 -61t-101.5 -20q-80 0 -125.5 43t-45.5 119q0 37 10.5 66t30.5 50q29 29 75.5 41t120.5 12q18 0 39 -1.5t47 -4.5v36q0 48 -27 71t-83 23
q-36 0 -74 -9t-79 -26l-23 76q46 19 93.5 29t94.5 10q66 0 105.5 -20t55.5 -63q28 42 69.5 64.5t92.5 22.5q95 0 152.5 -76t57.5 -200v-35h-343q6 -69 46 -109.5t103 -40.5q35 0 73 11t74 32l28 -72q-42 -24 -88 -37t-92 -13zM133 157q0 -42 25.5 -64.5t72.5 -22.5
q36 0 74 16t77 47q-10 26 -15 53.5t-6 56.5q-21 3 -39 4t-33 1q-55 0 -85.5 -7t-49.5 -26q-10 -10 -15.5 -25t-5.5 -33z" />
    <glyph glyph-name="ccedilla" unicode="&#xe7;" horiz-adv-x="463" 
d="M357 -83q0 -34 -43.5 -52t-132.5 -21l-4 35q51 4 74.5 11.5t23.5 21.5q0 12 -15 15q-7 2 -17 2q-12 0 -28 -3l-16 20l38 47q-90 15 -142 86t-52 179q0 121 66.5 195.5t175.5 74.5q36 0 70 -7t73 -23l-22 -82q-35 15 -62 21.5t-53 6.5q-68 0 -109.5 -51t-41.5 -133
q0 -85 41.5 -135.5t111.5 -50.5q25 0 53 7t63 23l21 -78q-34 -16 -67 -25t-66 -11l-25 -27q41 1 63 -10.5t22 -35.5z" />
    <glyph glyph-name="egrave" unicode="&#xe8;" horiz-adv-x="521" 
d="M283 -10q-111 0 -175 71t-64 196q0 121 61.5 197t159.5 76q99 0 158 -75t59 -201v-35h-344q6 -69 46 -109.5t103 -40.5q35 0 73 11t74 32l28 -72q-42 -24 -88 -37t-91 -13zM264 452q-52 0 -87 -43t-40 -114h252q-5 73 -38.5 115t-86.5 42zM321 590h-67l-144 115h118z" />
    <glyph glyph-name="eacute" unicode="&#xe9;" horiz-adv-x="521" 
d="M283 -10q-111 0 -175 71t-64 196q0 121 61.5 197t159.5 76q99 0 158 -75t59 -201v-35h-344q6 -69 46 -109.5t103 -40.5q35 0 73 11t74 32l28 -72q-42 -24 -88 -37t-91 -13zM264 452q-52 0 -87 -43t-40 -114h252q-5 73 -38.5 115t-86.5 42zM426 705l-144 -115h-67l93 115
h118z" />
    <glyph glyph-name="ecircumflex" unicode="&#xea;" horiz-adv-x="521" 
d="M283 -10q-111 0 -175 71t-64 196q0 121 61.5 197t159.5 76q99 0 158 -75t59 -201v-35h-344q6 -69 46 -109.5t103 -40.5q35 0 73 11t74 32l28 -72q-42 -24 -88 -37t-91 -13zM264 452q-52 0 -87 -43t-40 -114h252q-5 73 -38.5 115t-86.5 42zM336 590l-68 66l-69 -66h-61
l93 118h74l93 -118h-62z" />
    <glyph glyph-name="edieresis" unicode="&#xeb;" horiz-adv-x="521" 
d="M283 -10q-111 0 -175 71t-64 196q0 121 61.5 197t159.5 76q99 0 158 -75t59 -201v-35h-344q6 -69 46 -109.5t103 -40.5q35 0 73 11t74 32l28 -72q-42 -24 -88 -37t-91 -13zM264 452q-52 0 -87 -43t-40 -114h252q-5 73 -38.5 115t-86.5 42zM229 684v-88h-78v88h78z
M385 684v-88h-78v88h78z" />
    <glyph glyph-name="igrave" unicode="&#xec;" horiz-adv-x="249" 
d="M172 518v-518h-95v518h95zM178 587h-67l-144 115h118z" />
    <glyph glyph-name="iacute" unicode="&#xed;" horiz-adv-x="249" 
d="M172 518v-518h-95v518h95zM283 702l-144 -115h-67l93 115h118z" />
    <glyph glyph-name="icircumflex" unicode="&#xee;" horiz-adv-x="249" 
d="M172 518v-518h-95v518h95zM193 587l-68 66l-69 -66h-61l93 118h74l93 -118h-62z" />
    <glyph glyph-name="idieresis" unicode="&#xef;" horiz-adv-x="249" 
d="M172 518v-518h-95v518h95zM86 681v-88h-78v88h78zM242 681v-88h-78v88h78z" />
    <glyph glyph-name="eth" unicode="&#xf0;" horiz-adv-x="539" 
d="M491 301q0 -143 -62.5 -227t-168.5 -84q-97 0 -156.5 66t-59.5 174q0 105 56.5 172t144.5 67q35 0 69.5 -9t66.5 -26q-12 44 -34.5 78.5t-56.5 62.5l-63 -57h-86l102 89q-25 14 -54.5 27t-63.5 24l41 72q39 -12 75.5 -28t68.5 -36l66 58h87l-108 -92q68 -57 102 -139.5
t34 -191.5zM139 230q0 -72 33.5 -116t88.5 -44q63 0 99.5 60t36.5 164q0 11 -0.5 22.5t-1.5 33.5q-35 21 -66.5 31t-64.5 10q-56 0 -90.5 -44.5t-34.5 -116.5z" />
    <glyph glyph-name="ntilde" unicode="&#xf1;" horiz-adv-x="563" 
d="M297 442q-30 0 -63.5 -12.5t-62.5 -33.5v-396h-96v518h74l16 -51q44 32 84 46t82 14q79 0 120 -44.5t41 -129.5v-353h-95v332q0 54 -25.5 82t-74.5 28zM227 637q-12 0 -22 -11.5t-22 -39.5l-46 15q18 52 38 74.5t47 22.5q13 0 25.5 -4.5t43.5 -22.5q21 -13 32.5 -17.5
t21.5 -4.5q13 0 22.5 11t21.5 39l46 -14q-18 -52 -37.5 -74.5t-47.5 -22.5q-14 0 -27.5 5t-41.5 21q-26 15 -35.5 19t-18.5 4z" />
    <glyph glyph-name="ograve" unicode="&#xf2;" horiz-adv-x="545" 
d="M273 530q101 0 165 -75t64 -195q0 -121 -64.5 -196.5t-165.5 -75.5t-164.5 75t-63.5 195q0 121 64 196.5t165 75.5zM273 68q59 0 96 53t37 138t-37 138t-97 53q-59 0 -96 -53t-37 -138t37 -138t97 -53zM325 590h-67l-144 115h118z" />
    <glyph glyph-name="oacute" unicode="&#xf3;" horiz-adv-x="545" 
d="M273 530q101 0 165 -75t64 -195q0 -121 -64.5 -196.5t-165.5 -75.5t-164.5 75t-63.5 195q0 121 64 196.5t165 75.5zM273 68q59 0 96 53t37 138t-37 138t-97 53q-59 0 -96 -53t-37 -138t37 -138t97 -53zM430 705l-144 -115h-67l93 115h118z" />
    <glyph glyph-name="ocircumflex" unicode="&#xf4;" horiz-adv-x="545" 
d="M273 530q101 0 165 -75t64 -195q0 -121 -64.5 -196.5t-165.5 -75.5t-164.5 75t-63.5 195q0 121 64 196.5t165 75.5zM273 68q59 0 96 53t37 138t-37 138t-97 53q-59 0 -96 -53t-37 -138t37 -138t97 -53zM340 590l-68 66l-69 -66h-61l93 118h74l93 -118h-62z" />
    <glyph glyph-name="otilde" unicode="&#xf5;" horiz-adv-x="545" 
d="M273 530q101 0 165 -75t64 -195q0 -121 -64.5 -196.5t-165.5 -75.5t-164.5 75t-63.5 195q0 121 64 196.5t165 75.5zM273 68q59 0 96 53t37 138t-37 138t-97 53q-59 0 -96 -53t-37 -138t37 -138t97 -53zM217 637q-12 0 -22 -11.5t-22 -39.5l-46 15q18 52 38 74.5t47 22.5
q13 0 25.5 -4.5t43.5 -22.5q21 -13 32.5 -17.5t21.5 -4.5q13 0 22.5 11t21.5 39l46 -14q-18 -52 -37.5 -74.5t-47.5 -22.5q-14 0 -27.5 5t-41.5 21q-26 15 -35.5 19t-18.5 4z" />
    <glyph glyph-name="odieresis" unicode="&#xf6;" horiz-adv-x="545" 
d="M273 530q101 0 165 -75t64 -195q0 -121 -64.5 -196.5t-165.5 -75.5t-164.5 75t-63.5 195q0 121 64 196.5t165 75.5zM273 68q59 0 96 53t37 138t-37 138t-97 53q-59 0 -96 -53t-37 -138t37 -138t97 -53zM233 684v-88h-78v88h78zM389 684v-88h-78v88h78z" />
    <glyph glyph-name="divide" unicode="&#xf7;" horiz-adv-x="564" 
d="M328 591v-90h-92v90h92zM508 393v-76l-226 1l-225 -1v76l225 -1zM328 209v-90h-92v90h92z" />
    <glyph glyph-name="oslash" unicode="&#xf8;" horiz-adv-x="545" 
d="M273 451q-60 0 -97 -53t-37 -139q0 -37 7.5 -69t22.5 -57l174 293q-15 12 -33 18.5t-37 6.5zM273 67q60 0 97 53t37 139q0 38 -8 70.5t-23 57.5l-174 -294q15 -13 33 -19.5t38 -6.5zM502 260q0 -121 -64.5 -196.5t-165.5 -75.5q-31 0 -59.5 8t-53.5 23l-43 -70h-72
l69 108q-34 37 -51.5 88.5t-17.5 112.5q0 121 64 196.5t165 75.5q30 0 58.5 -7.5t54.5 -22.5l43 69h72l-68 -108q34 -37 51.5 -88.5t17.5 -112.5z" />
    <glyph glyph-name="ugrave" unicode="&#xf9;" horiz-adv-x="563" 
d="M414 0l-16 51q-44 -32 -84 -46t-82 -14q-79 0 -120 44.5t-41 129.5v353h95v-332q0 -54 25.5 -82.5t74.5 -28.5q30 0 63 12.5t63 34.5v396h96v-518h-74zM333 583h-67l-144 115h118z" />
    <glyph glyph-name="uacute" unicode="&#xfa;" horiz-adv-x="563" 
d="M414 0l-16 51q-44 -32 -84 -46t-82 -14q-79 0 -120 44.5t-41 129.5v353h95v-332q0 -54 25.5 -82.5t74.5 -28.5q30 0 63 12.5t63 34.5v396h96v-518h-74zM438 698l-144 -115h-67l93 115h118z" />
    <glyph glyph-name="ucircumflex" unicode="&#xfb;" horiz-adv-x="563" 
d="M414 0l-16 51q-44 -32 -84 -46t-82 -14q-79 0 -120 44.5t-41 129.5v353h95v-332q0 -54 25.5 -82.5t74.5 -28.5q30 0 63 12.5t63 34.5v396h96v-518h-74zM348 587l-68 66l-69 -66h-61l93 118h74l93 -118h-62z" />
    <glyph glyph-name="udieresis" unicode="&#xfc;" horiz-adv-x="563" 
d="M414 0l-16 51q-44 -32 -84 -46t-82 -14q-79 0 -120 44.5t-41 129.5v353h95v-332q0 -54 25.5 -82.5t74.5 -28.5q30 0 63 12.5t63 34.5v396h96v-518h-74zM241 681v-88h-78v88h78zM397 681v-88h-78v88h78z" />
    <glyph glyph-name="yacute" unicode="&#xfd;" horiz-adv-x="516" 
d="M69 -178l-22 77q57 15 94.5 41.5t65.5 69.5l-179 508h98l137 -424l134 424h97l-163 -461q-39 -110 -92.5 -158t-169.5 -77zM419 698l-144 -115h-67l93 115h118z" />
    <glyph glyph-name="thorn" unicode="&#xfe;" horiz-adv-x="557" 
d="M279 69q64 0 101 51t37 140q0 88 -36.5 138t-100.5 50q-28 0 -56 -11.5t-53 -32.5v-294q26 -20 53.5 -30.5t54.5 -10.5zM300 -10q-33 0 -65 10.5t-64 31.5v-205h-96v897h96v-248q31 25 65.5 38t71.5 13q93 0 149 -72t56 -194q0 -125 -58 -198t-155 -73z" />
    <glyph glyph-name="ydieresis" unicode="&#xff;" horiz-adv-x="516" 
d="M69 -178l-22 77q57 15 94.5 41.5t65.5 69.5l-179 508h98l137 -424l134 424h97l-163 -461q-39 -110 -92.5 -158t-169.5 -77zM222 681v-88h-78v88h78zM378 681v-88h-78v88h78z" />
    <glyph glyph-name="Amacron" unicode="&#x100;" horiz-adv-x="699" 
d="M221 243h256l-128 364zM669 0h-107l-54 155h-318l-54 -155h-106l262 708h116zM492 817v-56h-286v56h286z" />
    <glyph glyph-name="amacron" unicode="&#x101;" horiz-adv-x="531" 
d="M133 157q0 -41 26 -64t72 -23q33 0 67 13.5t66 39.5v121q-25 2 -42.5 3t-32.5 1q-55 0 -85.5 -7t-49.5 -26q-10 -10 -15.5 -25t-5.5 -33zM390 0l-19 58q-42 -35 -83 -51t-87 -16q-74 0 -117 43t-43 119q0 37 10.5 66t30.5 50q29 29 75.5 41t120.5 12q18 0 39 -1.5
t47 -4.5v36q0 48 -27 71t-83 23q-36 0 -74 -9t-79 -26l-23 76q46 19 93.5 29t95.5 10q99 0 145.5 -41.5t46.5 -130.5v-253l12 -101h-81zM392 654v-53h-252v53h252z" />
    <glyph glyph-name="Abreve" unicode="&#x102;" horiz-adv-x="699" 
d="M221 243h256l-128 364zM669 0h-107l-54 155h-318l-54 -155h-106l262 708h116zM349 810q29 0 47 13.5t25 40.5h56q-5 -51 -39.5 -81.5t-88.5 -30.5t-88.5 30t-39.5 82h56q7 -26 25.5 -40t46.5 -14z" />
    <glyph glyph-name="abreve" unicode="&#x103;" horiz-adv-x="531" 
d="M133 157q0 -41 26 -64t72 -23q33 0 67 13.5t66 39.5v121q-25 2 -42.5 3t-32.5 1q-55 0 -85.5 -7t-49.5 -26q-10 -10 -15.5 -25t-5.5 -33zM390 0l-19 58q-42 -35 -83 -51t-87 -16q-74 0 -117 43t-43 119q0 37 10.5 66t30.5 50q29 29 75.5 41t120.5 12q18 0 39 -1.5
t47 -4.5v36q0 48 -27 71t-83 23q-36 0 -74 -9t-79 -26l-23 76q46 19 93.5 29t95.5 10q99 0 145.5 -41.5t46.5 -130.5v-253l12 -101h-81zM266 645q30 0 47.5 15.5t23.5 47.5h51q-2 -55 -35.5 -88t-86.5 -33q-54 0 -87 33t-35 88h51q6 -31 23.5 -47t47.5 -16z" />
    <glyph glyph-name="Aogonek" unicode="&#x104;" horiz-adv-x="699" 
d="M221 243h256l-128 364zM610 -70q0 -13 15 -19.5t53 -11.5l-6 -47q-79 4 -113 18t-34 43q0 17 14 36.5t47 50.5h-24l-54 155h-318l-54 -155h-106l262 708h116l261 -708h-21q-25 -37 -31.5 -49.5t-6.5 -20.5z" />
    <glyph glyph-name="aogonek" unicode="&#x105;" horiz-adv-x="531" 
d="M133 157q0 -41 26 -64t72 -23q33 0 67 13.5t66 39.5v121q-25 2 -42.5 3t-32.5 1q-55 0 -85.5 -7t-49.5 -26q-10 -10 -15.5 -25t-5.5 -33zM423 -70q0 -13 15 -19.5t53 -11.5l-6 -47q-79 4 -113 18t-34 43q0 17 14 36.5t47 50.5h-9l-19 58q-42 -35 -83 -51t-87 -16
q-74 0 -117 43t-43 119q0 37 10.5 66t30.5 50q29 29 75.5 41t120.5 12q18 0 39 -1.5t47 -4.5v36q0 48 -27 71t-83 23q-36 0 -74 -9t-79 -26l-23 76q46 19 93.5 29t95.5 10q99 0 145.5 -41.5t46.5 -130.5v-253l12 -101h-10q-25 -37 -31.5 -49.5t-6.5 -20.5z" />
    <glyph glyph-name="Cacute" unicode="&#x106;" horiz-adv-x="612" 
d="M549 121l22 -88q-44 -21 -92 -31.5t-98 -10.5q-150 0 -239.5 97t-89.5 261q0 161 91.5 260.5t237.5 99.5q50 0 96 -9.5t90 -28.5l-22 -91q-39 18 -79 27.5t-80 9.5q-103 0 -167 -74t-64 -192q0 -122 64 -195t171 -73q38 0 77 9.5t82 28.5zM527 854l-143 -98h-81l97 98
h127z" />
    <glyph glyph-name="cacute" unicode="&#x107;" horiz-adv-x="463" 
d="M409 104l21 -78q-40 -18 -76.5 -27t-74.5 -9q-107 0 -171.5 73.5t-64.5 194.5t66.5 195.5t175.5 74.5q36 0 70 -7t73 -23l-22 -82q-35 15 -62 21.5t-53 6.5q-68 0 -109.5 -51t-41.5 -133q0 -85 41.5 -135.5t111.5 -50.5q25 0 53 7t63 23zM431 705l-144 -115h-67l93 115
h118z" />
    <glyph glyph-name="Ccircumflex" unicode="&#x108;" horiz-adv-x="612" 
d="M549 121l22 -88q-44 -21 -92 -31.5t-98 -10.5q-150 0 -239.5 97t-89.5 261q0 161 91.5 260.5t237.5 99.5q50 0 96 -9.5t90 -28.5l-22 -91q-39 18 -79 27.5t-80 9.5q-103 0 -167 -74t-64 -192q0 -122 64 -195t171 -73q38 0 77 9.5t82 28.5zM429 756l-67 53l-67 -53h-69
l94 101h86l94 -101h-71z" />
    <glyph glyph-name="ccircumflex" unicode="&#x109;" horiz-adv-x="463" 
d="M409 104l21 -78q-40 -18 -76.5 -27t-74.5 -9q-107 0 -171.5 73.5t-64.5 194.5t66.5 195.5t175.5 74.5q36 0 70 -7t73 -23l-22 -82q-35 15 -62 21.5t-53 6.5q-68 0 -109.5 -51t-41.5 -133q0 -85 41.5 -135.5t111.5 -50.5q25 0 53 7t63 23zM341 590l-68 66l-69 -66h-61
l93 118h74l93 -118h-62z" />
    <glyph glyph-name="Cdotaccent" unicode="&#x10a;" horiz-adv-x="612" 
d="M549 121l22 -88q-44 -21 -92 -31.5t-98 -10.5q-150 0 -239.5 97t-89.5 261q0 161 91.5 260.5t237.5 99.5q50 0 96 -9.5t90 -28.5l-22 -91q-39 18 -79 27.5t-80 9.5q-103 0 -167 -74t-64 -192q0 -122 64 -195t171 -73q38 0 77 9.5t82 28.5zM405 844v-88h-84v88h84z" />
    <glyph glyph-name="cdotaccent" unicode="&#x10b;" horiz-adv-x="463" 
d="M409 104l21 -78q-40 -18 -76.5 -27t-74.5 -9q-107 0 -171.5 73.5t-64.5 194.5t66.5 195.5t175.5 74.5q36 0 70 -7t73 -23l-22 -82q-35 15 -62 21.5t-53 6.5q-68 0 -109.5 -51t-41.5 -133q0 -85 41.5 -135.5t111.5 -50.5q25 0 53 7t63 23zM313 684v-88h-80v88h80z" />
    <glyph glyph-name="Ccaron" unicode="&#x10c;" horiz-adv-x="612" 
d="M549 121l22 -88q-44 -21 -92 -31.5t-98 -10.5q-150 0 -239.5 97t-89.5 261q0 161 91.5 260.5t237.5 99.5q50 0 96 -9.5t90 -28.5l-22 -91q-39 18 -79 27.5t-80 9.5q-103 0 -167 -74t-64 -192q0 -122 64 -195t171 -73q38 0 77 9.5t82 28.5zM297 857l67 -52l67 52h69
l-94 -101h-86l-94 101h71z" />
    <glyph glyph-name="ccaron" unicode="&#x10d;" horiz-adv-x="463" 
d="M409 104l21 -78q-40 -18 -76.5 -27t-74.5 -9q-107 0 -171.5 73.5t-64.5 194.5t66.5 195.5t175.5 74.5q36 0 70 -7t73 -23l-22 -82q-35 15 -62 21.5t-53 6.5q-68 0 -109.5 -51t-41.5 -133q0 -85 41.5 -135.5t111.5 -50.5q25 0 53 7t63 23zM205 708l68 -66l69 66h61
l-93 -118h-74l-93 118h62z" />
    <glyph glyph-name="Dcaron" unicode="&#x10e;" horiz-adv-x="691" 
d="M639 351q0 -167 -96.5 -259t-268.5 -92h-186v700h189q170 0 266 -91.5t96 -257.5zM189 611v-522h93q120 0 187 68t67 192q0 125 -67 193.5t-188 68.5h-92zM273 850l67 -52l67 52h69l-94 -101h-86l-94 101h71z" />
    <glyph glyph-name="dcaron" unicode="&#x10f;" horiz-adv-x="557" 
d="M141 258q0 -88 36.5 -138.5t99.5 -50.5q28 0 56 11.5t54 33.5v294q-25 19 -53 29.5t-55 10.5q-65 0 -101.5 -50t-36.5 -140zM409 0l-16 47q-36 -30 -71 -43.5t-73 -13.5q-92 0 -148 72.5t-56 194.5q0 125 57.5 197.5t154.5 72.5q34 0 66 -10t64 -31v238h95v-724h-73z
M553 725h64v-25q0 -39 -12 -69.5t-42 -64.5l-29 15q10 25 14.5 51t4.5 61v32z" />
    <glyph glyph-name="Dcroat" unicode="&#x110;" horiz-adv-x="703" 
d="M651 351q0 -167 -96.5 -259t-268.5 -92h-186v323h-74v72h74v305h189q170 0 266 -91.5t96 -257.5zM200 323v-234h94q120 0 187 68t67 192q0 125 -67 193.5t-189 68.5h-92v-217h166v-71h-166z" />
    <glyph glyph-name="dcroat" unicode="&#x111;" horiz-adv-x="557" 
d="M141 254q0 -86 36.5 -135.5t99.5 -49.5q28 0 56 11.5t54 33.5v286q-25 19 -53 29.5t-55 10.5q-64 0 -101 -49t-37 -137zM409 0l-16 47q-36 -30 -71 -43.5t-73 -13.5q-92 0 -148 71.5t-56 191.5q0 123 57.5 194.5t154.5 71.5q34 0 66 -10t64 -31v106h-145v58h145v82h95
v-82h60v-58h-60v-584h-73z" />
    <glyph glyph-name="Emacron" unicode="&#x112;" horiz-adv-x="618" 
d="M565 90v-90h-477v700h471v-90h-370v-206h330v-90h-330v-224h376zM475 811v-56h-286v56h286z" />
    <glyph glyph-name="emacron" unicode="&#x113;" horiz-adv-x="521" 
d="M283 -10q-111 0 -175 71t-64 196q0 121 61.5 197t159.5 76q99 0 158 -75t59 -201v-35h-344q6 -69 46 -109.5t103 -40.5q35 0 73 11t74 32l28 -72q-42 -24 -88 -37t-91 -13zM264 452q-52 0 -87 -43t-40 -114h252q-5 73 -38.5 115t-86.5 42zM394 654v-53h-252v53h252z" />
    <glyph glyph-name="Ebreve" unicode="&#x114;" horiz-adv-x="618" 
d="M565 90v-90h-477v700h471v-90h-370v-206h330v-90h-330v-224h376zM332 804q29 0 47 13.5t25 40.5h56q-5 -51 -39.5 -81.5t-88.5 -30.5t-88.5 30t-39.5 82h56q7 -26 25.5 -40t46.5 -14z" />
    <glyph glyph-name="ebreve" unicode="&#x115;" horiz-adv-x="521" 
d="M283 -10q-111 0 -175 71t-64 196q0 121 61.5 197t159.5 76q99 0 158 -75t59 -201v-35h-344q6 -69 46 -109.5t103 -40.5q35 0 73 11t74 32l28 -72q-42 -24 -88 -37t-91 -13zM264 452q-52 0 -87 -43t-40 -114h252q-5 73 -38.5 115t-86.5 42zM268 645q30 0 47.5 15.5
t23.5 47.5h51q-2 -55 -35.5 -88t-86.5 -33q-54 0 -87 33t-35 88h51q6 -31 23.5 -47t47.5 -16z" />
    <glyph glyph-name="Edotaccent" unicode="&#x116;" horiz-adv-x="618" 
d="M565 90v-90h-477v700h471v-90h-370v-206h330v-90h-330v-224h376zM374 837v-88h-84v88h84z" />
    <glyph glyph-name="edotaccent" unicode="&#x117;" horiz-adv-x="521" 
d="M283 -10q-111 0 -175 71t-64 196q0 121 61.5 197t159.5 76q99 0 158 -75t59 -201v-35h-344q6 -69 46 -109.5t103 -40.5q35 0 73 11t74 32l28 -72q-42 -24 -88 -37t-91 -13zM264 452q-52 0 -87 -43t-40 -114h252q-5 73 -38.5 115t-86.5 42zM308 684v-88h-80v88h80z" />
    <glyph glyph-name="Eogonek" unicode="&#x118;" horiz-adv-x="618" 
d="M497 -70q0 -13 15 -19.5t53 -11.5l-6 -47q-79 4 -113 18t-34 43q0 17 14 36.5t47 50.5h-385v700h471v-90h-370v-206h330v-90h-330v-224h376v-90h-30q-25 -37 -31.5 -49.5t-6.5 -20.5z" />
    <glyph glyph-name="eogonek" unicode="&#x119;" horiz-adv-x="521" 
d="M458 -101l-6 -47q-79 4 -113 18t-34 43q0 16 14.5 37t51.5 57q-24 -8 -45.5 -12t-42.5 -4q-111 0 -175 70.5t-64 195.5q0 121 61.5 197t159.5 76q99 0 158 -75t59 -201v-35h-344q6 -69 46 -109.5t103 -40.5q35 0 73 11t74 32l27 -67q-41 -55 -56 -79t-15 -36t15 -19
t53 -12zM137 295h252q-5 73 -38.5 115t-86.5 42q-52 0 -87 -43t-40 -114z" />
    <glyph glyph-name="Ecaron" unicode="&#x11a;" horiz-adv-x="618" 
d="M565 90v-90h-477v700h471v-90h-370v-206h330v-90h-330v-224h376zM266 850l67 -52l67 52h69l-94 -101h-86l-94 101h71z" />
    <glyph glyph-name="ecaron" unicode="&#x11b;" horiz-adv-x="521" 
d="M283 -10q-111 0 -175 71t-64 196q0 121 61.5 197t159.5 76q99 0 158 -75t59 -201v-35h-344q6 -69 46 -109.5t103 -40.5q35 0 73 11t74 32l28 -72q-42 -24 -88 -37t-91 -13zM264 452q-52 0 -87 -43t-40 -114h252q-5 73 -38.5 115t-86.5 42zM200 708l68 -66l69 66h61
l-93 -118h-74l-93 118h62z" />
    <glyph glyph-name="Gcircumflex" unicode="&#x11c;" horiz-adv-x="694" 
d="M617 382v-330q-54 -29 -114.5 -45t-121.5 -16q-153 0 -241 95.5t-88 262.5q0 164 92 262.5t243 98.5q55 0 107.5 -12t104.5 -37l-30 -88q-51 24 -94.5 34.5t-88.5 10.5q-105 0 -168 -74t-63 -195q0 -126 61.5 -198t169.5 -72q33 0 67.5 8t64.5 22v183h-168v90h267z
M435 756l-67 53l-67 -53h-69l94 101h86l94 -101h-71z" />
    <glyph glyph-name="gcircumflex" unicode="&#x11d;" horiz-adv-x="557" 
d="M279 448q-64 0 -101 -48t-37 -132q0 -83 37 -130.5t100 -47.5q27 0 55 10.5t54 29.5v278q-25 19 -53 29.5t-55 10.5zM409 518h73v-482q0 -105 -57 -159t-168 -54q-49 0 -95.5 9t-88.5 27l26 77q39 -17 77.5 -25.5t76.5 -8.5q67 0 100.5 31t33.5 93v29q-33 -23 -66.5 -34
t-68.5 -11q-94 0 -150.5 69t-56.5 187q0 119 57.5 190.5t151.5 71.5q38 0 73.5 -13.5t67.5 -39.5zM354 590l-68 66l-69 -66h-61l93 118h74l93 -118h-62z" />
    <glyph glyph-name="Gbreve" unicode="&#x11e;" horiz-adv-x="694" 
d="M617 382v-330q-54 -29 -114.5 -45t-121.5 -16q-153 0 -241 95.5t-88 262.5q0 164 92 262.5t243 98.5q55 0 107.5 -12t104.5 -37l-30 -88q-51 24 -94.5 34.5t-88.5 10.5q-105 0 -168 -74t-63 -195q0 -126 61.5 -198t169.5 -72q33 0 67.5 8t64.5 22v183h-168v90h267z
M369 811q29 0 47 13.5t25 40.5h56q-5 -51 -39.5 -81.5t-88.5 -30.5t-88.5 30t-39.5 82h56q7 -26 25.5 -40t46.5 -14z" />
    <glyph glyph-name="gbreve" unicode="&#x11f;" horiz-adv-x="557" 
d="M279 448q-64 0 -101 -48t-37 -132q0 -83 37 -130.5t100 -47.5q27 0 55 10.5t54 29.5v278q-25 19 -53 29.5t-55 10.5zM409 518h73v-482q0 -105 -57 -159t-168 -54q-49 0 -95.5 9t-88.5 27l26 77q39 -17 77.5 -25.5t76.5 -8.5q67 0 100.5 31t33.5 93v29q-33 -23 -66.5 -34
t-68.5 -11q-94 0 -150.5 69t-56.5 187q0 119 57.5 190.5t151.5 71.5q38 0 73.5 -13.5t67.5 -39.5zM286 645q30 0 47.5 15.5t23.5 47.5h51q-2 -55 -35.5 -88t-86.5 -33q-54 0 -87 33t-35 88h51q6 -31 23.5 -47t47.5 -16z" />
    <glyph glyph-name="Gdotaccent" unicode="&#x120;" horiz-adv-x="694" 
d="M617 382v-330q-54 -29 -114.5 -45t-121.5 -16q-153 0 -241 95.5t-88 262.5q0 164 92 262.5t243 98.5q55 0 107.5 -12t104.5 -37l-30 -88q-51 24 -94.5 34.5t-88.5 10.5q-105 0 -168 -74t-63 -195q0 -126 61.5 -198t169.5 -72q33 0 67.5 8t64.5 22v183h-168v90h267z
M411 844v-88h-84v88h84z" />
    <glyph glyph-name="gdotaccent" unicode="&#x121;" horiz-adv-x="557" 
d="M279 448q-64 0 -101 -48t-37 -132q0 -83 37 -130.5t100 -47.5q27 0 55 10.5t54 29.5v278q-25 19 -53 29.5t-55 10.5zM409 518h73v-482q0 -105 -57 -159t-168 -54q-49 0 -95.5 9t-88.5 27l26 77q39 -17 77.5 -25.5t76.5 -8.5q67 0 100.5 31t33.5 93v29q-33 -23 -66.5 -34
t-68.5 -11q-94 0 -150.5 69t-56.5 187q0 119 57.5 190.5t151.5 71.5q38 0 73.5 -13.5t67.5 -39.5zM326 684v-88h-80v88h80z" />
    <glyph glyph-name="uni0122" unicode="&#x122;" horiz-adv-x="694" 
d="M617 382v-330q-54 -29 -114.5 -45t-121.5 -16q-153 0 -241 95.5t-88 262.5q0 164 92 262.5t243 98.5q55 0 107.5 -12t104.5 -37l-30 -88q-51 24 -94.5 34.5t-88.5 10.5q-105 0 -168 -74t-63 -195q0 -126 61.5 -198t169.5 -72q33 0 67.5 8t64.5 22v183h-168v90h267z
M340 -117q0 12 -5 23t-18 26l79 21q12 -15 17 -28.5t5 -29.5q0 -27 -19.5 -50.5t-59.5 -44.5l-32 26q19 17 26 29.5t7 27.5z" />
    <glyph glyph-name="uni0123" unicode="&#x123;" horiz-adv-x="557" 
d="M279 448q-64 0 -101 -48t-37 -132q0 -83 37 -130.5t100 -47.5q27 0 55 10.5t54 29.5v278q-25 19 -53 29.5t-55 10.5zM409 518h73v-482q0 -105 -57 -159t-168 -54q-49 0 -95.5 9t-88.5 27l26 77q39 -17 77.5 -25.5t76.5 -8.5q67 0 100.5 31t33.5 93v29q-33 -23 -66.5 -34
t-68.5 -11q-94 0 -150.5 69t-56.5 187q0 119 57.5 190.5t151.5 71.5q38 0 73.5 -13.5t67.5 -39.5zM314 655q0 -12 5 -23t18 -26l-79 -21q-12 15 -17 28.5t-5 29.5q0 27 19.5 50.5t59.5 44.5l32 -26q-19 -17 -26 -29.5t-7 -27.5z" />
    <glyph glyph-name="Hcircumflex" unicode="&#x124;" horiz-adv-x="713" 
d="M523 312h-334v-312h-101v700h101v-293h334v293h102v-700h-102v312zM422 749l-67 53l-67 -53h-69l94 101h86l94 -101h-71z" />
    <glyph glyph-name="hcircumflex" unicode="&#x125;" horiz-adv-x="563" 
d="M297 442q-30 0 -63.5 -12.5t-62.5 -33.5v-396h-96v724h96v-253q41 29 80 42.5t80 13.5q79 0 120 -44.5t41 -129.5v-353h-95v332q0 54 -25.5 82t-74.5 28zM191 766l-68 66l-69 -66h-61l93 118h74l93 -118h-62z" />
    <glyph glyph-name="Hbar" unicode="&#x126;" horiz-adv-x="736" 
d="M200 530v-133h336v133h-336zM535 308h-334v-308h-101v528h-74v70h74v102h100v-104h336v104h100v-102h75v-70h-75v-528h-101v308z" />
    <glyph glyph-name="hbar" unicode="&#x127;" horiz-adv-x="563" 
d="M297 434q-31 0 -64 -12.5t-62 -34.5v-387h-96v584h-60v58h60v82h96v-82h145v-58h-145v-122q40 29 79.5 43t80.5 14q78 0 119.5 -45t41.5 -130v-344h-95v323q0 54 -25.5 82.5t-74.5 28.5z" />
    <glyph glyph-name="Itilde" unicode="&#x128;" horiz-adv-x="284" 
d="M193 700v-700h-102v700h102zM85 795q-13 0 -23 -11t-22 -38l-50 15q20 51 40 72.5t48 21.5q15 0 30 -5.5t42 -20.5q24 -13 35.5 -17.5t21.5 -4.5q13 0 23 11t22 38l49 -16q-19 -50 -39 -71.5t-48 -21.5q-15 0 -30 5t-43 20q-25 14 -35.5 18.5t-20.5 4.5z" />
    <glyph glyph-name="itilde" unicode="&#x129;" horiz-adv-x="249" 
d="M172 518v-518h-95v518h95zM70 634q-12 0 -22 -11.5t-22 -39.5l-46 15q18 52 38 74.5t47 22.5q13 0 25.5 -4.5t43.5 -22.5q21 -13 32.5 -17.5t21.5 -4.5q13 0 22.5 11t21.5 39l46 -14q-18 -52 -37.5 -74.5t-47.5 -22.5q-14 0 -27.5 5t-41.5 21q-26 15 -35.5 19t-18.5 4z
" />
    <glyph glyph-name="Imacron" unicode="&#x12a;" horiz-adv-x="284" 
d="M193 700v-700h-102v700h102zM268 811v-56h-252v56h252z" />
    <glyph glyph-name="imacron" unicode="&#x12b;" horiz-adv-x="249" 
d="M172 518v-518h-95v518h95zM236 651v-53h-222v53h222z" />
    <glyph glyph-name="Ibreve" unicode="&#x12c;" horiz-adv-x="284" 
d="M193 700v-700h-102v700h102zM142 804q29 0 47 13.5t25 40.5h56q-5 -51 -39.5 -81.5t-88.5 -30.5t-88.5 30t-39.5 82h56q7 -26 25.5 -40t46.5 -14z" />
    <glyph glyph-name="ibreve" unicode="&#x12d;" horiz-adv-x="249" 
d="M172 518v-518h-95v518h95zM125 642q30 0 47.5 15.5t23.5 47.5h51q-2 -55 -35.5 -88t-86.5 -33q-54 0 -87 33t-35 88h51q6 -31 23.5 -47t47.5 -16z" />
    <glyph glyph-name="Iogonek" unicode="&#x12e;" horiz-adv-x="284" 
d="M141 -70q0 -13 15 -19.5t53 -11.5l-6 -47q-79 4 -113 18t-34 43q0 17 14 36.5t47 50.5h-26v700h102v-700h-14q-25 -37 -31.5 -49.5t-6.5 -20.5z" />
    <glyph glyph-name="iogonek" unicode="&#x12f;" horiz-adv-x="249" 
d="M176 712v-89h-102v89h102zM123 -70q0 -13 15 -19.5t53 -11.5l-6 -47q-79 4 -113 18t-34 43q0 17 14 36.5t47 50.5h-22v518h95v-518h-11q-25 -37 -31.5 -49.5t-6.5 -20.5z" />
    <glyph glyph-name="Idotaccent" unicode="&#x130;" horiz-adv-x="284" 
d="M193 700v-700h-102v700h102zM184 837v-88h-84v88h84z" />
    <glyph glyph-name="dotlessi" unicode="&#x131;" horiz-adv-x="249" 
d="M172 518v-518h-95v518h95z" />
    <glyph glyph-name="Jcircumflex" unicode="&#x134;" horiz-adv-x="480" 
d="M399 700v-448q0 -128 -58.5 -194t-172.5 -66q-38 0 -73.5 5.5t-69.5 17.5l19 88q28 -11 55.5 -16t55.5 -5q70 0 106.5 43t36.5 127v448h101zM415 749l-67 53l-67 -53h-69l94 101h86l94 -101h-71z" />
    <glyph glyph-name="jcircumflex" unicode="&#x135;" horiz-adv-x="249" 
d="M55 -179l-64 49q54 49 70.5 89t16.5 106v453h95v-454q0 -86 -23.5 -137.5t-94.5 -105.5zM193 587l-68 66l-69 -66h-61l93 118h74l93 -118h-62z" />
    <glyph glyph-name="uni0136" unicode="&#x136;" horiz-adv-x="641" 
d="M628 0h-126l-299 334h-14v-334h-101v700h101v-316h15l291 316h126l-318 -339zM301 -106q0 12 -5 23t-18 26l79 21q12 -15 17 -28.5t5 -29.5q0 -27 -19.5 -50.5t-59.5 -44.5l-32 26q19 17 26 29.5t7 27.5z" />
    <glyph glyph-name="uni0137" unicode="&#x137;" horiz-adv-x="514" 
d="M502 0h-116l-212 259h-3v-259h-96v724h96v-444h2l208 238h115l-223 -248zM240 -106q0 12 -5 23t-18 26l79 21q12 -15 17 -28.5t5 -29.5q0 -27 -19.5 -50.5t-59.5 -44.5l-32 26q19 17 26 29.5t7 27.5z" />
    <glyph glyph-name="Lacute" unicode="&#x139;" horiz-adv-x="548" 
d="M519 91v-91h-431v700h101v-609h330zM303 847l-143 -98h-81l97 98h127z" />
    <glyph glyph-name="lacute" unicode="&#x13a;" horiz-adv-x="249" 
d="M172 724v-724h-95v724h95zM283 893l-144 -115h-67l93 115h118z" />
    <glyph glyph-name="uni013B" unicode="&#x13b;" horiz-adv-x="548" 
d="M519 91v-91h-431v700h101v-609h330zM272 -110q0 12 -5 23t-18 26l79 21q12 -15 17 -28.5t5 -29.5q0 -27 -19.5 -50.5t-59.5 -44.5l-32 26q19 17 26 29.5t7 27.5z" />
    <glyph glyph-name="uni013C" unicode="&#x13c;" horiz-adv-x="249" 
d="M172 724v-724h-95v724h95zM97 -110q0 12 -5 23t-18 26l79 21q12 -15 17 -28.5t5 -29.5q0 -27 -19.5 -50.5t-59.5 -44.5l-32 26q19 17 26 29.5t7 27.5z" />
    <glyph glyph-name="Lcaron" unicode="&#x13d;" horiz-adv-x="548" 
d="M519 91v-91h-431v700h101v-609h330zM276 701h64v-25q0 -39 -12 -69.5t-42 -64.5l-29 15q10 25 14.5 51t4.5 61v32z" />
    <glyph glyph-name="lcaron" unicode="&#x13e;" horiz-adv-x="249" 
d="M172 724v-724h-95v724h95zM243 725h64v-25q0 -39 -12 -69.5t-42 -64.5l-29 15q10 25 14.5 51t4.5 61v32z" />
    <glyph glyph-name="Lslash" unicode="&#x141;" horiz-adv-x="561" 
d="M533 91v-91h-433v272l-74 -39v83l74 37v347h101v-296l159 86v-84l-159 -83v-232h332z" />
    <glyph glyph-name="lslash" unicode="&#x142;" horiz-adv-x="284" 
d="M189 348v-348h-95v298l-70 -38v75l70 37v352l95 1v-303l71 39v-77z" />
    <glyph glyph-name="Nacute" unicode="&#x143;" horiz-adv-x="716" 
d="M519 0l-334 547v-547h-97v700h114l329 -541v541h97v-700h-109zM530 843l-143 -98h-81l97 98h127z" />
    <glyph glyph-name="nacute" unicode="&#x144;" horiz-adv-x="563" 
d="M297 442q-30 0 -63.5 -12.5t-62.5 -33.5v-396h-96v518h74l16 -51q44 32 84 46t82 14q79 0 120 -44.5t41 -129.5v-353h-95v332q0 54 -25.5 82t-74.5 28zM440 705l-144 -115h-67l93 115h118z" />
    <glyph glyph-name="uni0145" unicode="&#x145;" horiz-adv-x="716" 
d="M519 0l-334 547v-547h-97v700h114l329 -541v541h97v-700h-109zM325 -106q0 12 -5 23t-18 26l79 21q12 -15 17 -28.5t5 -29.5q0 -27 -19.5 -50.5t-59.5 -44.5l-32 26q19 17 26 29.5t7 27.5z" />
    <glyph glyph-name="uni0146" unicode="&#x146;" horiz-adv-x="563" 
d="M297 442q-30 0 -63.5 -12.5t-62.5 -33.5v-396h-96v518h74l16 -51q44 32 84 46t82 14q79 0 120 -44.5t41 -129.5v-353h-95v332q0 54 -25.5 82t-74.5 28zM255 -106q0 12 -5 23t-18 26l79 21q12 -15 17 -28.5t5 -29.5q0 -27 -19.5 -50.5t-59.5 -44.5l-32 26q19 17 26 29.5
t7 27.5z" />
    <glyph glyph-name="Ncaron" unicode="&#x147;" horiz-adv-x="716" 
d="M519 0l-334 547v-547h-97v700h114l329 -541v541h97v-700h-109zM300 846l67 -52l67 52h69l-94 -101h-86l-94 101h71z" />
    <glyph glyph-name="ncaron" unicode="&#x148;" horiz-adv-x="563" 
d="M297 442q-30 0 -63.5 -12.5t-62.5 -33.5v-396h-96v518h74l16 -51q44 32 84 46t82 14q79 0 120 -44.5t41 -129.5v-353h-95v332q0 54 -25.5 82t-74.5 28zM214 708l68 -66l69 66h61l-93 -118h-74l-93 118h62z" />
    <glyph glyph-name="Eng" unicode="&#x14a;" horiz-adv-x="716" 
d="M451 -178q-23 0 -47 3.5t-45 9.5v90q19 -7 38 -10.5t39 -3.5q44 0 68.5 26.5t26.5 76.5l-346 526v-540h-97v700h109l334 -523v523h97v-683q0 -94 -46 -144.5t-131 -50.5z" />
    <glyph glyph-name="eng" unicode="&#x14b;" horiz-adv-x="563" 
d="M377 -179l-64 49q52 48 68 88t16 106v268q0 54 -25.5 82t-74.5 28q-30 0 -63.5 -12.5t-62.5 -33.5v-396h-96v518h74l16 -51q44 32 84 46t82 14q79 0 120 -44.5t41 -129.5v-290q0 -86 -23.5 -138t-91.5 -104z" />
    <glyph glyph-name="Omacron" unicode="&#x14c;" horiz-adv-x="718" 
d="M360 712q136 0 221 -100t85 -261q0 -162 -85.5 -262.5t-222.5 -100.5q-136 0 -221 100t-85 261q0 162 85.5 262.5t222.5 100.5zM360 76q91 0 147 75.5t56 197.5q0 123 -56.5 199t-148.5 76q-91 0 -147 -75.5t-56 -197.5q0 -124 56.5 -199.5t148.5 -75.5zM502 818v-56
h-286v56h286z" />
    <glyph glyph-name="omacron" unicode="&#x14d;" horiz-adv-x="545" 
d="M273 530q101 0 165 -75t64 -195q0 -121 -64.5 -196.5t-165.5 -75.5t-164.5 75t-63.5 195q0 121 64 196.5t165 75.5zM273 68q59 0 96 53t37 138t-37 138t-97 53q-59 0 -96 -53t-37 -138t37 -138t97 -53zM398 654v-53h-252v53h252z" />
    <glyph glyph-name="Obreve" unicode="&#x14e;" horiz-adv-x="718" 
d="M360 712q136 0 221 -100t85 -261q0 -162 -85.5 -262.5t-222.5 -100.5q-136 0 -221 100t-85 261q0 162 85.5 262.5t222.5 100.5zM360 76q91 0 147 75.5t56 197.5q0 123 -56.5 199t-148.5 76q-91 0 -147 -75.5t-56 -197.5q0 -124 56.5 -199.5t148.5 -75.5zM359 811
q29 0 47 13.5t25 40.5h56q-5 -51 -39.5 -81.5t-88.5 -30.5t-88.5 30t-39.5 82h56q7 -26 25.5 -40t46.5 -14z" />
    <glyph glyph-name="obreve" unicode="&#x14f;" horiz-adv-x="545" 
d="M273 530q101 0 165 -75t64 -195q0 -121 -64.5 -196.5t-165.5 -75.5t-164.5 75t-63.5 195q0 121 64 196.5t165 75.5zM273 68q59 0 96 53t37 138t-37 138t-97 53q-59 0 -96 -53t-37 -138t37 -138t97 -53zM272 645q30 0 47.5 15.5t23.5 47.5h51q-2 -55 -35.5 -88t-86.5 -33
q-54 0 -87 33t-35 88h51q6 -31 23.5 -47t47.5 -16z" />
    <glyph glyph-name="Ohungarumlaut" unicode="&#x150;" horiz-adv-x="718" 
d="M360 712q136 0 221 -100t85 -261q0 -162 -85.5 -262.5t-222.5 -100.5q-136 0 -221 100t-85 261q0 162 85.5 262.5t222.5 100.5zM360 76q91 0 147 75.5t56 197.5q0 123 -56.5 199t-148.5 76q-91 0 -147 -75.5t-56 -197.5q0 -124 56.5 -199.5t148.5 -75.5zM444 854
l-135 -98h-72l100 98h107zM588 854l-135 -98h-72l100 98h107z" />
    <glyph glyph-name="ohungarumlaut" unicode="&#x151;" horiz-adv-x="545" 
d="M273 530q101 0 165 -75t64 -195q0 -121 -64.5 -196.5t-165.5 -75.5t-164.5 75t-63.5 195q0 121 64 196.5t165 75.5zM273 68q59 0 96 53t37 138t-37 138t-97 53q-59 0 -96 -53t-37 -138t37 -138t97 -53zM356 705l-136 -115h-63l96 115h103zM498 705l-136 -115h-63l95 115
h104z" />
    <glyph glyph-name="OE" unicode="&#x152;" horiz-adv-x="1028" 
d="M52 349q0 167 96.5 259t268.5 92h552v-90h-366v-206h326v-90h-326v-224h372v-90h-561q-170 0 -266 91.5t-96 257.5zM155 351q0 -125 67.5 -193.5t188.5 -68.5h91v522h-92q-121 0 -188 -68t-67 -192z" />
    <glyph glyph-name="oe" unicode="&#x153;" horiz-adv-x="889" 
d="M633 452q-52 0 -87 -43t-41 -114h253q-5 73 -38.5 115t-86.5 42zM273 68q59 0 96 53t37 138t-37 138t-97 53q-59 0 -96 -53t-37 -138t37 -138t97 -53zM653 -10q-68 0 -118.5 28.5t-78.5 83.5q-28 -54 -77 -84t-109 -30q-100 0 -163 75t-63 195q0 121 64 196.5t164 75.5
q60 0 108.5 -30t76.5 -85q27 55 74 85t106 30q97 0 155.5 -75.5t58.5 -200.5v-35h-344q6 -69 46 -109.5t103 -40.5q35 0 73 11t74 32l28 -72q-42 -24 -87.5 -37t-90.5 -13z" />
    <glyph glyph-name="Racute" unicode="&#x154;" horiz-adv-x="666" 
d="M189 611v-266h107q87 0 138.5 38.5t51.5 104.5q0 61 -40 92t-118 31h-139zM261 257h-72v-257h-101v700h246q125 0 190.5 -51t65.5 -148q0 -80 -49 -133.5t-141 -77.5q31 -12 53 -31.5t49 -59.5l151 -199h-123l-129 178q-31 44 -62 61.5t-78 17.5zM488 847l-143 -98h-81
l97 98h127z" />
    <glyph glyph-name="racute" unicode="&#x155;" horiz-adv-x="380" 
d="M171 357v-357h-96v518h72l18 -86q39 48 85 70.5t101 21.5v-97q-50 -1 -95 -18.5t-85 -51.5zM363 702l-144 -115h-67l93 115h118z" />
    <glyph glyph-name="uni0156" unicode="&#x156;" horiz-adv-x="666" 
d="M189 611v-266h107q87 0 138.5 38.5t51.5 104.5q0 61 -40 92t-118 31h-139zM261 257h-72v-257h-101v700h246q125 0 190.5 -51t65.5 -148q0 -80 -49 -133.5t-141 -77.5q31 -12 53 -31.5t49 -59.5l151 -199h-123l-129 178q-31 44 -62 61.5t-78 17.5zM310 -106q0 12 -5 23
t-18 26l79 21q12 -15 17 -28.5t5 -29.5q0 -27 -19.5 -50.5t-59.5 -44.5l-32 26q19 17 26 29.5t7 27.5z" />
    <glyph glyph-name="uni0157" unicode="&#x157;" horiz-adv-x="380" 
d="M171 357v-357h-96v518h72l18 -86q39 48 85 70.5t101 21.5v-97q-50 -1 -95 -18.5t-85 -51.5zM95 -110q0 12 -5 23t-18 26l79 21q12 -15 17 -28.5t5 -29.5q0 -27 -19.5 -50.5t-59.5 -44.5l-32 26q19 17 26 29.5t7 27.5z" />
    <glyph glyph-name="Rcaron" unicode="&#x158;" horiz-adv-x="666" 
d="M189 611v-266h107q87 0 138.5 38.5t51.5 104.5q0 61 -40 92t-118 31h-139zM261 257h-72v-257h-101v700h246q125 0 190.5 -51t65.5 -148q0 -80 -49 -133.5t-141 -77.5q31 -12 53 -31.5t49 -59.5l151 -199h-123l-129 178q-31 44 -62 61.5t-78 17.5zM258 850l67 -52l67 52
h69l-94 -101h-86l-94 101h71z" />
    <glyph glyph-name="rcaron" unicode="&#x159;" horiz-adv-x="380" 
d="M171 357v-357h-96v518h72l18 -86q39 48 85 70.5t101 21.5v-97q-50 -1 -95 -18.5t-85 -51.5zM137 705l68 -66l69 66h61l-93 -118h-74l-93 118h62z" />
    <glyph glyph-name="Sacute" unicode="&#x15a;" horiz-adv-x="606" 
d="M329 406q128 -37 178.5 -84t50.5 -127q0 -96 -68.5 -150t-189.5 -54q-68 0 -134 16t-128 48l29 87q57 -30 118.5 -46t119.5 -16q69 0 110.5 29t41.5 77q0 46 -35.5 74t-125.5 57q-126 36 -176.5 81t-50.5 121q0 87 64 138.5t172 51.5q58 0 113 -12t109 -37l-29 -87
q-50 24 -100 35.5t-100 11.5q-58 0 -93 -25.5t-35 -67.5q0 -41 35.5 -67.5t123.5 -53.5zM474 854l-143 -98h-81l97 98h127z" />
    <glyph glyph-name="sacute" unicode="&#x15b;" horiz-adv-x="480" 
d="M265 303q96 -29 134 -64t38 -97q0 -71 -51.5 -111.5t-141.5 -40.5q-54 0 -108.5 13.5t-100.5 38.5l27 79q44 -24 91.5 -37.5t91.5 -13.5q46 0 73 18.5t27 49.5q0 29 -25.5 47.5t-90.5 37.5q-97 27 -134 62t-37 95q0 67 49.5 107t133.5 40q46 0 90 -10.5t86 -30.5l-27 -79
q-38 20 -77 30.5t-75 10.5q-39 0 -63 -17t-24 -45t23.5 -45t90.5 -38zM406 705l-144 -115h-67l93 115h118z" />
    <glyph glyph-name="Scircumflex" unicode="&#x15c;" horiz-adv-x="606" 
d="M329 406q128 -37 178.5 -84t50.5 -127q0 -96 -68.5 -150t-189.5 -54q-68 0 -134 16t-128 48l29 87q57 -30 118.5 -46t119.5 -16q69 0 110.5 29t41.5 77q0 46 -35.5 74t-125.5 57q-126 36 -176.5 81t-50.5 121q0 87 64 138.5t172 51.5q58 0 113 -12t109 -37l-29 -87
q-50 24 -100 35.5t-100 11.5q-58 0 -93 -25.5t-35 -67.5q0 -41 35.5 -67.5t123.5 -53.5zM376 756l-67 53l-67 -53h-69l94 101h86l94 -101h-71z" />
    <glyph glyph-name="scircumflex" unicode="&#x15d;" horiz-adv-x="480" 
d="M265 303q96 -29 134 -64t38 -97q0 -71 -51.5 -111.5t-141.5 -40.5q-54 0 -108.5 13.5t-100.5 38.5l27 79q44 -24 91.5 -37.5t91.5 -13.5q46 0 73 18.5t27 49.5q0 29 -25.5 47.5t-90.5 37.5q-97 27 -134 62t-37 95q0 67 49.5 107t133.5 40q46 0 90 -10.5t86 -30.5l-27 -79
q-38 20 -77 30.5t-75 10.5q-39 0 -63 -17t-24 -45t23.5 -45t90.5 -38zM316 590l-68 66l-69 -66h-61l93 118h74l93 -118h-62z" />
    <glyph glyph-name="uni015E" unicode="&#x15e;" horiz-adv-x="606" 
d="M388 -83q0 -34 -43.5 -52t-132.5 -21l-4 35q51 4 74.5 11.5t23.5 21.5q0 12 -15 15q-7 2 -17 2q-12 0 -28 -3l-16 20l37 46q-59 3 -116.5 19t-112.5 44l29 87q57 -30 118.5 -46t119.5 -16q69 0 110.5 29t41.5 77q0 46 -35.5 74t-125.5 57q-126 36 -176.5 81t-50.5 121
q0 87 64 138.5t172 51.5q58 0 113 -12t109 -37l-29 -87q-50 24 -100 35.5t-100 11.5q-58 0 -93 -25.5t-35 -67.5q0 -41 35.5 -67.5t123.5 -53.5q128 -37 178.5 -84t50.5 -127q0 -89 -60.5 -142.5t-168.5 -60.5l-26 -29q41 1 63 -10.5t22 -35.5z" />
    <glyph glyph-name="uni015F" unicode="&#x15f;" horiz-adv-x="480" 
d="M325 -83q0 -34 -43.5 -52t-132.5 -21l-4 35q51 4 74.5 11.5t23.5 21.5q0 12 -15 15q-7 2 -17 2q-12 0 -28 -3l-16 20l36 46q-45 4 -88 17t-80 33l27 79q44 -24 91.5 -37.5t91.5 -13.5q46 0 73 18.5t27 49.5q0 29 -25.5 47.5t-90.5 37.5q-97 27 -134 62t-37 95
q0 67 49.5 107t133.5 40q46 0 90 -10.5t86 -30.5l-27 -79q-38 20 -77 30.5t-75 10.5q-39 0 -63 -17t-24 -45t23.5 -45t90.5 -38q96 -29 134 -64t38 -97q0 -67 -45.5 -106.5t-126.5 -44.5l-25 -28q41 1 63 -10.5t22 -35.5z" />
    <glyph glyph-name="Scaron" unicode="&#x160;" horiz-adv-x="606" 
d="M329 406q128 -37 178.5 -84t50.5 -127q0 -96 -68.5 -150t-189.5 -54q-68 0 -134 16t-128 48l29 87q57 -30 118.5 -46t119.5 -16q69 0 110.5 29t41.5 77q0 46 -35.5 74t-125.5 57q-126 36 -176.5 81t-50.5 121q0 87 64 138.5t172 51.5q58 0 113 -12t109 -37l-29 -87
q-50 24 -100 35.5t-100 11.5q-58 0 -93 -25.5t-35 -67.5q0 -41 35.5 -67.5t123.5 -53.5zM244 857l67 -52l67 52h69l-94 -101h-86l-94 101h71z" />
    <glyph glyph-name="scaron" unicode="&#x161;" horiz-adv-x="480" 
d="M265 303q96 -29 134 -64t38 -97q0 -71 -51.5 -111.5t-141.5 -40.5q-54 0 -108.5 13.5t-100.5 38.5l27 79q44 -24 91.5 -37.5t91.5 -13.5q46 0 73 18.5t27 49.5q0 29 -25.5 47.5t-90.5 37.5q-97 27 -134 62t-37 95q0 67 49.5 107t133.5 40q46 0 90 -10.5t86 -30.5l-27 -79
q-38 20 -77 30.5t-75 10.5q-39 0 -63 -17t-24 -45t23.5 -45t90.5 -38zM180 708l68 -66l69 66h61l-93 -118h-74l-93 118h62z" />
    <glyph glyph-name="uni0162" unicode="&#x162;" horiz-adv-x="620" 
d="M398 -83q0 -34 -43.5 -52t-132.5 -21l-4 35q51 4 74.5 11.5t23.5 21.5q0 12 -15 15q-7 2 -17 2q-12 0 -28 -3l-16 20l43 54h-24v609h-232v91h565v-91h-231v-609h-15l-33 -37q41 1 63 -10.5t22 -35.5z" />
    <glyph glyph-name="uni0163" unicode="&#x163;" horiz-adv-x="395" 
d="M329 -83q0 -34 -43.5 -52t-132.5 -21l-4 35q51 4 74.5 11.5t23.5 21.5q0 12 -15 15q-7 2 -17 2q-12 0 -28 -3l-16 20l41 51q-53 12 -79.5 50t-26.5 103v288h-80v80h80v149h95v-149h154v-80h-154v-274q0 -44 22.5 -67t64.5 -23q18 0 34 2.5t33 7.5v-79q-20 -6 -41.5 -9.5
t-43.5 -3.5l-26 -29q41 1 63 -10.5t22 -35.5z" />
    <glyph glyph-name="Tcaron" unicode="&#x164;" horiz-adv-x="620" 
d="M361 609v-609h-102v609h-232v91h565v-91h-231zM244 850l67 -52l67 52h69l-94 -101h-86l-94 101h71z" />
    <glyph glyph-name="tcaron" unicode="&#x165;" horiz-adv-x="395" 
d="M265 -8q-80 0 -119.5 39.5t-39.5 118.5v288h-80v80h80v149h95v-149h154v-80h-154v-274q0 -44 22.5 -67t64.5 -23q18 0 34 2.5t33 7.5v-79q-20 -6 -42.5 -9.5t-47.5 -3.5zM273 730h64v-25q0 -39 -12 -69.5t-42 -64.5l-29 15q10 25 14.5 51t4.5 61v32z" />
    <glyph glyph-name="Tbar" unicode="&#x166;" horiz-adv-x="620" 
d="M493 376v-72h-132v-304h-102v304h-132v72h132v233h-232v91h565v-91h-231v-233h132z" />
    <glyph glyph-name="tbar" unicode="&#x167;" horiz-adv-x="395" 
d="M355 82v-77q-20 -6 -42.5 -9.5t-47.5 -3.5q-80 0 -119.5 39.5t-39.5 118.5v90h-67v59h67v141h-80v78h80v149h95v-149h154v-78h-154v-141h116v-59h-116v-78q0 -44 22.5 -67t64.5 -23q18 0 34 2.5t33 7.5z" />
    <glyph glyph-name="Utilde" unicode="&#x168;" horiz-adv-x="693" 
d="M614 700v-429q0 -134 -70.5 -207.5t-197.5 -73.5q-126 0 -196.5 73.5t-70.5 207.5v429h101v-431q0 -90 44.5 -141t122.5 -51t122.5 50.5t44.5 139.5v433h100zM289 795q-13 0 -23 -11t-22 -38l-50 15q20 51 40 72.5t48 21.5q15 0 30 -5.5t42 -20.5q24 -13 35.5 -17.5
t21.5 -4.5q13 0 23 11t22 38l49 -16q-19 -50 -39 -71.5t-48 -21.5q-15 0 -30 5t-43 20q-25 14 -35.5 18.5t-20.5 4.5z" />
    <glyph glyph-name="utilde" unicode="&#x169;" horiz-adv-x="563" 
d="M414 0l-16 51q-44 -32 -84 -46t-82 -14q-79 0 -120 44.5t-41 129.5v353h95v-332q0 -54 25.5 -82.5t74.5 -28.5q30 0 63 12.5t63 34.5v396h96v-518h-74zM225 634q-12 0 -22 -11.5t-22 -39.5l-46 15q18 52 38 74.5t47 22.5q13 0 25.5 -4.5t43.5 -22.5q21 -13 32.5 -17.5
t21.5 -4.5q13 0 22.5 11t21.5 39l46 -14q-18 -52 -37.5 -74.5t-47.5 -22.5q-14 0 -27.5 5t-41.5 21q-26 15 -35.5 19t-18.5 4z" />
    <glyph glyph-name="Umacron" unicode="&#x16a;" horiz-adv-x="693" 
d="M614 700v-429q0 -134 -70.5 -207.5t-197.5 -73.5q-126 0 -196.5 73.5t-70.5 207.5v429h101v-431q0 -90 44.5 -141t122.5 -51t122.5 50.5t44.5 139.5v433h100zM489 811v-56h-286v56h286z" />
    <glyph glyph-name="umacron" unicode="&#x16b;" horiz-adv-x="563" 
d="M414 0l-16 51q-44 -32 -84 -46t-82 -14q-79 0 -120 44.5t-41 129.5v353h95v-332q0 -54 25.5 -82.5t74.5 -28.5q30 0 63 12.5t63 34.5v396h96v-518h-74zM406 651v-53h-252v53h252z" />
    <glyph glyph-name="Ubreve" unicode="&#x16c;" horiz-adv-x="693" 
d="M614 700v-429q0 -134 -70.5 -207.5t-197.5 -73.5q-126 0 -196.5 73.5t-70.5 207.5v429h101v-431q0 -90 44.5 -141t122.5 -51t122.5 50.5t44.5 139.5v433h100zM346 800q29 0 47 13.5t25 40.5h56q-5 -51 -39.5 -81.5t-88.5 -30.5t-88.5 30t-39.5 82h56q7 -26 25.5 -40
t46.5 -14z" />
    <glyph glyph-name="ubreve" unicode="&#x16d;" horiz-adv-x="563" 
d="M414 0l-16 51q-44 -32 -84 -46t-82 -14q-79 0 -120 44.5t-41 129.5v353h95v-332q0 -54 25.5 -82.5t74.5 -28.5q30 0 63 12.5t63 34.5v396h96v-518h-74zM280 638q30 0 47.5 15.5t23.5 47.5h51q-2 -55 -35.5 -88t-86.5 -33q-54 0 -87 33t-35 88h51q6 -31 23.5 -47t47.5 -16
z" />
    <glyph glyph-name="Uring" unicode="&#x16e;" horiz-adv-x="693" 
d="M614 700v-429q0 -134 -70.5 -207.5t-197.5 -73.5q-126 0 -196.5 73.5t-70.5 207.5v429h101v-431q0 -90 44.5 -141t122.5 -51t122.5 50.5t44.5 139.5v433h100zM346 739q-45 0 -75 27.5t-30 69.5q0 41 30 68.5t75 27.5q46 0 75.5 -27.5t29.5 -68.5t-30 -69t-75 -28z
M346 900q-30 0 -49 -18t-19 -46t19 -46.5t49 -18.5t49 18.5t19 46.5t-19 46t-49 18z" />
    <glyph glyph-name="uring" unicode="&#x16f;" horiz-adv-x="563" 
d="M414 0l-16 51q-44 -32 -84 -46t-82 -14q-79 0 -120 44.5t-41 129.5v353h95v-332q0 -54 25.5 -82.5t74.5 -28.5q30 0 63 12.5t63 34.5v396h96v-518h-74zM280 577q-43 0 -71 27t-28 68t28 68t71 27t71 -27t28 -68t-28 -68t-71 -27zM280 736q-27 0 -45 -18.5t-18 -45.5
t18 -45.5t45 -18.5t45 18.5t18 45.5t-18 45.5t-45 18.5z" />
    <glyph glyph-name="Uhungarumlaut" unicode="&#x170;" horiz-adv-x="693" 
d="M614 700v-429q0 -134 -70.5 -207.5t-197.5 -73.5q-126 0 -196.5 73.5t-70.5 207.5v429h101v-431q0 -90 44.5 -141t122.5 -51t122.5 50.5t44.5 139.5v433h100zM431 847l-135 -98h-72l100 98h107zM575 847l-135 -98h-72l100 98h107z" />
    <glyph glyph-name="uhungarumlaut" unicode="&#x171;" horiz-adv-x="563" 
d="M414 0l-16 51q-44 -32 -84 -46t-82 -14q-79 0 -120 44.5t-41 129.5v353h95v-332q0 -54 25.5 -82.5t74.5 -28.5q30 0 63 12.5t63 34.5v396h96v-518h-74zM364 702l-136 -115h-63l96 115h103zM506 702l-136 -115h-63l95 115h104z" />
    <glyph glyph-name="Uogonek" unicode="&#x172;" horiz-adv-x="693" 
d="M428 -101l-6 -47q-79 4 -113 18t-34 43q0 15 11 32t40 46q-117 5 -182 78.5t-65 201.5v429h101v-431q0 -90 44.5 -141t122.5 -51t122.5 50.5t44.5 139.5v433h100v-429q0 -120 -57.5 -192.5t-163.5 -85.5q-20 -29 -26.5 -41.5t-6.5 -21.5q0 -13 15 -19.5t53 -11.5z" />
    <glyph glyph-name="uogonek" unicode="&#x173;" horiz-adv-x="563" 
d="M444 -70q0 -13 15 -19.5t53 -11.5l-6 -47q-79 4 -113 18t-34 43q0 17 14 36.5t47 50.5h-6l-16 51q-44 -32 -84 -46t-82 -14q-79 0 -120 44.5t-41 129.5v353h95v-332q0 -54 25.5 -82.5t74.5 -28.5q30 0 63 12.5t63 34.5v396h96v-518h-6q-25 -37 -31.5 -49.5t-6.5 -20.5z
" />
    <glyph glyph-name="Wcircumflex" unicode="&#x174;" horiz-adv-x="1026" 
d="M799 -6h-112l-174 570l-174 -570h-111l-194 706h108l146 -576l172 576h111l171 -576l146 576h104zM579 749l-67 53l-67 -53h-69l94 101h86l94 -101h-71z" />
    <glyph glyph-name="wcircumflex" unicode="&#x175;" horiz-adv-x="800" 
d="M623 -5h-99l-125 409l-124 -409h-99l-149 523h96l106 -416l123 416h97l124 -415l106 415h94zM468 587l-68 66l-69 -66h-61l93 118h74l93 -118h-62z" />
    <glyph glyph-name="Ycircumflex" unicode="&#x176;" horiz-adv-x="642" 
d="M372 274v-274h-102v274l-252 426h112l192 -335l191 335h111zM387 749l-67 53l-67 -53h-69l94 101h86l94 -101h-71z" />
    <glyph glyph-name="ycircumflex" unicode="&#x177;" horiz-adv-x="516" 
d="M69 -178l-22 77q57 15 94.5 41.5t65.5 69.5l-179 508h98l137 -424l134 424h97l-163 -461q-39 -110 -92.5 -158t-169.5 -77zM329 587l-68 66l-69 -66h-61l93 118h74l93 -118h-62z" />
    <glyph glyph-name="Ydieresis" unicode="&#x178;" horiz-adv-x="642" 
d="M372 274v-274h-102v274l-252 426h112l192 -335l191 335h111zM279 837v-88h-81v88h81zM444 837v-88h-81v88h81z" />
    <glyph glyph-name="Zacute" unicode="&#x179;" horiz-adv-x="609" 
d="M562 90v-90h-519v84l395 526h-376v90h500v-84l-395 -526h395zM468 847l-143 -98h-81l97 98h127z" />
    <glyph glyph-name="zacute" unicode="&#x17a;" horiz-adv-x="478" 
d="M436 79v-79h-398v74l285 365h-270v79h383v-74l-285 -365h285zM400 702l-144 -115h-67l93 115h118z" />
    <glyph glyph-name="Zdotaccent" unicode="&#x17b;" horiz-adv-x="609" 
d="M562 90v-90h-519v84l395 526h-376v90h500v-84l-395 -526h395zM346 837v-88h-84v88h84z" />
    <glyph glyph-name="zdotaccent" unicode="&#x17c;" horiz-adv-x="478" 
d="M436 79v-79h-398v74l285 365h-270v79h383v-74l-285 -365h285zM282 681v-88h-80v88h80z" />
    <glyph glyph-name="Zcaron" unicode="&#x17d;" horiz-adv-x="609" 
d="M562 90v-90h-519v84l395 526h-376v90h500v-84l-395 -526h395zM238 850l67 -52l67 52h69l-94 -101h-86l-94 101h71z" />
    <glyph glyph-name="zcaron" unicode="&#x17e;" horiz-adv-x="478" 
d="M436 79v-79h-398v74l285 365h-270v79h383v-74l-285 -365h285zM174 705l68 -66l69 66h61l-93 -118h-74l-93 118h62z" />
    <glyph glyph-name="uni018F" unicode="&#x18f;" horiz-adv-x="684" 
d="M632 353q0 -163 -82 -264t-213 -101q-129 0 -207.5 98.5t-78.5 262.5v50h476q-11 107 -67.5 166t-147.5 59q-49 0 -94 -14t-86 -42l-35 78q51 34 106.5 50t118.5 16q142 0 226 -96.5t84 -262.5zM338 76q79 0 130.5 63.5t59.5 172.5h-373q8 -111 56.5 -173.5t126.5 -62.5z
" />
    <glyph glyph-name="Ohorn" unicode="&#x1a0;" horiz-adv-x="718" 
d="M666 351q0 -162 -85.5 -262.5t-222.5 -100.5q-136 0 -221 100t-85 261t85.5 260.5t222.5 99.5h19q10 -1 31 -2q21 -2 31 -2.5t19 -0.5q62 0 93 19t31 57q0 12 -2 21.5t-7 19.5l70 21q7 -16 10.5 -32t3.5 -32q0 -51 -35 -84t-98 -40q67 -45 103.5 -124t36.5 -179zM360 76
q91 0 147 75.5t56 197.5q0 123 -56.5 198t-148.5 75q-91 0 -147 -75t-56 -196q0 -124 56.5 -199.5t148.5 -75.5z" />
    <glyph glyph-name="ohorn" unicode="&#x1a1;" horiz-adv-x="545" 
d="M502 259q0 -120 -64.5 -195.5t-165.5 -75.5t-164.5 75t-63.5 195q0 119 64 193t165 74h11q5 0 17 -1t18 -1h10q50 0 76.5 18t26.5 53q0 9 -2 18.5t-6 20.5l66 20q7 -16 10.5 -31t3.5 -30q0 -45 -27.5 -74.5t-76.5 -37.5q49 -34 75.5 -91t26.5 -130zM273 68q59 0 96 52.5
t37 137.5q0 84 -37.5 136.5t-96.5 52.5t-96 -52t-37 -136q0 -85 37.5 -138t96.5 -53z" />
    <glyph glyph-name="Uhorn" unicode="&#x1af;" horiz-adv-x="721" 
d="M346 -10q-126 0 -196.5 73.5t-70.5 207.5v429h101v-431q0 -90 44.5 -141t122.5 -51t122.5 50.5t44.5 139.5v433h14q63 0 95.5 20t32.5 60q0 11 -2 20.5t-7 20.5l70 21q7 -16 10.5 -32t3.5 -32q0 -47 -30.5 -79.5t-86.5 -45.5v-382q0 -134 -70.5 -207.5t-197.5 -73.5z" />
    <glyph glyph-name="uhorn" unicode="&#x1b0;" horiz-adv-x="584" 
d="M414 0l-16 52q-44 -32 -84 -46t-82 -14q-79 0 -120 44.5t-41 129.5v352h95v-331q0 -54 25.5 -82.5t74.5 -28.5q30 0 63 12.5t63 34.5v395h10q57 0 87 19.5t30 56.5q0 10 -2 19.5t-7 19.5l66 20q7 -14 10.5 -29t3.5 -32q0 -43 -26.5 -73.5t-75.5 -43.5v-475h-74z" />
    <glyph glyph-name="uni01CD" unicode="&#x1cd;" horiz-adv-x="699" 
d="M221 243h256l-128 364zM669 0h-107l-54 155h-318l-54 -155h-106l262 708h116zM283 856l67 -52l67 52h69l-94 -101h-86l-94 101h71z" />
    <glyph glyph-name="uni01CE" unicode="&#x1ce;" horiz-adv-x="531" 
d="M133 157q0 -41 26 -64t72 -23q33 0 67 13.5t66 39.5v121q-25 2 -42.5 3t-32.5 1q-55 0 -85.5 -7t-49.5 -26q-10 -10 -15.5 -25t-5.5 -33zM390 0l-19 58q-42 -35 -83 -51t-87 -16q-74 0 -117 43t-43 119q0 37 10.5 66t30.5 50q29 29 75.5 41t120.5 12q18 0 39 -1.5
t47 -4.5v36q0 48 -27 71t-83 23q-36 0 -74 -9t-79 -26l-23 76q46 19 93.5 29t95.5 10q99 0 145.5 -41.5t46.5 -130.5v-253l12 -101h-81zM198 708l68 -66l69 66h61l-93 -118h-74l-93 118h62z" />
    <glyph glyph-name="uni01CF" unicode="&#x1cf;" horiz-adv-x="284" 
d="M193 700v-700h-102v700h102zM76 850l67 -52l67 52h69l-94 -101h-86l-94 101h71z" />
    <glyph glyph-name="uni01D0" unicode="&#x1d0;" horiz-adv-x="249" 
d="M172 518v-518h-95v518h95zM57 705l68 -66l69 66h61l-93 -118h-74l-93 118h62z" />
    <glyph glyph-name="uni01D1" unicode="&#x1d1;" horiz-adv-x="718" 
d="M360 712q136 0 221 -100t85 -261q0 -162 -85.5 -262.5t-222.5 -100.5q-136 0 -221 100t-85 261q0 162 85.5 262.5t222.5 100.5zM360 76q91 0 147 75.5t56 197.5q0 123 -56.5 199t-148.5 76q-91 0 -147 -75.5t-56 -197.5q0 -124 56.5 -199.5t148.5 -75.5zM293 857l67 -52
l67 52h69l-94 -101h-86l-94 101h71z" />
    <glyph glyph-name="uni01D2" unicode="&#x1d2;" horiz-adv-x="545" 
d="M273 530q101 0 165 -75t64 -195q0 -121 -64.5 -196.5t-165.5 -75.5t-164.5 75t-63.5 195q0 121 64 196.5t165 75.5zM273 68q59 0 96 53t37 138t-37 138t-97 53q-59 0 -96 -53t-37 -138t37 -138t97 -53zM204 708l68 -66l69 66h61l-93 -118h-74l-93 118h62z" />
    <glyph glyph-name="uni01D3" unicode="&#x1d3;" horiz-adv-x="693" 
d="M614 700v-429q0 -134 -70.5 -207.5t-197.5 -73.5q-126 0 -196.5 73.5t-70.5 207.5v429h101v-431q0 -90 44.5 -141t122.5 -51t122.5 50.5t44.5 139.5v433h100zM280 846l67 -52l67 52h69l-94 -101h-86l-94 101h71z" />
    <glyph glyph-name="uni01D4" unicode="&#x1d4;" horiz-adv-x="563" 
d="M414 0l-16 51q-44 -32 -84 -46t-82 -14q-79 0 -120 44.5t-41 129.5v353h95v-332q0 -54 25.5 -82.5t74.5 -28.5q30 0 63 12.5t63 34.5v396h96v-518h-74zM212 701l68 -66l69 66h61l-93 -118h-74l-93 118h62z" />
    <glyph glyph-name="uni01D5" unicode="&#x1d5;" horiz-adv-x="693" 
d="M614 700v-429q0 -134 -70.5 -207.5t-197.5 -73.5q-126 0 -196.5 73.5t-70.5 207.5v429h101v-431q0 -90 44.5 -141t122.5 -51t122.5 50.5t44.5 139.5v433h100zM479 929v-55h-266v55h266zM304 835v-86h-81v86h81zM469 835v-86h-81v86h81z" />
    <glyph glyph-name="uni01D6" unicode="&#x1d6;" horiz-adv-x="563" 
d="M414 0l-16 51q-44 -32 -84 -46t-82 -14q-79 0 -120 44.5t-41 129.5v353h95v-332q0 -54 25.5 -82.5t74.5 -28.5q30 0 63 12.5t63 34.5v396h96v-518h-74zM404 772v-52h-248v52h248zM241 679v-86h-78v86h78zM397 679v-86h-78v86h78z" />
    <glyph glyph-name="uni01D7" unicode="&#x1d7;" horiz-adv-x="693" 
d="M614 700v-429q0 -134 -70.5 -207.5t-197.5 -73.5q-126 0 -196.5 73.5t-70.5 207.5v429h101v-431q0 -90 44.5 -141t122.5 -51t122.5 50.5t44.5 139.5v433h100zM506 955l-132 -86h-81l86 86h127zM304 835v-86h-81v86h81zM469 835v-86h-81v86h81z" />
    <glyph glyph-name="uni01D8" unicode="&#x1d8;" horiz-adv-x="563" 
d="M414 0l-16 51q-44 -32 -84 -46t-82 -14q-79 0 -120 44.5t-41 129.5v353h95v-332q0 -54 25.5 -82.5t74.5 -28.5q30 0 63 12.5t63 34.5v396h96v-518h-74zM428 812l-129 -97h-67l78 97h118zM241 679v-86h-78v86h78zM397 679v-86h-78v86h78z" />
    <glyph glyph-name="uni01D9" unicode="&#x1d9;" horiz-adv-x="693" 
d="M614 700v-429q0 -134 -70.5 -207.5t-197.5 -73.5q-126 0 -196.5 73.5t-70.5 207.5v429h101v-431q0 -90 44.5 -141t122.5 -51t122.5 50.5t44.5 139.5v433h100zM485 958l-96 -89h-86l-96 89h71l69 -41l68 41h70zM304 835v-86h-81v86h81zM469 835v-86h-81v86h81z" />
    <glyph glyph-name="uni01DA" unicode="&#x1da;" horiz-adv-x="563" 
d="M414 0l-16 51q-44 -32 -84 -46t-82 -14q-79 0 -120 44.5t-41 129.5v353h95v-332q0 -54 25.5 -82.5t74.5 -28.5q30 0 63 12.5t63 34.5v396h96v-518h-74zM412 815l-95 -100h-74l-95 100h62l70 -50l71 50h61zM241 679v-86h-78v86h78zM397 679v-86h-78v86h78z" />
    <glyph glyph-name="uni01DB" unicode="&#x1db;" horiz-adv-x="693" 
d="M614 700v-429q0 -134 -70.5 -207.5t-197.5 -73.5q-126 0 -196.5 73.5t-70.5 207.5v429h101v-431q0 -90 44.5 -141t122.5 -51t122.5 50.5t44.5 139.5v433h100zM313 955l86 -86h-81l-132 86h127zM304 835v-86h-81v86h81zM469 835v-86h-81v86h81z" />
    <glyph glyph-name="uni01DC" unicode="&#x1dc;" horiz-adv-x="563" 
d="M414 0l-16 51q-44 -32 -84 -46t-82 -14q-79 0 -120 44.5t-41 129.5v353h95v-332q0 -54 25.5 -82.5t74.5 -28.5q30 0 63 12.5t63 34.5v396h96v-518h-74zM328 715h-67l-129 97h118zM241 679v-86h-78v86h78zM397 679v-86h-78v86h78z" />
    <glyph glyph-name="Gcaron" unicode="&#x1e6;" horiz-adv-x="694" 
d="M617 382v-330q-54 -29 -114.5 -45t-121.5 -16q-153 0 -241 95.5t-88 262.5q0 164 92 262.5t243 98.5q55 0 107.5 -12t104.5 -37l-30 -88q-51 24 -94.5 34.5t-88.5 10.5q-105 0 -168 -74t-63 -195q0 -126 61.5 -198t169.5 -72q33 0 67.5 8t64.5 22v183h-168v90h267z
M303 857l67 -52l67 52h69l-94 -101h-86l-94 101h71z" />
    <glyph glyph-name="gcaron" unicode="&#x1e7;" horiz-adv-x="557" 
d="M279 448q-64 0 -101 -48t-37 -132q0 -83 37 -130.5t100 -47.5q27 0 55 10.5t54 29.5v278q-25 19 -53 29.5t-55 10.5zM409 518h73v-482q0 -105 -57 -159t-168 -54q-49 0 -95.5 9t-88.5 27l26 77q39 -17 77.5 -25.5t76.5 -8.5q67 0 100.5 31t33.5 93v29q-33 -23 -66.5 -34
t-68.5 -11q-94 0 -150.5 69t-56.5 187q0 119 57.5 190.5t151.5 71.5q38 0 73.5 -13.5t67.5 -39.5zM218 708l68 -66l69 66h61l-93 -118h-74l-93 118h62z" />
    <glyph glyph-name="uni01EA" unicode="&#x1ea;" horiz-adv-x="718" 
d="M441 -101l-6 -47q-79 4 -113 18t-34 43q0 16 11.5 33t37.5 43q-128 8 -206.5 106.5t-78.5 253.5q0 162 85.5 262.5t222.5 100.5q136 0 221 -100t85 -261q0 -146 -71.5 -244t-189.5 -116q-19 -28 -25.5 -40t-6.5 -21q0 -13 15 -19.5t53 -11.5zM360 76q91 0 147 75.5
t56 197.5q0 123 -56.5 199t-148.5 76q-91 0 -147 -75.5t-56 -197.5q0 -124 56.5 -199.5t148.5 -75.5z" />
    <glyph glyph-name="uni01EB" unicode="&#x1eb;" horiz-adv-x="545" 
d="M354 -101l-6 -47q-79 4 -113 18t-34 43q0 16 11.5 33.5t38.5 42.5q-93 9 -150 82.5t-57 186.5q0 121 64 196.5t165 75.5t165 -75t64 -195q0 -105 -50 -177.5t-133 -89.5q-20 -29 -26.5 -41.5t-6.5 -21.5q0 -13 15 -19.5t53 -11.5zM273 68q59 0 96 53t37 138t-37 138
t-97 53q-59 0 -96 -53t-37 -138t37 -138t97 -53z" />
    <glyph glyph-name="uni01F0" unicode="&#x1f0;" horiz-adv-x="249" 
d="M55 -179l-64 49q54 49 70.5 89t16.5 106v453h95v-454q0 -86 -23.5 -137.5t-94.5 -105.5zM57 705l68 -66l69 66h61l-93 -118h-74l-93 118h62z" />
    <glyph glyph-name="uni01F8" unicode="&#x1f8;" horiz-adv-x="716" 
d="M519 0l-334 547v-547h-97v700h114l329 -541v541h97v-700h-109zM426 745h-81l-143 98h127z" />
    <glyph glyph-name="uni01F9" unicode="&#x1f9;" horiz-adv-x="563" 
d="M297 442q-30 0 -63.5 -12.5t-62.5 -33.5v-396h-96v518h74l16 -51q44 32 84 46t82 14q79 0 120 -44.5t41 -129.5v-353h-95v332q0 54 -25.5 82t-74.5 28zM335 590h-67l-144 115h118z" />
    <glyph glyph-name="Aringacute" unicode="&#x1fa;" horiz-adv-x="699" 
d="M497 967l-123 -79h-81l80 79h124zM350 827q-30 0 -49 -18t-19 -46t19 -46.5t49 -18.5t49 18.5t19 46.5t-19.5 46t-48.5 18zM221 243h256l-128 364zM669 0h-107l-54 155h-318l-54 -155h-106l254 687q-19 14 -29 34t-10 42q0 41 30 68.5t75 27.5t75 -27.5t30 -68.5
q0 -23 -10.5 -43t-29.5 -33z" />
    <glyph glyph-name="aringacute" unicode="&#x1fb;" horiz-adv-x="531" 
d="M133 157q0 -41 26 -64t72 -23q33 0 67 13.5t66 39.5v121q-25 2 -42.5 3t-32.5 1q-55 0 -85.5 -7t-49.5 -26q-10 -10 -15.5 -25t-5.5 -33zM390 0l-19 58q-42 -35 -83 -51t-87 -16q-74 0 -117 43t-43 119q0 37 10.5 66t30.5 50q29 29 75.5 41t120.5 12q18 0 39 -1.5
t47 -4.5v36q0 48 -27 71t-83 23q-36 0 -74 -9t-79 -26l-23 76q46 19 93.5 29t95.5 10q99 0 145.5 -41.5t46.5 -130.5v-253l12 -101h-81zM291 876h115l-122 -81h-70zM266 584q-43 0 -71 26t-28 65t28 65t71 26t71 -26t28 -65t-28 -65t-71 -26zM266 735q-27 0 -45 -17t-18 -43
t18 -43t45 -17t45 17t18 43t-18 43t-45 17z" />
    <glyph glyph-name="AEacute" unicode="&#x1fc;" horiz-adv-x="1040" 
d="M275 243h239v368h-16zM986 0h-472v155h-292l-94 -155h-112l428 700h537v-90h-367v-206h326v-90h-326v-224h372v-90zM769 847l-143 -98h-81l97 98h127z" />
    <glyph glyph-name="aeacute" unicode="&#x1fd;" horiz-adv-x="838" 
d="M582 451q-53 0 -87.5 -42.5t-40.5 -113.5h253q-5 72 -38.5 114t-86.5 42zM600 -10q-59 0 -106 21t-78 61q-52 -41 -102.5 -61t-101.5 -20q-80 0 -125.5 43t-45.5 119q0 37 10.5 66t30.5 50q29 29 75.5 41t120.5 12q18 0 39 -1.5t47 -4.5v36q0 48 -27 71t-83 23
q-36 0 -74 -9t-79 -26l-23 76q46 19 93.5 29t94.5 10q66 0 105.5 -20t55.5 -63q28 42 69.5 64.5t92.5 22.5q95 0 152.5 -76t57.5 -200v-35h-343q6 -69 46 -109.5t103 -40.5q35 0 73 11t74 32l28 -72q-42 -24 -88 -37t-92 -13zM133 157q0 -42 25.5 -64.5t72.5 -22.5
q36 0 74 16t77 47q-10 26 -15 53.5t-6 56.5q-21 3 -39 4t-33 1q-55 0 -85.5 -7t-49.5 -26q-10 -10 -15.5 -25t-5.5 -33zM591 702l-144 -115h-67l93 115h118z" />
    <glyph glyph-name="Oslashacute" unicode="&#x1fe;" horiz-adv-x="718" 
d="M358 625q-91 0 -147 -75.5t-56 -198.5q0 -56 12.5 -104.5t36.5 -84.5l269 422q-25 20 -54 30.5t-61 10.5zM360 75q91 0 147 75.5t56 198.5q0 57 -13 105.5t-37 84.5l-269 -422q25 -21 54 -31.5t62 -10.5zM666 351q0 -162 -85.5 -262.5t-222.5 -100.5q-47 0 -89 12.5
t-77 37.5l-59 -89h-83l92 133q-44 49 -67 117t-23 150q0 162 85.5 262.5t222.5 100.5q46 0 88 -12.5t77 -36.5l60 88h82l-91 -133q44 -49 67 -117t23 -150zM523 854l-143 -98h-81l97 98h127z" />
    <glyph glyph-name="oslashacute" unicode="&#x1ff;" horiz-adv-x="545" 
d="M273 451q-60 0 -97 -53t-37 -139q0 -37 7.5 -69t22.5 -57l174 293q-15 12 -33 18.5t-37 6.5zM273 67q60 0 97 53t37 139q0 38 -8 70.5t-23 57.5l-174 -294q15 -13 33 -19.5t38 -6.5zM502 260q0 -121 -64.5 -196.5t-165.5 -75.5q-31 0 -59.5 8t-53.5 23l-43 -70h-72
l69 108q-34 37 -51.5 88.5t-17.5 112.5q0 121 64 196.5t165 75.5q30 0 58.5 -7.5t54.5 -22.5l43 69h72l-68 -108q34 -37 51.5 -88.5t17.5 -112.5zM430 705l-144 -115h-67l93 115h118z" />
    <glyph glyph-name="uni0218" unicode="&#x218;" horiz-adv-x="606" 
d="M329 406q128 -37 178.5 -84t50.5 -127q0 -96 -68.5 -150t-189.5 -54q-68 0 -134 16t-128 48l29 87q57 -30 118.5 -46t119.5 -16q69 0 110.5 29t41.5 77q0 46 -35.5 74t-125.5 57q-126 36 -176.5 81t-50.5 121q0 87 64 138.5t172 51.5q58 0 113 -12t109 -37l-29 -87
q-50 24 -100 35.5t-100 11.5q-58 0 -93 -25.5t-35 -67.5q0 -41 35.5 -67.5t123.5 -53.5zM278 -117q0 12 -5 23t-18 26l79 21q12 -15 17 -28.5t5 -29.5q0 -27 -19.5 -50.5t-59.5 -44.5l-32 26q19 17 26 29.5t7 27.5z" />
    <glyph glyph-name="uni0219" unicode="&#x219;" horiz-adv-x="480" 
d="M265 303q96 -29 134 -64t38 -97q0 -71 -51.5 -111.5t-141.5 -40.5q-54 0 -108.5 13.5t-100.5 38.5l27 79q44 -24 91.5 -37.5t91.5 -13.5q46 0 73 18.5t27 49.5q0 29 -25.5 47.5t-90.5 37.5q-97 27 -134 62t-37 95q0 67 49.5 107t133.5 40q46 0 90 -10.5t86 -30.5l-27 -79
q-38 20 -77 30.5t-75 10.5q-39 0 -63 -17t-24 -45t23.5 -45t90.5 -38zM216 -113q0 12 -5 23t-18 26l79 21q12 -15 17 -28.5t5 -29.5q0 -27 -19.5 -50.5t-59.5 -44.5l-32 26q19 17 26 29.5t7 27.5z" />
    <glyph glyph-name="uni021A" unicode="&#x21a;" horiz-adv-x="620" 
d="M361 609v-609h-102v609h-232v91h565v-91h-231zM282 -110q0 12 -5 23t-18 26l79 21q12 -15 17 -28.5t5 -29.5q0 -27 -19.5 -50.5t-59.5 -44.5l-32 26q19 17 26 29.5t7 27.5z" />
    <glyph glyph-name="uni021B" unicode="&#x21b;" horiz-adv-x="395" 
d="M265 -8q-80 0 -119.5 39.5t-39.5 118.5v288h-80v80h80v149h95v-149h154v-80h-154v-274q0 -44 22.5 -67t64.5 -23q18 0 34 2.5t33 7.5v-79q-20 -6 -42.5 -9.5t-47.5 -3.5zM206 -113q0 12 -5 23t-18 26l79 21q12 -15 17 -28.5t5 -29.5q0 -27 -19.5 -50.5t-59.5 -44.5
l-32 26q19 17 26 29.5t7 27.5z" />
    <glyph glyph-name="uni0226" unicode="&#x226;" horiz-adv-x="699" 
d="M221 243h256l-128 364zM669 0h-107l-54 155h-318l-54 -155h-106l262 708h116zM391 843v-88h-84v88h84z" />
    <glyph glyph-name="uni0227" unicode="&#x227;" horiz-adv-x="531" 
d="M133 157q0 -41 26 -64t72 -23q33 0 67 13.5t66 39.5v121q-25 2 -42.5 3t-32.5 1q-55 0 -85.5 -7t-49.5 -26q-10 -10 -15.5 -25t-5.5 -33zM390 0l-19 58q-42 -35 -83 -51t-87 -16q-74 0 -117 43t-43 119q0 37 10.5 66t30.5 50q29 29 75.5 41t120.5 12q18 0 39 -1.5
t47 -4.5v36q0 48 -27 71t-83 23q-36 0 -74 -9t-79 -26l-23 76q46 19 93.5 29t95.5 10q99 0 145.5 -41.5t46.5 -130.5v-253l12 -101h-81zM306 684v-88h-80v88h80z" />
    <glyph glyph-name="uni022E" unicode="&#x22e;" horiz-adv-x="718" 
d="M360 712q136 0 221 -100t85 -261q0 -162 -85.5 -262.5t-222.5 -100.5q-136 0 -221 100t-85 261q0 162 85.5 262.5t222.5 100.5zM360 76q91 0 147 75.5t56 197.5q0 123 -56.5 199t-148.5 76q-91 0 -147 -75.5t-56 -197.5q0 -124 56.5 -199.5t148.5 -75.5zM401 844v-88h-84
v88h84z" />
    <glyph glyph-name="uni022F" unicode="&#x22f;" horiz-adv-x="545" 
d="M273 530q101 0 165 -75t64 -195q0 -121 -64.5 -196.5t-165.5 -75.5t-164.5 75t-63.5 195q0 121 64 196.5t165 75.5zM273 68q59 0 96 53t37 138t-37 138t-97 53q-59 0 -96 -53t-37 -138t37 -138t97 -53zM312 684v-88h-80v88h80z" />
    <glyph glyph-name="uni0232" unicode="&#x232;" horiz-adv-x="642" 
d="M372 274v-274h-102v274l-252 426h112l192 -335l191 335h111zM464 811v-56h-286v56h286z" />
    <glyph glyph-name="uni0233" unicode="&#x233;" horiz-adv-x="516" 
d="M69 -178l-22 77q57 15 94.5 41.5t65.5 69.5l-179 508h98l137 -424l134 424h97l-163 -461q-39 -110 -92.5 -158t-169.5 -77zM387 651v-53h-252v53h252z" />
    <glyph glyph-name="uni0237" unicode="&#x237;" horiz-adv-x="249" 
d="M55 -179l-64 49q54 49 70.5 89t16.5 106v453h95v-454q0 -86 -23.5 -137.5t-94.5 -105.5z" />
    <glyph glyph-name="uni0259" unicode="&#x259;" horiz-adv-x="521" 
d="M238 528q111 0 175 -71t64 -196q0 -121 -61.5 -197t-159.5 -76q-99 0 -158 75t-59 201v35h344q-6 69 -46 109.5t-103 40.5q-35 0 -73 -11t-74 -32l-28 72q42 24 88 37t91 13zM257 66q52 0 87 43t40 114h-252q5 -73 38.5 -115t86.5 -42z" />
    <glyph glyph-name="uni02B9" unicode="&#x2b9;" horiz-adv-x="245" 
d="M216 724v-1l-133 -262l-40 13l62 250h111z" />
    <glyph glyph-name="uni02BA" unicode="&#x2ba;" horiz-adv-x="417" 
d="M389 724v-1l-128 -262l-41 13l62 250h107zM211 724v-1l-128 -262l-40 13l62 250h106z" />
    <glyph glyph-name="uni02BB" unicode="&#x2bb;" horiz-adv-x="208" 
d="M128 466h-96v8q0 72 30 133.5t96 121.5l32 -24q-36 -55 -49 -106t-13 -133z" />
    <glyph glyph-name="uni02BC" unicode="&#x2bc;" horiz-adv-x="208" 
d="M80 724h97v-7q0 -72 -30.5 -133.5t-96.5 -122.5l-31 24q36 57 48.5 107.5t12.5 131.5z" />
    <glyph glyph-name="uni02BE" unicode="&#x2be;" horiz-adv-x="196" 
d="M27 537v62q39 0 62 20t23 53q0 32 -23.5 52t-61.5 20v62q69 0 110.5 -37t41.5 -97q0 -61 -42 -98t-110 -37z" />
    <glyph glyph-name="uni02BF" unicode="&#x2bf;" horiz-adv-x="196" 
d="M169 806v-62q-38 0 -61 -19.5t-23 -52.5t23 -53t61 -20v-62q-69 0 -110.5 37t-41.5 98q0 60 42 97t110 37z" />
    <glyph glyph-name="circumflex" unicode="&#x2c6;" horiz-adv-x="500" 
d="M318 587l-68 66l-69 -66h-61l93 118h74l93 -118h-62z" />
    <glyph glyph-name="caron" unicode="&#x2c7;" horiz-adv-x="500" 
d="M182 705l68 -66l69 66h61l-93 -118h-74l-93 118h62z" />
    <glyph glyph-name="uni02C8" unicode="&#x2c8;" horiz-adv-x="152" 
d="M111 543h-71v257h71v-257z" />
    <glyph glyph-name="uni02CC" unicode="&#x2cc;" horiz-adv-x="152" 
d="M111 -100h-71v257h71v-257z" />
    <glyph glyph-name="uni02CD" unicode="&#x2cd;" horiz-adv-x="500" 
d="M376 -55v-53h-252v53h252z" />
    <glyph glyph-name="breve" unicode="&#x2d8;" horiz-adv-x="500" 
d="M250 642q30 0 47.5 15.5t23.5 47.5h51q-2 -55 -35.5 -88t-86.5 -33q-54 0 -87 33t-35 88h51q6 -31 23.5 -47t47.5 -16z" />
    <glyph glyph-name="dotaccent" unicode="&#x2d9;" horiz-adv-x="500" 
d="M290 681v-88h-80v88h80z" />
    <glyph glyph-name="ring" unicode="&#x2da;" horiz-adv-x="500" 
d="M250 581q-43 0 -71 27t-28 68t28 68t71 27t71 -27t28 -68t-28 -68t-71 -27zM250 740q-27 0 -45 -18.5t-18 -45.5t18 -45.5t45 -18.5t45 18.5t18 45.5t-18 45.5t-45 18.5z" />
    <glyph glyph-name="ogonek" unicode="&#x2db;" horiz-adv-x="500" 
d="M249 -70q0 -13 15 -19.5t53 -11.5l-6 -47q-79 4 -113 18t-34 43q0 18 16 39t57 59l53 -7q-25 -36 -33 -50.5t-8 -23.5z" />
    <glyph glyph-name="tilde" unicode="&#x2dc;" horiz-adv-x="500" 
d="M195 634q-12 0 -22 -11.5t-22 -39.5l-46 15q18 52 38 74.5t47 22.5q13 0 25.5 -4.5t43.5 -22.5q21 -13 32.5 -17.5t21.5 -4.5q13 0 22.5 11t21.5 39l46 -14q-18 -52 -37.5 -74.5t-47.5 -22.5q-14 0 -27.5 5t-41.5 21q-26 15 -35.5 19t-18.5 4z" />
    <glyph glyph-name="hungarumlaut" unicode="&#x2dd;" horiz-adv-x="500" 
d="M334 702l-136 -115h-63l96 115h103zM476 702l-136 -115h-63l95 115h104z" />
    <glyph glyph-name="uni0300" unicode="&#x300;" 
d="M53 587h-67l-144 115h118z" />
    <glyph glyph-name="uni0301" unicode="&#x301;" 
d="M158 702l-144 -115h-67l93 115h118z" />
    <glyph glyph-name="uni0302" unicode="&#x302;" 
d="M68 587l-68 66l-69 -66h-61l93 118h74l93 -118h-62z" />
    <glyph glyph-name="uni0303" unicode="&#x303;" 
d="M-55 634q-12 0 -22 -11.5t-22 -39.5l-46 15q18 52 38 74.5t47 22.5q13 0 25.5 -4.5t43.5 -22.5q21 -13 32.5 -17.5t21.5 -4.5q13 0 22.5 11t21.5 39l46 -14q-18 -52 -37.5 -74.5t-47.5 -22.5q-14 0 -27.5 5t-41.5 21q-26 15 -35.5 19t-18.5 4z" />
    <glyph glyph-name="uni0304" unicode="&#x304;" 
d="M126 651v-53h-252v53h252z" />
    <glyph glyph-name="uni0306" unicode="&#x306;" 
d="M0 642q30 0 47.5 15.5t23.5 47.5h51q-2 -55 -35.5 -88t-86.5 -33q-54 0 -87 33t-35 88h51q6 -31 23.5 -47t47.5 -16z" />
    <glyph glyph-name="uni0307" unicode="&#x307;" 
d="M40 681v-88h-80v88h80z" />
    <glyph glyph-name="uni0308" unicode="&#x308;" 
d="M-39 681v-88h-78v88h78zM117 681v-88h-78v88h78z" />
    <glyph glyph-name="uni0309" unicode="&#x309;" 
d="M-98 673l-12 50q27 9 54 13t55 4q51 0 80 -17t29 -46t-27.5 -50.5t-96.5 -46.5l-15 41q43 17 58.5 27t15.5 20q0 9 -12.5 14t-36.5 5q-22 0 -45.5 -3.5t-46.5 -10.5z" />
    <glyph glyph-name="uni030A" unicode="&#x30a;" 
d="M0 581q-43 0 -71 27t-28 68t28 68t71 27t71 -27t28 -68t-28 -68t-71 -27zM0 740q-27 0 -45 -18.5t-18 -45.5t18 -45.5t45 -18.5t45 18.5t18 45.5t-18 45.5t-45 18.5z" />
    <glyph glyph-name="uni030B" unicode="&#x30b;" 
d="M84 702l-136 -115h-63l96 115h103zM226 702l-136 -115h-63l95 115h104z" />
    <glyph glyph-name="uni030C" unicode="&#x30c;" 
d="M-68 705l68 -66l69 66h61l-93 -118h-74l-93 118h62z" />
    <glyph glyph-name="uni0312" unicode="&#x312;" 
d="M28 652q0 -12 5 -23t18 -26l-79 -21q-12 15 -17 28.5t-5 29.5q0 27 19.5 50.5t59.5 44.5l32 -26q-19 -17 -26 -29.5t-7 -27.5z" />
    <glyph glyph-name="uni0315" unicode="&#x315;" 
d="M0 725h64v-25q0 -39 -12 -69.5t-42 -64.5l-29 15q10 25 14.5 51t4.5 61v32z" />
    <glyph glyph-name="uni0323" unicode="&#x323;" 
d="M40 -49v-88h-80v88h80z" />
    <glyph glyph-name="uni0324" unicode="&#x324;" 
d="M-39 -49v-88h-78v88h78zM117 -49v-88h-78v88h78z" />
    <glyph glyph-name="uni0326" unicode="&#x326;" 
d="M-28 -110q0 12 -5 23t-18 26l79 21q12 -15 17 -28.5t5 -29.5q0 -27 -19.5 -50.5t-59.5 -44.5l-32 26q19 17 26 29.5t7 27.5z" />
    <glyph glyph-name="uni0327" unicode="&#x327;" 
d="M88 -83q0 -34 -43.5 -52t-132.5 -21l-4 35q51 4 74.5 11.5t23.5 21.5q0 12 -16 15q-7 2 -16 2q-12 0 -28 -3l-16 20l50 63l60 -5l-37 -41q41 1 63 -10.5t22 -35.5z" />
    <glyph glyph-name="uni0328" unicode="&#x328;" 
d="M-1 -70q0 -13 15 -19.5t53 -11.5l-6 -47q-79 4 -113 18t-34 43q0 18 16 39t57 59l53 -7q-25 -36 -33 -50.5t-8 -23.5z" />
    <glyph glyph-name="uni032D" unicode="&#x32d;" 
d="M68 -167l-68 66l-69 -66h-61l93 118h74l93 -118h-62z" />
    <glyph glyph-name="uni032E" unicode="&#x32e;" 
d="M0 -112q30 0 47.5 15.5t23.5 47.5h51q-2 -55 -35.5 -88t-86.5 -33q-54 0 -87 33t-35 88h51q6 -31 23.5 -47t47.5 -16z" />
    <glyph glyph-name="uni0331" unicode="&#x331;" 
d="M126 -55v-53h-252v53h252z" />
    <glyph glyph-name="uni0E3F" unicode="&#xe3f;" horiz-adv-x="664" 
d="M181 622v-225h129v225h-129zM497 522q0 48 -34 74t-98 26h-9v-224q66 5 103.5 38t37.5 86zM181 324v-246h129v246h-129zM518 199q0 55 -42 87.5t-120 36.5v-245h13q70 0 109.5 32t39.5 89zM616 191q0 -91 -66.5 -141t-185.5 -50h-2v-107h-58v107h-216v700h216v84h58v-84
h3q109 0 168.5 -43.5t59.5 -122.5q0 -65 -38.5 -108t-113.5 -63q88 -17 131.5 -59.5t43.5 -112.5z" />
    <glyph glyph-name="uni1E06" unicode="&#x1e06;" horiz-adv-x="650" 
d="M603 191q0 -90 -67 -140.5t-186 -50.5h-262v700h262q110 0 170.5 -43.5t60.5 -122.5q0 -62 -37 -105t-109 -66q84 -18 126 -61.5t42 -110.5zM189 611v-207h122q77 0 122 31t45 84q0 44 -34.5 68t-98.5 24h-156zM189 317v-228h163q69 0 108.5 29.5t39.5 81.5
q0 55 -49.5 86t-137.5 31h-124zM469 -55v-53h-252v53h252z" />
    <glyph glyph-name="uni1E07" unicode="&#x1e07;" horiz-adv-x="557" 
d="M513 261q0 -125 -57 -198t-153 -73q-37 0 -72 13t-68 40l-14 -43h-74v724h96v-248q31 25 65.5 38t71.5 13q93 0 149 -72t56 -194zM279 69q64 0 101 51t37 140q0 88 -36.5 138t-100.5 50q-28 0 -56 -11.5t-53 -32.5v-294q26 -20 53.5 -30.5t54.5 -10.5zM398 -58v-53h-252
v53h252z" />
    <glyph glyph-name="uni1E0C" unicode="&#x1e0c;" horiz-adv-x="691" 
d="M639 351q0 -167 -96.5 -259t-268.5 -92h-186v700h189q170 0 266 -91.5t96 -257.5zM189 611v-522h93q120 0 187 68t67 192q0 125 -67 193.5t-188 68.5h-92zM384 -49v-88h-80v88h80z" />
    <glyph glyph-name="uni1E0D" unicode="&#x1e0d;" horiz-adv-x="557" 
d="M141 258q0 -88 36.5 -138.5t99.5 -50.5q28 0 56 11.5t54 33.5v294q-25 19 -53 29.5t-55 10.5q-65 0 -101.5 -50t-36.5 -140zM409 0l-16 47q-36 -30 -71 -43.5t-73 -13.5q-92 0 -148 72.5t-56 194.5q0 125 57.5 197.5t154.5 72.5q34 0 66 -10t64 -31v238h95v-724h-73z
M324 -52v-88h-80v88h80z" />
    <glyph glyph-name="uni1E0E" unicode="&#x1e0e;" horiz-adv-x="691" 
d="M639 351q0 -167 -96.5 -259t-268.5 -92h-186v700h189q170 0 266 -91.5t96 -257.5zM189 611v-522h93q120 0 187 68t67 192q0 125 -67 193.5t-188 68.5h-92zM470 -55v-53h-252v53h252z" />
    <glyph glyph-name="uni1E0F" unicode="&#x1e0f;" horiz-adv-x="557" 
d="M141 258q0 -88 36.5 -138.5t99.5 -50.5q28 0 56 11.5t54 33.5v294q-25 19 -53 29.5t-55 10.5q-65 0 -101.5 -50t-36.5 -140zM409 0l-16 47q-36 -30 -71 -43.5t-73 -13.5q-92 0 -148 72.5t-56 194.5q0 125 57.5 197.5t154.5 72.5q34 0 66 -10t64 -31v238h95v-724h-73z
M410 -58v-53h-252v53h252z" />
    <glyph glyph-name="uni1E12" unicode="&#x1e12;" horiz-adv-x="691" 
d="M639 351q0 -167 -96.5 -259t-268.5 -92h-186v700h189q170 0 266 -91.5t96 -257.5zM189 611v-522h93q120 0 187 68t67 192q0 125 -67 193.5t-188 68.5h-92zM412 -167l-68 66l-69 -66h-61l93 118h74l93 -118h-62z" />
    <glyph glyph-name="uni1E13" unicode="&#x1e13;" horiz-adv-x="557" 
d="M141 258q0 -88 36.5 -138.5t99.5 -50.5q28 0 56 11.5t54 33.5v294q-25 19 -53 29.5t-55 10.5q-65 0 -101.5 -50t-36.5 -140zM409 0l-16 47q-36 -30 -71 -43.5t-73 -13.5q-92 0 -148 72.5t-56 194.5q0 125 57.5 197.5t154.5 72.5q34 0 66 -10t64 -31v238h95v-724h-73z
M352 -170l-68 66l-69 -66h-61l93 118h74l93 -118h-62z" />
    <glyph glyph-name="uni1E20" unicode="&#x1e20;" horiz-adv-x="694" 
d="M617 382v-330q-54 -29 -114.5 -45t-121.5 -16q-153 0 -241 95.5t-88 262.5q0 164 92 262.5t243 98.5q55 0 107.5 -12t104.5 -37l-30 -88q-51 24 -94.5 34.5t-88.5 10.5q-105 0 -168 -74t-63 -195q0 -126 61.5 -198t169.5 -72q33 0 67.5 8t64.5 22v183h-168v90h267z
M512 818v-56h-286v56h286z" />
    <glyph glyph-name="uni1E21" unicode="&#x1e21;" horiz-adv-x="557" 
d="M279 448q-64 0 -101 -48t-37 -132q0 -83 37 -130.5t100 -47.5q27 0 55 10.5t54 29.5v278q-25 19 -53 29.5t-55 10.5zM409 518h73v-482q0 -105 -57 -159t-168 -54q-49 0 -95.5 9t-88.5 27l26 77q39 -17 77.5 -25.5t76.5 -8.5q67 0 100.5 31t33.5 93v29q-33 -23 -66.5 -34
t-68.5 -11q-94 0 -150.5 69t-56.5 187q0 119 57.5 190.5t151.5 71.5q38 0 73.5 -13.5t67.5 -39.5zM412 654v-53h-252v53h252z" />
    <glyph glyph-name="uni1E24" unicode="&#x1e24;" horiz-adv-x="713" 
d="M523 312h-334v-312h-101v700h101v-293h334v293h102v-700h-102v312zM396 -45v-88h-80v88h80z" />
    <glyph glyph-name="uni1E25" unicode="&#x1e25;" horiz-adv-x="563" 
d="M297 442q-30 0 -63.5 -12.5t-62.5 -33.5v-396h-96v724h96v-253q41 29 80 42.5t80 13.5q79 0 120 -44.5t41 -129.5v-353h-95v332q0 54 -25.5 82t-74.5 28zM323 -45v-88h-80v88h80z" />
    <glyph glyph-name="uni1E28" unicode="&#x1e28;" horiz-adv-x="713" 
d="M227 -83q0 -34 -43.5 -52t-132.5 -21l-4 35q51 4 74.5 11.5t23.5 21.5q0 12 -15 15q-7 2 -17 2q-12 0 -28 -3l-16 20l43 54h-24v700h101v-293h334v293h102v-700h-102v312h-334v-312h-14l-33 -37q41 1 63 -10.5t22 -35.5z" />
    <glyph glyph-name="uni1E29" unicode="&#x1e29;" horiz-adv-x="563" 
d="M211 -83q0 -34 -43.5 -52t-132.5 -21l-4 35q51 4 74.5 11.5t23.5 21.5q0 12 -15 15q-7 2 -17 2q-12 0 -28 -3l-16 20l43 54h-21v724h96v-253q41 29 80 42.5t80 13.5q79 0 120 -44.5t41 -129.5v-353h-95v332q0 54 -25.5 82t-74.5 28q-30 0 -63.5 -12.5t-62.5 -33.5v-396
h-12l-33 -37q41 1 63 -10.5t22 -35.5z" />
    <glyph glyph-name="uni1E2A" unicode="&#x1e2a;" horiz-adv-x="713" 
d="M523 312h-334v-312h-101v700h101v-293h334v293h102v-700h-102v312zM356 -112q30 0 47.5 15.5t23.5 47.5h51q-2 -55 -35.5 -88t-86.5 -33q-54 0 -87 33t-35 88h51q6 -31 23.5 -47t47.5 -16z" />
    <glyph glyph-name="uni1E2B" unicode="&#x1e2b;" horiz-adv-x="563" 
d="M297 442q-30 0 -63.5 -12.5t-62.5 -33.5v-396h-96v724h96v-253q41 29 80 42.5t80 13.5q79 0 120 -44.5t41 -129.5v-353h-95v332q0 54 -25.5 82t-74.5 28zM283 -112q30 0 47.5 15.5t23.5 47.5h51q-2 -55 -35.5 -88t-86.5 -33q-54 0 -87 33t-35 88h51q6 -31 23.5 -47
t47.5 -16z" />
    <glyph glyph-name="uni1E32" unicode="&#x1e32;" horiz-adv-x="641" 
d="M628 0h-126l-299 334h-14v-334h-101v700h101v-316h15l291 316h126l-318 -339zM369 -45v-88h-80v88h80z" />
    <glyph glyph-name="uni1E33" unicode="&#x1e33;" horiz-adv-x="514" 
d="M502 0h-116l-212 259h-3v-259h-96v724h96v-444h2l208 238h115l-223 -248zM308 -45v-88h-80v88h80z" />
    <glyph glyph-name="uni1E34" unicode="&#x1e34;" horiz-adv-x="641" 
d="M628 0h-126l-299 334h-14v-334h-101v700h101v-316h15l291 316h126l-318 -339zM455 -55v-53h-252v53h252z" />
    <glyph glyph-name="uni1E35" unicode="&#x1e35;" horiz-adv-x="514" 
d="M502 0h-116l-212 259h-3v-259h-96v724h96v-444h2l208 238h115l-223 -248zM394 -55v-53h-252v53h252z" />
    <glyph glyph-name="uni1E36" unicode="&#x1e36;" horiz-adv-x="548" 
d="M519 91v-91h-431v700h101v-609h330zM340 -49v-88h-80v88h80z" />
    <glyph glyph-name="uni1E37" unicode="&#x1e37;" horiz-adv-x="249" 
d="M172 724v-724h-95v724h95zM165 -49v-88h-80v88h80z" />
    <glyph glyph-name="uni1E38" unicode="&#x1e38;" horiz-adv-x="548" 
d="M519 91v-91h-431v700h101v-609h330zM265 811v-56h-252v56h252zM340 -49v-88h-80v88h80z" />
    <glyph glyph-name="uni1E39" unicode="&#x1e39;" horiz-adv-x="249" 
d="M172 724v-724h-95v724h95zM236 842v-53h-222v53h222zM165 -49v-88h-80v88h80z" />
    <glyph glyph-name="uni1E3A" unicode="&#x1e3a;" horiz-adv-x="548" 
d="M519 91v-91h-431v700h101v-609h330zM426 -55v-53h-252v53h252z" />
    <glyph glyph-name="uni1E3B" unicode="&#x1e3b;" horiz-adv-x="249" 
d="M172 724v-724h-95v724h95zM236 -55v-53h-222v53h222z" />
    <glyph glyph-name="uni1E3C" unicode="&#x1e3c;" horiz-adv-x="548" 
d="M519 91v-91h-431v700h101v-609h330zM368 -167l-68 66l-69 -66h-61l93 118h74l93 -118h-62z" />
    <glyph glyph-name="uni1E3D" unicode="&#x1e3d;" horiz-adv-x="249" 
d="M172 724v-724h-95v724h95zM193 -167l-68 66l-69 -66h-61l93 118h74l93 -118h-62z" />
    <glyph glyph-name="uni1E3E" unicode="&#x1e3e;" horiz-adv-x="916" 
d="M842 0h-100l-26 580l-211 -581h-98l-210 579l-27 -578h-96l36 700h138l209 -578l209 578h141zM621 843l-143 -98h-81l97 98h127z" />
    <glyph glyph-name="uni1E3F" unicode="&#x1e3f;" horiz-adv-x="874" 
d="M804 354v-354h-96v333q0 54 -25.5 81.5t-74.5 27.5q-28 0 -61.5 -13t-67.5 -37q4 -11 6 -23.5t2 -25.5v-343h-95v333q0 54 -25 81.5t-73 27.5q-29 0 -61.5 -12t-61.5 -34v-396h-96v518h74l16 -51q44 32 83.5 46t80.5 14q47 0 80.5 -17t52.5 -50q49 35 93 51t87 16
q78 0 120 -44.5t42 -128.5zM598 703l-144 -115h-67l93 115h118z" />
    <glyph glyph-name="uni1E40" unicode="&#x1e40;" horiz-adv-x="916" 
d="M842 0h-100l-26 580l-211 -581h-98l-210 579l-27 -578h-96l36 700h138l209 -578l209 578h141zM499 833v-88h-84v88h84z" />
    <glyph glyph-name="uni1E41" unicode="&#x1e41;" horiz-adv-x="874" 
d="M804 354v-354h-96v333q0 54 -25.5 81.5t-74.5 27.5q-28 0 -61.5 -13t-67.5 -37q4 -11 6 -23.5t2 -25.5v-343h-95v333q0 54 -25 81.5t-73 27.5q-29 0 -61.5 -12t-61.5 -34v-396h-96v518h74l16 -51q44 32 83.5 46t80.5 14q47 0 80.5 -17t52.5 -50q49 35 93 51t87 16
q78 0 120 -44.5t42 -128.5zM480 682v-88h-80v88h80z" />
    <glyph glyph-name="uni1E42" unicode="&#x1e42;" horiz-adv-x="916" 
d="M842 0h-100l-26 580l-211 -581h-98l-210 579l-27 -578h-96l36 700h138l209 -578l209 578h141zM496 -49v-88h-80v88h80z" />
    <glyph glyph-name="uni1E43" unicode="&#x1e43;" horiz-adv-x="874" 
d="M804 354v-354h-96v333q0 54 -25.5 81.5t-74.5 27.5q-28 0 -61.5 -13t-67.5 -37q4 -11 6 -23.5t2 -25.5v-343h-95v333q0 54 -25 81.5t-73 27.5q-29 0 -61.5 -12t-61.5 -34v-396h-96v518h74l16 -51q44 32 83.5 46t80.5 14q47 0 80.5 -17t52.5 -50q49 35 93 51t87 16
q78 0 120 -44.5t42 -128.5zM480 -49v-88h-80v88h80z" />
    <glyph glyph-name="uni1E44" unicode="&#x1e44;" horiz-adv-x="716" 
d="M519 0l-334 547v-547h-97v700h114l329 -541v541h97v-700h-109zM408 833v-88h-84v88h84z" />
    <glyph glyph-name="uni1E45" unicode="&#x1e45;" horiz-adv-x="563" 
d="M297 442q-30 0 -63.5 -12.5t-62.5 -33.5v-396h-96v518h74l16 -51q44 32 84 46t82 14q79 0 120 -44.5t41 -129.5v-353h-95v332q0 54 -25.5 82t-74.5 28zM322 684v-88h-80v88h80z" />
    <glyph glyph-name="uni1E46" unicode="&#x1e46;" horiz-adv-x="716" 
d="M519 0l-334 547v-547h-97v700h114l329 -541v541h97v-700h-109zM393 -45v-88h-80v88h80z" />
    <glyph glyph-name="uni1E47" unicode="&#x1e47;" horiz-adv-x="563" 
d="M297 442q-30 0 -63.5 -12.5t-62.5 -33.5v-396h-96v518h74l16 -51q44 32 84 46t82 14q79 0 120 -44.5t41 -129.5v-353h-95v332q0 54 -25.5 82t-74.5 28zM323 -45v-88h-80v88h80z" />
    <glyph glyph-name="uni1E48" unicode="&#x1e48;" horiz-adv-x="716" 
d="M519 0l-334 547v-547h-97v700h114l329 -541v541h97v-700h-109zM479 -55v-53h-252v53h252z" />
    <glyph glyph-name="uni1E49" unicode="&#x1e49;" horiz-adv-x="563" 
d="M297 442q-30 0 -63.5 -12.5t-62.5 -33.5v-396h-96v518h74l16 -51q44 32 84 46t82 14q79 0 120 -44.5t41 -129.5v-353h-95v332q0 54 -25.5 82t-74.5 28zM409 -55v-53h-252v53h252z" />
    <glyph glyph-name="uni1E4A" unicode="&#x1e4a;" horiz-adv-x="716" 
d="M519 0l-334 547v-547h-97v700h114l329 -541v541h97v-700h-109zM421 -163l-68 66l-69 -66h-61l93 118h74l93 -118h-62z" />
    <glyph glyph-name="uni1E4B" unicode="&#x1e4b;" horiz-adv-x="563" 
d="M297 442q-30 0 -63.5 -12.5t-62.5 -33.5v-396h-96v518h74l16 -51q44 32 84 46t82 14q79 0 120 -44.5t41 -129.5v-353h-95v332q0 54 -25.5 82t-74.5 28zM351 -163l-68 66l-69 -66h-61l93 118h74l93 -118h-62z" />
    <glyph glyph-name="uni1E58" unicode="&#x1e58;" horiz-adv-x="666" 
d="M189 611v-266h107q87 0 138.5 38.5t51.5 104.5q0 61 -40 92t-118 31h-139zM261 257h-72v-257h-101v700h246q125 0 190.5 -51t65.5 -148q0 -80 -49 -133.5t-141 -77.5q31 -12 53 -31.5t49 -59.5l151 -199h-123l-129 178q-31 44 -62 61.5t-78 17.5zM366 837v-88h-84v88h84z
" />
    <glyph glyph-name="uni1E59" unicode="&#x1e59;" horiz-adv-x="380" 
d="M171 357v-357h-96v518h72l18 -86q39 48 85 70.5t101 21.5v-97q-50 -1 -95 -18.5t-85 -51.5zM245 681v-88h-80v88h80z" />
    <glyph glyph-name="uni1E5A" unicode="&#x1e5a;" horiz-adv-x="666" 
d="M189 611v-266h107q87 0 138.5 38.5t51.5 104.5q0 61 -40 92t-118 31h-139zM261 257h-72v-257h-101v700h246q125 0 190.5 -51t65.5 -148q0 -80 -49 -133.5t-141 -77.5q31 -12 53 -31.5t49 -59.5l151 -199h-123l-129 178q-31 44 -62 61.5t-78 17.5zM378 -45v-88h-80v88h80z
" />
    <glyph glyph-name="uni1E5B" unicode="&#x1e5b;" horiz-adv-x="380" 
d="M171 357v-357h-96v518h72l18 -86q39 48 85 70.5t101 21.5v-97q-50 -1 -95 -18.5t-85 -51.5zM163 -49v-88h-80v88h80z" />
    <glyph glyph-name="uni1E5C" unicode="&#x1e5c;" horiz-adv-x="666" 
d="M189 611v-266h107q87 0 138.5 38.5t51.5 104.5q0 61 -40 92t-118 31h-139zM261 257h-72v-257h-101v700h246q125 0 190.5 -51t65.5 -148q0 -80 -49 -133.5t-141 -77.5q31 -12 53 -31.5t49 -59.5l151 -199h-123l-129 178q-31 44 -62 61.5t-78 17.5zM467 811v-56h-286v56
h286zM378 -45v-88h-80v88h80z" />
    <glyph glyph-name="uni1E5D" unicode="&#x1e5d;" horiz-adv-x="380" 
d="M171 357v-357h-96v518h72l18 -86q39 48 85 70.5t101 21.5v-97q-50 -1 -95 -18.5t-85 -51.5zM316 651v-53h-222v53h222zM163 -49v-88h-80v88h80z" />
    <glyph glyph-name="uni1E5E" unicode="&#x1e5e;" horiz-adv-x="666" 
d="M189 611v-266h107q87 0 138.5 38.5t51.5 104.5q0 61 -40 92t-118 31h-139zM261 257h-72v-257h-101v700h246q125 0 190.5 -51t65.5 -148q0 -80 -49 -133.5t-141 -77.5q31 -12 53 -31.5t49 -59.5l151 -199h-123l-129 178q-31 44 -62 61.5t-78 17.5zM464 -55v-53h-252v53
h252z" />
    <glyph glyph-name="uni1E5F" unicode="&#x1e5f;" horiz-adv-x="380" 
d="M171 357v-357h-96v518h72l18 -86q39 48 85 70.5t101 21.5v-97q-50 -1 -95 -18.5t-85 -51.5zM234 -55v-53h-222v53h222z" />
    <glyph glyph-name="uni1E62" unicode="&#x1e62;" horiz-adv-x="606" 
d="M329 406q128 -37 178.5 -84t50.5 -127q0 -96 -68.5 -150t-189.5 -54q-68 0 -134 16t-128 48l29 87q57 -30 118.5 -46t119.5 -16q69 0 110.5 29t41.5 77q0 46 -35.5 74t-125.5 57q-126 36 -176.5 81t-50.5 121q0 87 64 138.5t172 51.5q58 0 113 -12t109 -37l-29 -87
q-50 24 -100 35.5t-100 11.5q-58 0 -93 -25.5t-35 -67.5q0 -41 35.5 -67.5t123.5 -53.5zM346 -56v-88h-80v88h80z" />
    <glyph glyph-name="uni1E63" unicode="&#x1e63;" horiz-adv-x="480" 
d="M265 303q96 -29 134 -64t38 -97q0 -71 -51.5 -111.5t-141.5 -40.5q-54 0 -108.5 13.5t-100.5 38.5l27 79q44 -24 91.5 -37.5t91.5 -13.5q46 0 73 18.5t27 49.5q0 29 -25.5 47.5t-90.5 37.5q-97 27 -134 62t-37 95q0 67 49.5 107t133.5 40q46 0 90 -10.5t86 -30.5l-27 -79
q-38 20 -77 30.5t-75 10.5q-39 0 -63 -17t-24 -45t23.5 -45t90.5 -38zM284 -52v-88h-80v88h80z" />
    <glyph glyph-name="uni1E6C" unicode="&#x1e6c;" horiz-adv-x="620" 
d="M361 609v-609h-102v609h-232v91h565v-91h-231zM350 -49v-88h-80v88h80z" />
    <glyph glyph-name="uni1E6D" unicode="&#x1e6d;" horiz-adv-x="395" 
d="M265 -8q-80 0 -119.5 39.5t-39.5 118.5v288h-80v80h80v149h95v-149h154v-80h-154v-274q0 -44 22.5 -67t64.5 -23q18 0 34 2.5t33 7.5v-79q-20 -6 -42.5 -9.5t-47.5 -3.5zM274 -52v-88h-80v88h80z" />
    <glyph glyph-name="uni1E6E" unicode="&#x1e6e;" horiz-adv-x="620" 
d="M361 609v-609h-102v609h-232v91h565v-91h-231zM436 -55v-53h-252v53h252z" />
    <glyph glyph-name="uni1E6F" unicode="&#x1e6f;" horiz-adv-x="395" 
d="M265 -8q-80 0 -119.5 39.5t-39.5 118.5v288h-80v80h80v149h95v-149h154v-80h-154v-274q0 -44 22.5 -67t64.5 -23q18 0 34 2.5t33 7.5v-79q-20 -6 -42.5 -9.5t-47.5 -3.5zM345 -58v-53h-222v53h222z" />
    <glyph glyph-name="uni1E70" unicode="&#x1e70;" horiz-adv-x="620" 
d="M361 609v-609h-102v609h-232v91h565v-91h-231zM378 -167l-68 66l-69 -66h-61l93 118h74l93 -118h-62z" />
    <glyph glyph-name="uni1E71" unicode="&#x1e71;" horiz-adv-x="395" 
d="M265 -8q-80 0 -119.5 39.5t-39.5 118.5v288h-80v80h80v149h95v-149h154v-80h-154v-274q0 -44 22.5 -67t64.5 -23q18 0 34 2.5t33 7.5v-79q-20 -6 -42.5 -9.5t-47.5 -3.5zM302 -170l-68 66l-69 -66h-61l93 118h74l93 -118h-62z" />
    <glyph glyph-name="uni1E7E" unicode="&#x1e7e;" horiz-adv-x="683" 
d="M652 700l-257 -708h-107l-258 708h111l202 -588l201 588h108zM382 -55v-88h-80v88h80z" />
    <glyph glyph-name="uni1E7F" unicode="&#x1e7f;" horiz-adv-x="518" 
d="M495 518l-186 -525h-100l-186 525h98l140 -430l138 430h96zM299 -52v-88h-80v88h80z" />
    <glyph glyph-name="Wgrave" unicode="&#x1e80;" horiz-adv-x="1026" 
d="M799 -6h-112l-174 570l-174 -570h-111l-194 706h108l146 -576l172 576h111l171 -576l146 576h104zM573 749h-81l-143 98h127z" />
    <glyph glyph-name="wgrave" unicode="&#x1e81;" horiz-adv-x="800" 
d="M623 -5h-99l-125 409l-124 -409h-99l-149 523h96l106 -416l123 416h97l124 -415l106 415h94zM453 587h-67l-144 115h118z" />
    <glyph glyph-name="Wacute" unicode="&#x1e82;" horiz-adv-x="1026" 
d="M799 -6h-112l-174 570l-174 -570h-111l-194 706h108l146 -576l172 576h111l171 -576l146 576h104zM677 847l-143 -98h-81l97 98h127z" />
    <glyph glyph-name="wacute" unicode="&#x1e83;" horiz-adv-x="800" 
d="M623 -5h-99l-125 409l-124 -409h-99l-149 523h96l106 -416l123 416h97l124 -415l106 415h94zM558 702l-144 -115h-67l93 115h118z" />
    <glyph glyph-name="Wdieresis" unicode="&#x1e84;" horiz-adv-x="1026" 
d="M799 -6h-112l-174 570l-174 -570h-111l-194 706h108l146 -576l172 576h111l171 -576l146 576h104zM471 837v-88h-81v88h81zM636 837v-88h-81v88h81z" />
    <glyph glyph-name="wdieresis" unicode="&#x1e85;" horiz-adv-x="800" 
d="M623 -5h-99l-125 409l-124 -409h-99l-149 523h96l106 -416l123 416h97l124 -415l106 415h94zM361 681v-88h-78v88h78zM517 681v-88h-78v88h78z" />
    <glyph glyph-name="uni1E8C" unicode="&#x1e8c;" horiz-adv-x="651" 
d="M621 0h-115l-181 287l-182 -287h-114l233 361l-221 339h114l171 -268l171 268h113l-222 -339zM284 837v-88h-81v88h81zM449 837v-88h-81v88h81z" />
    <glyph glyph-name="uni1E8D" unicode="&#x1e8d;" horiz-adv-x="507" 
d="M482 0h-102l-128 204l-127 -204h-100l171 265l-163 253h102l119 -192l120 192h100l-164 -252zM215 681v-88h-78v88h78zM371 681v-88h-78v88h78z" />
    <glyph glyph-name="uni1E8E" unicode="&#x1e8e;" horiz-adv-x="642" 
d="M372 274v-274h-102v274l-252 426h112l192 -335l191 335h111zM363 833v-88h-84v88h84z" />
    <glyph glyph-name="uni1E8F" unicode="&#x1e8f;" horiz-adv-x="516" 
d="M69 -178l-22 77q57 15 94.5 41.5t65.5 69.5l-179 508h98l137 -424l134 424h97l-163 -461q-39 -110 -92.5 -158t-169.5 -77zM301 677v-88h-80v88h80z" />
    <glyph glyph-name="uni1E90" unicode="&#x1e90;" horiz-adv-x="609" 
d="M562 90v-90h-519v84l395 526h-376v90h500v-84l-395 -526h395zM370 749l-67 53l-67 -53h-69l94 101h86l94 -101h-71z" />
    <glyph glyph-name="uni1E91" unicode="&#x1e91;" horiz-adv-x="478" 
d="M436 79v-79h-398v74l285 365h-270v79h383v-74l-285 -365h285zM310 587l-68 66l-69 -66h-61l93 118h74l93 -118h-62z" />
    <glyph glyph-name="uni1E92" unicode="&#x1e92;" horiz-adv-x="609" 
d="M562 90v-90h-519v84l395 526h-376v90h500v-84l-395 -526h395zM353 -49v-88h-80v88h80z" />
    <glyph glyph-name="uni1E93" unicode="&#x1e93;" horiz-adv-x="478" 
d="M436 79v-79h-398v74l285 365h-270v79h383v-74l-285 -365h285zM285 -49v-88h-80v88h80z" />
    <glyph glyph-name="uni1E94" unicode="&#x1e94;" horiz-adv-x="609" 
d="M562 90v-90h-519v84l395 526h-376v90h500v-84l-395 -526h395zM439 -55v-53h-252v53h252z" />
    <glyph glyph-name="uni1E95" unicode="&#x1e95;" horiz-adv-x="478" 
d="M436 79v-79h-398v74l285 365h-270v79h383v-74l-285 -365h285zM371 -55v-53h-252v53h252z" />
    <glyph glyph-name="uni1E96" unicode="&#x1e96;" horiz-adv-x="563" 
d="M297 442q-30 0 -63.5 -12.5t-62.5 -33.5v-396h-96v724h96v-253q41 29 80 42.5t80 13.5q79 0 120 -44.5t41 -129.5v-353h-95v332q0 54 -25.5 82t-74.5 28zM409 -55v-53h-252v53h252z" />
    <glyph glyph-name="uni1E9E" unicode="&#x1e9e;" horiz-adv-x="676" 
d="M631 163q0 -78 -59 -126t-155 -48q-39 0 -73 5t-65 16v90q34 -12 65 -17.5t62 -5.5q55 0 88.5 25t33.5 66q0 45 -48 77.5t-160 63.5v63l176 208q-30 21 -65.5 32t-73.5 11q-82 0 -129.5 -51t-47.5 -139v-433h-101v433q0 129 74 203.5t203 74.5q79 0 147 -29t118 -85v-11
l-183 -220q96 -33 144.5 -83.5t48.5 -119.5z" />
    <glyph glyph-name="uni1EA0" unicode="&#x1ea0;" horiz-adv-x="699" 
d="M221 243h256l-128 364zM669 0h-107l-54 155h-318l-54 -155h-106l262 708h116zM390 -45v-88h-80v88h80z" />
    <glyph glyph-name="uni1EA1" unicode="&#x1ea1;" horiz-adv-x="531" 
d="M133 157q0 -41 26 -64t72 -23q33 0 67 13.5t66 39.5v121q-25 2 -42.5 3t-32.5 1q-55 0 -85.5 -7t-49.5 -26q-10 -10 -15.5 -25t-5.5 -33zM390 0l-19 58q-42 -35 -83 -51t-87 -16q-74 0 -117 43t-43 119q0 37 10.5 66t30.5 50q29 29 75.5 41t120.5 12q18 0 39 -1.5
t47 -4.5v36q0 48 -27 71t-83 23q-36 0 -74 -9t-79 -26l-23 76q46 19 93.5 29t95.5 10q99 0 145.5 -41.5t46.5 -130.5v-253l12 -101h-81zM302 -52v-88h-80v88h80z" />
    <glyph glyph-name="uni1EA2" unicode="&#x1ea2;" horiz-adv-x="699" 
d="M221 243h256l-128 364zM669 0h-107l-54 155h-318l-54 -155h-106l262 708h116zM237 834l-10 50q32 7 62 10.5t60 3.5q58 0 89 -15.5t31 -44.5t-31 -49t-106 -40l-13 40q48 15 65 23t17 17t-13.5 13t-43.5 4q-26 0 -53 -3t-54 -9z" />
    <glyph glyph-name="uni1EA3" unicode="&#x1ea3;" horiz-adv-x="531" 
d="M133 157q0 -41 26 -64t72 -23q33 0 67 13.5t66 39.5v121q-25 2 -42.5 3t-32.5 1q-55 0 -85.5 -7t-49.5 -26q-10 -10 -15.5 -25t-5.5 -33zM390 0l-19 58q-42 -35 -83 -51t-87 -16q-74 0 -117 43t-43 119q0 37 10.5 66t30.5 50q29 29 75.5 41t120.5 12q18 0 39 -1.5
t47 -4.5v36q0 48 -27 71t-83 23q-36 0 -74 -9t-79 -26l-23 76q46 19 93.5 29t95.5 10q99 0 145.5 -41.5t46.5 -130.5v-253l12 -101h-81zM168 676l-12 50q27 9 54 13t55 4q51 0 80 -17t29 -46t-27.5 -50.5t-96.5 -46.5l-15 41q43 17 58.5 27t15.5 20q0 9 -12.5 14t-36.5 5
q-22 0 -45.5 -3.5t-46.5 -10.5z" />
    <glyph glyph-name="uni1EA4" unicode="&#x1ea4;" horiz-adv-x="699" 
d="M221 243h256l-128 364zM669 0h-107l-54 155h-318l-54 -155h-106l262 708h116zM660 925l-132 -86h-73l85 86h120zM418 755l-70 45l-69 -45h-69l96 93h86l96 -93h-70z" />
    <glyph glyph-name="uni1EA5" unicode="&#x1ea5;" horiz-adv-x="531" 
d="M133 157q0 -41 26 -64t72 -23q33 0 67 13.5t66 39.5v121q-25 2 -42.5 3t-32.5 1q-55 0 -85.5 -7t-49.5 -26q-10 -10 -15.5 -25t-5.5 -33zM390 0l-19 58q-42 -35 -83 -51t-87 -16q-74 0 -117 43t-43 119q0 37 10.5 66t30.5 50q29 29 75.5 41t120.5 12q18 0 39 -1.5
t47 -4.5v36q0 48 -27 71t-83 23q-36 0 -74 -9t-79 -26l-23 76q46 19 93.5 29t95.5 10q99 0 145.5 -41.5t46.5 -130.5v-253l12 -101h-81zM557 781l-128 -98h-60l78 98h110zM337 590l-71 57l-71 -57h-61l95 107h74l95 -107h-61z" />
    <glyph glyph-name="uni1EA6" unicode="&#x1ea6;" horiz-adv-x="699" 
d="M221 243h256l-128 364zM669 0h-107l-54 155h-318l-54 -155h-106l262 708h116zM488 925l86 -86h-73l-132 86h119zM418 755l-70 45l-69 -45h-69l96 93h86l96 -93h-70z" />
    <glyph glyph-name="uni1EA7" unicode="&#x1ea7;" horiz-adv-x="531" 
d="M133 157q0 -41 26 -64t72 -23q33 0 67 13.5t66 39.5v121q-25 2 -42.5 3t-32.5 1q-55 0 -85.5 -7t-49.5 -26q-10 -10 -15.5 -25t-5.5 -33zM390 0l-19 58q-42 -35 -83 -51t-87 -16q-74 0 -117 43t-43 119q0 37 10.5 66t30.5 50q29 29 75.5 41t120.5 12q18 0 39 -1.5
t47 -4.5v36q0 48 -27 71t-83 23q-36 0 -74 -9t-79 -26l-23 76q46 19 93.5 29t95.5 10q99 0 145.5 -41.5t46.5 -130.5v-253l12 -101h-81zM470 683h-59l-129 98h110zM337 590l-71 57l-71 -57h-61l95 107h74l95 -107h-61z" />
    <glyph glyph-name="uni1EA8" unicode="&#x1ea8;" horiz-adv-x="699" 
d="M221 243h256l-128 364zM669 0h-107l-54 155h-318l-54 -155h-106l262 708h116zM410 899l-9 47q22 6 44.5 9t47.5 3q45 0 70.5 -15t25.5 -41t-25.5 -45t-84.5 -37l-12 39q35 11 49 18.5t14 15.5t-10.5 12t-31.5 4q-18 0 -37.5 -2.5t-40.5 -7.5zM418 755l-70 45l-69 -45h-69
l96 93h86l96 -93h-70z" />
    <glyph glyph-name="uni1EA9" unicode="&#x1ea9;" horiz-adv-x="531" 
d="M133 157q0 -41 26 -64t72 -23q33 0 67 13.5t66 39.5v121q-25 2 -42.5 3t-32.5 1q-55 0 -85.5 -7t-49.5 -26q-10 -10 -15.5 -25t-5.5 -33zM390 0l-19 58q-42 -35 -83 -51t-87 -16q-74 0 -117 43t-43 119q0 37 10.5 66t30.5 50q29 29 75.5 41t120.5 12q18 0 39 -1.5
t47 -4.5v36q0 48 -27 71t-83 23q-36 0 -74 -9t-79 -26l-23 76q46 19 93.5 29t95.5 10q99 0 145.5 -41.5t46.5 -130.5v-253l12 -101h-81zM329 748l-11 46q22 7 43 10t45 3q41 0 64.5 -15.5t23.5 -41.5t-23 -45.5t-78 -40.5l-15 36q33 14 46.5 23t13.5 18t-10 13.5t-29 4.5
q-17 0 -34.5 -3t-35.5 -8zM337 590l-71 57l-71 -57h-61l95 107h74l95 -107h-61z" />
    <glyph glyph-name="uni1EAA" unicode="&#x1eaa;" horiz-adv-x="699" 
d="M221 243h256l-128 364zM669 0h-107l-54 155h-318l-54 -155h-106l262 708h116zM301 913q-11 0 -19 -10t-19 -35l-47 16q17 46 35 66.5t43 20.5q14 0 26.5 -4.5t37.5 -18.5q20 -12 30 -16t19 -4q11 0 19.5 9.5t19.5 34.5l46 -16q-17 -46 -35 -66.5t-43 -20.5
q-14 0 -26.5 4.5t-36.5 18.5t-33 17.5t-17 3.5zM419 755l-71 42l-70 -42h-70l98 89h86l98 -89h-71z" />
    <glyph glyph-name="uni1EAB" unicode="&#x1eab;" horiz-adv-x="531" 
d="M133 157q0 -41 26 -64t72 -23q33 0 67 13.5t66 39.5v121q-25 2 -42.5 3t-32.5 1q-55 0 -85.5 -7t-49.5 -26q-10 -10 -15.5 -25t-5.5 -33zM390 0l-19 58q-42 -35 -83 -51t-87 -16q-74 0 -117 43t-43 119q0 37 10.5 66t30.5 50q29 29 75.5 41t120.5 12q18 0 39 -1.5
t47 -4.5v36q0 48 -27 71t-83 23q-36 0 -74 -9t-79 -26l-23 76q46 19 93.5 29t95.5 10q99 0 145.5 -41.5t46.5 -130.5v-253l12 -101h-81zM221 761q-11 0 -19.5 -10t-18.5 -33l-44 15q17 45 35 65t41 20q11 0 21 -3.5t39 -19.5q22 -12 30.5 -15.5t16.5 -3.5q11 0 19.5 9.5
t19.5 33.5l44 -15q-18 -45 -35.5 -65t-40.5 -20q-12 0 -22.5 4t-37.5 19q-22 12 -31 15.5t-17 3.5zM338 590l-72 52l-73 -52h-60l96 102h74l96 -102h-61z" />
    <glyph glyph-name="uni1EAC" unicode="&#x1eac;" horiz-adv-x="699" 
d="M221 243h256l-128 364zM669 0h-107l-54 155h-318l-54 -155h-106l262 708h116zM415 755l-67 53l-67 -53h-69l94 101h86l94 -101h-71zM390 -45v-88h-80v88h80z" />
    <glyph glyph-name="uni1EAD" unicode="&#x1ead;" horiz-adv-x="531" 
d="M133 157q0 -41 26 -64t72 -23q33 0 67 13.5t66 39.5v121q-25 2 -42.5 3t-32.5 1q-55 0 -85.5 -7t-49.5 -26q-10 -10 -15.5 -25t-5.5 -33zM390 0l-19 58q-42 -35 -83 -51t-87 -16q-74 0 -117 43t-43 119q0 37 10.5 66t30.5 50q29 29 75.5 41t120.5 12q18 0 39 -1.5
t47 -4.5v36q0 48 -27 71t-83 23q-36 0 -74 -9t-79 -26l-23 76q46 19 93.5 29t95.5 10q99 0 145.5 -41.5t46.5 -130.5v-253l12 -101h-81zM334 590l-68 66l-69 -66h-61l93 118h74l93 -118h-62zM302 -52v-88h-80v88h80z" />
    <glyph glyph-name="uni1EAE" unicode="&#x1eae;" horiz-adv-x="699" 
d="M221 243h256l-128 364zM669 0h-107l-54 155h-318l-54 -155h-106l262 708h116zM508 958l-132 -85h-81l86 85h127zM349 809q29 0 48 11t26 32h56q-6 -46 -41 -73t-89 -27t-89 27t-41 73h56q7 -20 26.5 -31.5t47.5 -11.5z" />
    <glyph glyph-name="uni1EAF" unicode="&#x1eaf;" horiz-adv-x="531" 
d="M133 157q0 -41 26 -64t72 -23q33 0 67 13.5t66 39.5v121q-25 2 -42.5 3t-32.5 1q-55 0 -85.5 -7t-49.5 -26q-10 -10 -15.5 -25t-5.5 -33zM390 0l-19 58q-42 -35 -83 -51t-87 -16q-74 0 -117 43t-43 119q0 37 10.5 66t30.5 50q29 29 75.5 41t120.5 12q18 0 39 -1.5
t47 -4.5v36q0 48 -27 71t-83 23q-36 0 -74 -9t-79 -26l-23 76q46 19 93.5 29t95.5 10q99 0 145.5 -41.5t46.5 -130.5v-253l12 -101h-81zM414 811l-128 -97h-67l78 97h117zM266 643q29 0 47.5 13.5t24.5 38.5h51q-2 -49 -35.5 -78.5t-87.5 -29.5t-87.5 29.5t-35.5 78.5h51
q6 -25 24.5 -38.5t47.5 -13.5z" />
    <glyph glyph-name="uni1EB0" unicode="&#x1eb0;" horiz-adv-x="699" 
d="M221 243h256l-128 364zM669 0h-107l-54 155h-318l-54 -155h-106l262 708h116zM317 958l86 -85h-81l-132 85h127zM349 809q29 0 48 11t26 32h56q-6 -46 -41 -73t-89 -27t-89 27t-41 73h56q7 -20 26.5 -31.5t47.5 -11.5z" />
    <glyph glyph-name="uni1EB1" unicode="&#x1eb1;" horiz-adv-x="531" 
d="M133 157q0 -41 26 -64t72 -23q33 0 67 13.5t66 39.5v121q-25 2 -42.5 3t-32.5 1q-55 0 -85.5 -7t-49.5 -26q-10 -10 -15.5 -25t-5.5 -33zM390 0l-19 58q-42 -35 -83 -51t-87 -16q-74 0 -117 43t-43 119q0 37 10.5 66t30.5 50q29 29 75.5 41t120.5 12q18 0 39 -1.5
t47 -4.5v36q0 48 -27 71t-83 23q-36 0 -74 -9t-79 -26l-23 76q46 19 93.5 29t95.5 10q99 0 145.5 -41.5t46.5 -130.5v-253l12 -101h-81zM313 714h-67l-128 97h117zM266 643q29 0 47.5 13.5t24.5 38.5h51q-2 -49 -35.5 -78.5t-87.5 -29.5t-87.5 29.5t-35.5 78.5h51
q6 -25 24.5 -38.5t47.5 -13.5z" />
    <glyph glyph-name="uni1EB2" unicode="&#x1eb2;" horiz-adv-x="699" 
d="M221 243h256l-128 364zM669 0h-107l-54 155h-318l-54 -155h-106l262 708h116zM251 935l-10 49q27 6 53.5 9t54.5 3q52 0 80.5 -14.5t28.5 -40.5q0 -27 -29 -46t-96 -38l-12 39q40 13 55 20.5t15 15.5t-11.5 11.5t-35.5 3.5q-23 0 -46.5 -3t-46.5 -9zM349 809q29 0 48 11
t26 32h56q-6 -46 -41 -73t-89 -27t-89 27t-41 73h56q7 -20 26.5 -31.5t47.5 -11.5z" />
    <glyph glyph-name="uni1EB3" unicode="&#x1eb3;" horiz-adv-x="531" 
d="M133 157q0 -41 26 -64t72 -23q33 0 67 13.5t66 39.5v121q-25 2 -42.5 3t-32.5 1q-55 0 -85.5 -7t-49.5 -26q-10 -10 -15.5 -25t-5.5 -33zM390 0l-19 58q-42 -35 -83 -51t-87 -16q-74 0 -117 43t-43 119q0 37 10.5 66t30.5 50q29 29 75.5 41t120.5 12q18 0 39 -1.5
t47 -4.5v36q0 48 -27 71t-83 23q-36 0 -74 -9t-79 -26l-23 76q46 19 93.5 29t95.5 10q99 0 145.5 -41.5t46.5 -130.5v-253l12 -101h-81zM182 780l-12 47q24 7 46.5 10t47.5 3q45 0 71 -15t26 -41q0 -27 -25 -46.5t-85 -41.5l-14 37q35 16 48 24.5t13 16.5t-10 12.5t-30 4.5
q-18 0 -37.5 -3t-38.5 -8zM266 643q29 0 47.5 13.5t24.5 38.5h51q-2 -49 -35.5 -78.5t-87.5 -29.5t-87.5 29.5t-35.5 78.5h51q6 -25 24.5 -38.5t47.5 -13.5z" />
    <glyph glyph-name="uni1EB4" unicode="&#x1eb4;" horiz-adv-x="699" 
d="M221 243h256l-128 364zM669 0h-107l-54 155h-318l-54 -155h-106l262 708h116zM298 922q-11 0 -19.5 -9.5t-19.5 -35.5l-46 16q17 46 35 66.5t43 20.5q14 0 26.5 -4.5t36.5 -18.5q21 -12 31 -16t19 -4q11 0 19.5 9.5t18.5 34.5l47 -16q-17 -46 -35 -66.5t-43 -20.5
q-14 0 -27 5t-37 19q-24 13 -32.5 16.5t-16.5 3.5zM349 809q29 0 48 11t26 32h56q-6 -46 -41 -73t-89 -27t-89 27t-41 73h56q7 -20 26.5 -31.5t47.5 -11.5z" />
    <glyph glyph-name="uni1EB5" unicode="&#x1eb5;" horiz-adv-x="531" 
d="M133 157q0 -41 26 -64t72 -23q33 0 67 13.5t66 39.5v121q-25 2 -42.5 3t-32.5 1q-55 0 -85.5 -7t-49.5 -26q-10 -10 -15.5 -25t-5.5 -33zM390 0l-19 58q-42 -35 -83 -51t-87 -16q-74 0 -117 43t-43 119q0 37 10.5 66t30.5 50q29 29 75.5 41t120.5 12q18 0 39 -1.5
t47 -4.5v36q0 48 -27 71t-83 23q-36 0 -74 -9t-79 -26l-23 76q46 19 93.5 29t95.5 10q99 0 145.5 -41.5t46.5 -130.5v-253l12 -101h-81zM218 767q-11 0 -19 -9t-20 -34l-43 15q17 45 34.5 65t40.5 20q11 0 21 -3.5t39 -19.5q24 -13 32 -16t16 -3q11 0 19.5 10t18.5 33
l44 -15q-17 -45 -35 -65t-41 -20q-12 0 -23.5 4t-36.5 19q-22 12 -30.5 15.5t-16.5 3.5zM266 643q29 0 47.5 13.5t24.5 38.5h51q-2 -49 -35.5 -78.5t-87.5 -29.5t-87.5 29.5t-35.5 78.5h51q6 -25 24.5 -38.5t47.5 -13.5z" />
    <glyph glyph-name="uni1EB6" unicode="&#x1eb6;" horiz-adv-x="699" 
d="M221 243h256l-128 364zM669 0h-107l-54 155h-318l-54 -155h-106l262 708h116zM349 810q29 0 47 13.5t25 40.5h56q-5 -51 -39.5 -81.5t-88.5 -30.5t-88.5 30t-39.5 82h56q7 -26 25.5 -40t46.5 -14zM390 -45v-88h-80v88h80z" />
    <glyph glyph-name="uni1EB7" unicode="&#x1eb7;" horiz-adv-x="531" 
d="M133 157q0 -41 26 -64t72 -23q33 0 67 13.5t66 39.5v121q-25 2 -42.5 3t-32.5 1q-55 0 -85.5 -7t-49.5 -26q-10 -10 -15.5 -25t-5.5 -33zM390 0l-19 58q-42 -35 -83 -51t-87 -16q-74 0 -117 43t-43 119q0 37 10.5 66t30.5 50q29 29 75.5 41t120.5 12q18 0 39 -1.5
t47 -4.5v36q0 48 -27 71t-83 23q-36 0 -74 -9t-79 -26l-23 76q46 19 93.5 29t95.5 10q99 0 145.5 -41.5t46.5 -130.5v-253l12 -101h-81zM266 645q30 0 47.5 15.5t23.5 47.5h51q-2 -55 -35.5 -88t-86.5 -33q-54 0 -87 33t-35 88h51q6 -31 23.5 -47t47.5 -16zM302 -52v-88h-80
v88h80z" />
    <glyph glyph-name="uni1EB8" unicode="&#x1eb8;" horiz-adv-x="618" 
d="M565 90v-90h-477v700h471v-90h-370v-206h330v-90h-330v-224h376zM375 -49v-88h-80v88h80z" />
    <glyph glyph-name="uni1EB9" unicode="&#x1eb9;" horiz-adv-x="521" 
d="M283 -10q-111 0 -175 71t-64 196q0 121 61.5 197t159.5 76q99 0 158 -75t59 -201v-35h-344q6 -69 46 -109.5t103 -40.5q35 0 73 11t74 32l28 -72q-42 -24 -88 -37t-91 -13zM264 452q-52 0 -87 -43t-40 -114h252q-5 73 -38.5 115t-86.5 42zM307 -52v-88h-80v88h80z" />
    <glyph glyph-name="uni1EBA" unicode="&#x1eba;" horiz-adv-x="618" 
d="M565 90v-90h-477v700h471v-90h-370v-206h330v-90h-330v-224h376zM220 828l-10 50q32 7 62 10.5t60 3.5q58 0 89 -15.5t31 -44.5t-31 -49t-106 -40l-13 40q48 15 65 23t17 17t-13.5 13t-43.5 4q-26 0 -53 -3t-54 -9z" />
    <glyph glyph-name="uni1EBB" unicode="&#x1ebb;" horiz-adv-x="521" 
d="M283 -10q-111 0 -175 71t-64 196q0 121 61.5 197t159.5 76q99 0 158 -75t59 -201v-35h-344q6 -69 46 -109.5t103 -40.5q35 0 73 11t74 32l28 -72q-42 -24 -88 -37t-91 -13zM264 452q-52 0 -87 -43t-40 -114h252q-5 73 -38.5 115t-86.5 42zM169 676l-12 50q27 9 54 13
t55 4q51 0 80 -17t29 -46t-27.5 -50.5t-96.5 -46.5l-15 41q43 17 58.5 27t15.5 20q0 9 -12.5 14t-36.5 5q-22 0 -45.5 -3.5t-46.5 -10.5z" />
    <glyph glyph-name="uni1EBC" unicode="&#x1ebc;" horiz-adv-x="618" 
d="M565 90v-90h-477v700h471v-90h-370v-206h330v-90h-330v-224h376zM275 795q-13 0 -23 -11t-22 -38l-50 15q20 51 40 72.5t48 21.5q15 0 30 -5.5t42 -20.5q24 -13 35.5 -17.5t21.5 -4.5q13 0 23 11t22 38l49 -16q-19 -50 -39 -71.5t-48 -21.5q-15 0 -30 5t-43 20
q-25 14 -35.5 18.5t-20.5 4.5z" />
    <glyph glyph-name="uni1EBD" unicode="&#x1ebd;" horiz-adv-x="521" 
d="M283 -10q-111 0 -175 71t-64 196q0 121 61.5 197t159.5 76q99 0 158 -75t59 -201v-35h-344q6 -69 46 -109.5t103 -40.5q35 0 73 11t74 32l28 -72q-42 -24 -88 -37t-91 -13zM264 452q-52 0 -87 -43t-40 -114h252q-5 73 -38.5 115t-86.5 42zM213 637q-12 0 -22 -11.5
t-22 -39.5l-46 15q18 52 38 74.5t47 22.5q13 0 25.5 -4.5t43.5 -22.5q21 -13 32.5 -17.5t21.5 -4.5q13 0 22.5 11t21.5 39l46 -14q-18 -52 -37.5 -74.5t-47.5 -22.5q-14 0 -27.5 5t-41.5 21q-26 15 -35.5 19t-18.5 4z" />
    <glyph glyph-name="uni1EBE" unicode="&#x1ebe;" horiz-adv-x="618" 
d="M565 90v-90h-477v700h471v-90h-370v-206h330v-90h-330v-224h376zM643 919l-132 -86h-73l85 86h120zM401 749l-70 45l-69 -45h-69l96 93h86l96 -93h-70z" />
    <glyph glyph-name="uni1EBF" unicode="&#x1ebf;" horiz-adv-x="521" 
d="M283 -10q-111 0 -175 71t-64 196q0 121 61.5 197t159.5 76q99 0 158 -75t59 -201v-35h-344q6 -69 46 -109.5t103 -40.5q35 0 73 11t74 32l28 -72q-42 -24 -88 -37t-91 -13zM264 452q-52 0 -87 -43t-40 -114h252q-5 73 -38.5 115t-86.5 42zM559 781l-128 -98h-60l78 98
h110zM339 590l-71 57l-71 -57h-61l95 107h74l95 -107h-61z" />
    <glyph glyph-name="uni1EC0" unicode="&#x1ec0;" horiz-adv-x="618" 
d="M565 90v-90h-477v700h471v-90h-370v-206h330v-90h-330v-224h376zM471 919l86 -86h-73l-132 86h119zM401 749l-70 45l-69 -45h-69l96 93h86l96 -93h-70z" />
    <glyph glyph-name="uni1EC1" unicode="&#x1ec1;" horiz-adv-x="521" 
d="M283 -10q-111 0 -175 71t-64 196q0 121 61.5 197t159.5 76q99 0 158 -75t59 -201v-35h-344q6 -69 46 -109.5t103 -40.5q35 0 73 11t74 32l28 -72q-42 -24 -88 -37t-91 -13zM264 452q-52 0 -87 -43t-40 -114h252q-5 73 -38.5 115t-86.5 42zM472 683h-59l-129 98h110z
M339 590l-71 57l-71 -57h-61l95 107h74l95 -107h-61z" />
    <glyph glyph-name="uni1EC2" unicode="&#x1ec2;" horiz-adv-x="618" 
d="M565 90v-90h-477v700h471v-90h-370v-206h330v-90h-330v-224h376zM393 893l-9 47q22 6 44.5 9t47.5 3q45 0 70.5 -15t25.5 -41t-25.5 -45t-84.5 -37l-12 39q35 11 49 18.5t14 15.5t-10.5 12t-31.5 4q-18 0 -37.5 -2.5t-40.5 -7.5zM401 749l-70 45l-69 -45h-69l96 93h86
l96 -93h-70z" />
    <glyph glyph-name="uni1EC3" unicode="&#x1ec3;" horiz-adv-x="521" 
d="M283 -10q-111 0 -175 71t-64 196q0 121 61.5 197t159.5 76q99 0 158 -75t59 -201v-35h-344q6 -69 46 -109.5t103 -40.5q35 0 73 11t74 32l28 -72q-42 -24 -88 -37t-91 -13zM264 452q-52 0 -87 -43t-40 -114h252q-5 73 -38.5 115t-86.5 42zM331 748l-11 46q22 7 43 10
t45 3q41 0 64.5 -15.5t23.5 -41.5t-23 -45.5t-78 -40.5l-15 36q33 14 46.5 23t13.5 18t-10 13.5t-29 4.5q-17 0 -34.5 -3t-35.5 -8zM339 590l-71 57l-71 -57h-61l95 107h74l95 -107h-61z" />
    <glyph glyph-name="uni1EC4" unicode="&#x1ec4;" horiz-adv-x="618" 
d="M565 90v-90h-477v700h471v-90h-370v-206h330v-90h-330v-224h376zM284 907q-11 0 -19 -10t-19 -35l-47 16q17 46 35 66.5t43 20.5q14 0 26.5 -4.5t37.5 -18.5q20 -12 30 -16t19 -4q11 0 19.5 9.5t19.5 34.5l46 -16q-17 -46 -35 -66.5t-43 -20.5q-14 0 -26.5 4.5
t-36.5 18.5t-33 17.5t-17 3.5zM402 749l-71 42l-70 -42h-70l98 89h86l98 -89h-71z" />
    <glyph glyph-name="uni1EC5" unicode="&#x1ec5;" horiz-adv-x="521" 
d="M283 -10q-111 0 -175 71t-64 196q0 121 61.5 197t159.5 76q99 0 158 -75t59 -201v-35h-344q6 -69 46 -109.5t103 -40.5q35 0 73 11t74 32l28 -72q-42 -24 -88 -37t-91 -13zM264 452q-52 0 -87 -43t-40 -114h252q-5 73 -38.5 115t-86.5 42zM223 761q-11 0 -19.5 -10
t-18.5 -33l-44 15q17 45 35 65t41 20q11 0 21 -3.5t39 -19.5q22 -12 30.5 -15.5t16.5 -3.5q11 0 19.5 9.5t19.5 33.5l44 -15q-18 -45 -35.5 -65t-40.5 -20q-12 0 -22.5 4t-37.5 19q-22 12 -31 15.5t-17 3.5zM340 590l-72 52l-73 -52h-60l96 102h74l96 -102h-61z" />
    <glyph glyph-name="uni1EC6" unicode="&#x1ec6;" horiz-adv-x="618" 
d="M565 90v-90h-477v700h471v-90h-370v-206h330v-90h-330v-224h376zM398 749l-67 53l-67 -53h-69l94 101h86l94 -101h-71zM375 -49v-88h-80v88h80z" />
    <glyph glyph-name="uni1EC7" unicode="&#x1ec7;" horiz-adv-x="521" 
d="M283 -10q-111 0 -175 71t-64 196q0 121 61.5 197t159.5 76q99 0 158 -75t59 -201v-35h-344q6 -69 46 -109.5t103 -40.5q35 0 73 11t74 32l28 -72q-42 -24 -88 -37t-91 -13zM264 452q-52 0 -87 -43t-40 -114h252q-5 73 -38.5 115t-86.5 42zM336 590l-68 66l-69 -66h-61
l93 118h74l93 -118h-62zM307 -52v-88h-80v88h80z" />
    <glyph glyph-name="uni1EC8" unicode="&#x1ec8;" horiz-adv-x="284" 
d="M193 700v-700h-102v700h102zM30 828l-10 50q32 7 62 10.5t60 3.5q58 0 89 -15.5t31 -44.5t-31 -49t-106 -40l-13 40q48 15 65 23t17 17t-13.5 13t-43.5 4q-26 0 -53 -3t-54 -9z" />
    <glyph glyph-name="uni1EC9" unicode="&#x1ec9;" horiz-adv-x="249" 
d="M172 518v-518h-95v518h95zM26 673l-12 50q27 9 54 13t55 4q51 0 80 -17t29 -46t-27.5 -50.5t-96.5 -46.5l-15 41q43 17 58.5 27t15.5 20q0 9 -12.5 14t-36.5 5q-22 0 -45.5 -3.5t-46.5 -10.5z" />
    <glyph glyph-name="uni1ECA" unicode="&#x1eca;" horiz-adv-x="284" 
d="M193 700v-700h-102v700h102zM182 -49v-88h-80v88h80z" />
    <glyph glyph-name="uni1ECB" unicode="&#x1ecb;" horiz-adv-x="249" 
d="M176 712v-89h-102v89h102zM172 518v-518h-95v518h95zM165 -49v-88h-80v88h80z" />
    <glyph glyph-name="uni1ECC" unicode="&#x1ecc;" horiz-adv-x="718" 
d="M360 712q136 0 221 -100t85 -261q0 -162 -85.5 -262.5t-222.5 -100.5q-136 0 -221 100t-85 261q0 162 85.5 262.5t222.5 100.5zM360 76q91 0 147 75.5t56 197.5q0 123 -56.5 199t-148.5 76q-91 0 -147 -75.5t-56 -197.5q0 -124 56.5 -199.5t148.5 -75.5zM399 -56v-88h-80
v88h80z" />
    <glyph glyph-name="uni1ECD" unicode="&#x1ecd;" horiz-adv-x="545" 
d="M273 530q101 0 165 -75t64 -195q0 -121 -64.5 -196.5t-165.5 -75.5t-164.5 75t-63.5 195q0 121 64 196.5t165 75.5zM273 68q59 0 96 53t37 138t-37 138t-97 53q-59 0 -96 -53t-37 -138t37 -138t97 -53zM312 -52v-88h-80v88h80z" />
    <glyph glyph-name="uni1ECE" unicode="&#x1ece;" horiz-adv-x="718" 
d="M360 712q136 0 221 -100t85 -261q0 -162 -85.5 -262.5t-222.5 -100.5q-136 0 -221 100t-85 261q0 162 85.5 262.5t222.5 100.5zM360 76q91 0 147 75.5t56 197.5q0 123 -56.5 199t-148.5 76q-91 0 -147 -75.5t-56 -197.5q0 -124 56.5 -199.5t148.5 -75.5zM247 835l-10 50
q32 7 62 10.5t60 3.5q58 0 89 -15.5t31 -44.5t-31 -49t-106 -40l-13 40q48 15 65 23t17 17t-13.5 13t-43.5 4q-26 0 -53 -3t-54 -9z" />
    <glyph glyph-name="uni1ECF" unicode="&#x1ecf;" horiz-adv-x="545" 
d="M273 530q101 0 165 -75t64 -195q0 -121 -64.5 -196.5t-165.5 -75.5t-164.5 75t-63.5 195q0 121 64 196.5t165 75.5zM273 68q59 0 96 53t37 138t-37 138t-97 53q-59 0 -96 -53t-37 -138t37 -138t97 -53zM174 676l-12 50q27 9 54 13t55 4q51 0 80 -17t29 -46t-27.5 -50.5
t-96.5 -46.5l-15 41q43 17 58.5 27t15.5 20q0 9 -12.5 14t-36.5 5q-22 0 -45.5 -3.5t-46.5 -10.5z" />
    <glyph glyph-name="uni1ED0" unicode="&#x1ed0;" horiz-adv-x="718" 
d="M360 712q136 0 221 -100t85 -261q0 -162 -85.5 -262.5t-222.5 -100.5q-136 0 -221 100t-85 261q0 162 85.5 262.5t222.5 100.5zM360 76q91 0 147 75.5t56 197.5q0 123 -56.5 199t-148.5 76q-91 0 -147 -75.5t-56 -197.5q0 -124 56.5 -199.5t148.5 -75.5zM670 926
l-132 -86h-73l85 86h120zM428 756l-70 45l-69 -45h-69l96 93h86l96 -93h-70z" />
    <glyph glyph-name="uni1ED1" unicode="&#x1ed1;" horiz-adv-x="545" 
d="M273 530q101 0 165 -75t64 -195q0 -121 -64.5 -196.5t-165.5 -75.5t-164.5 75t-63.5 195q0 121 64 196.5t165 75.5zM273 68q59 0 96 53t37 138t-37 138t-97 53q-59 0 -96 -53t-37 -138t37 -138t97 -53zM563 781l-128 -98h-60l78 98h110zM343 590l-71 57l-71 -57h-61
l95 107h74l95 -107h-61z" />
    <glyph glyph-name="uni1ED2" unicode="&#x1ed2;" horiz-adv-x="718" 
d="M360 712q136 0 221 -100t85 -261q0 -162 -85.5 -262.5t-222.5 -100.5q-136 0 -221 100t-85 261q0 162 85.5 262.5t222.5 100.5zM360 76q91 0 147 75.5t56 197.5q0 123 -56.5 199t-148.5 76q-91 0 -147 -75.5t-56 -197.5q0 -124 56.5 -199.5t148.5 -75.5zM498 926l86 -86
h-73l-132 86h119zM428 756l-70 45l-69 -45h-69l96 93h86l96 -93h-70z" />
    <glyph glyph-name="uni1ED3" unicode="&#x1ed3;" horiz-adv-x="545" 
d="M273 530q101 0 165 -75t64 -195q0 -121 -64.5 -196.5t-165.5 -75.5t-164.5 75t-63.5 195q0 121 64 196.5t165 75.5zM273 68q59 0 96 53t37 138t-37 138t-97 53q-59 0 -96 -53t-37 -138t37 -138t97 -53zM476 683h-59l-129 98h110zM343 590l-71 57l-71 -57h-61l95 107h74
l95 -107h-61z" />
    <glyph glyph-name="uni1ED4" unicode="&#x1ed4;" horiz-adv-x="718" 
d="M360 712q136 0 221 -100t85 -261q0 -162 -85.5 -262.5t-222.5 -100.5q-136 0 -221 100t-85 261q0 162 85.5 262.5t222.5 100.5zM360 76q91 0 147 75.5t56 197.5q0 123 -56.5 199t-148.5 76q-91 0 -147 -75.5t-56 -197.5q0 -124 56.5 -199.5t148.5 -75.5zM420 900l-9 47
q22 6 44.5 9t47.5 3q45 0 70.5 -15t25.5 -41t-25.5 -45t-84.5 -37l-12 39q35 11 49 18.5t14 15.5t-10.5 12t-31.5 4q-18 0 -37.5 -2.5t-40.5 -7.5zM428 756l-70 45l-69 -45h-69l96 93h86l96 -93h-70z" />
    <glyph glyph-name="uni1ED5" unicode="&#x1ed5;" horiz-adv-x="545" 
d="M273 530q101 0 165 -75t64 -195q0 -121 -64.5 -196.5t-165.5 -75.5t-164.5 75t-63.5 195q0 121 64 196.5t165 75.5zM273 68q59 0 96 53t37 138t-37 138t-97 53q-59 0 -96 -53t-37 -138t37 -138t97 -53zM335 748l-11 46q22 7 43 10t45 3q41 0 64.5 -15.5t23.5 -41.5
t-23 -45.5t-78 -40.5l-15 36q33 14 46.5 23t13.5 18t-10 13.5t-29 4.5q-17 0 -34.5 -3t-35.5 -8zM343 590l-71 57l-71 -57h-61l95 107h74l95 -107h-61z" />
    <glyph glyph-name="uni1ED6" unicode="&#x1ed6;" horiz-adv-x="718" 
d="M360 712q136 0 221 -100t85 -261q0 -162 -85.5 -262.5t-222.5 -100.5q-136 0 -221 100t-85 261q0 162 85.5 262.5t222.5 100.5zM360 76q91 0 147 75.5t56 197.5q0 123 -56.5 199t-148.5 76q-91 0 -147 -75.5t-56 -197.5q0 -124 56.5 -199.5t148.5 -75.5zM311 914
q-11 0 -19 -10t-19 -35l-47 16q17 46 35 66.5t43 20.5q14 0 26.5 -4.5t37.5 -18.5q20 -12 30 -16t19 -4q11 0 19.5 9.5t19.5 34.5l46 -16q-17 -46 -35 -66.5t-43 -20.5q-14 0 -26.5 4.5t-36.5 18.5t-33 17.5t-17 3.5zM429 756l-71 42l-70 -42h-70l98 89h86l98 -89h-71z" />
    <glyph glyph-name="uni1ED7" unicode="&#x1ed7;" horiz-adv-x="545" 
d="M273 530q101 0 165 -75t64 -195q0 -121 -64.5 -196.5t-165.5 -75.5t-164.5 75t-63.5 195q0 121 64 196.5t165 75.5zM273 68q59 0 96 53t37 138t-37 138t-97 53q-59 0 -96 -53t-37 -138t37 -138t97 -53zM227 761q-11 0 -19.5 -10t-18.5 -33l-44 15q17 45 35 65t41 20
q11 0 21 -3.5t39 -19.5q22 -12 30.5 -15.5t16.5 -3.5q11 0 19.5 9.5t19.5 33.5l44 -15q-18 -45 -35.5 -65t-40.5 -20q-12 0 -22.5 4t-37.5 19q-22 12 -31 15.5t-17 3.5zM344 590l-72 52l-73 -52h-60l96 102h74l96 -102h-61z" />
    <glyph glyph-name="uni1ED8" unicode="&#x1ed8;" horiz-adv-x="718" 
d="M360 712q136 0 221 -100t85 -261q0 -162 -85.5 -262.5t-222.5 -100.5q-136 0 -221 100t-85 261q0 162 85.5 262.5t222.5 100.5zM360 76q91 0 147 75.5t56 197.5q0 123 -56.5 199t-148.5 76q-91 0 -147 -75.5t-56 -197.5q0 -124 56.5 -199.5t148.5 -75.5zM425 756l-67 53
l-67 -53h-69l94 101h86l94 -101h-71zM399 -56v-88h-80v88h80z" />
    <glyph glyph-name="uni1ED9" unicode="&#x1ed9;" horiz-adv-x="545" 
d="M273 530q101 0 165 -75t64 -195q0 -121 -64.5 -196.5t-165.5 -75.5t-164.5 75t-63.5 195q0 121 64 196.5t165 75.5zM273 68q59 0 96 53t37 138t-37 138t-97 53q-59 0 -96 -53t-37 -138t37 -138t97 -53zM340 590l-68 66l-69 -66h-61l93 118h74l93 -118h-62zM312 -52v-88
h-80v88h80z" />
    <glyph glyph-name="uni1EDA" unicode="&#x1eda;" horiz-adv-x="718" 
d="M517 854l-132 -97h-79l94 97h117zM666 351q0 -162 -85.5 -262.5t-222.5 -100.5q-136 0 -221 100t-85 261t85.5 260.5t222.5 99.5h19q10 -1 31 -2q21 -2 31 -2.5t19 -0.5q62 0 93 19t31 57q0 12 -2 21.5t-7 19.5l70 21q7 -16 10.5 -32t3.5 -32q0 -51 -35 -84t-98 -40
q67 -45 103.5 -124t36.5 -179zM360 76q91 0 147 75.5t56 197.5q0 123 -56.5 198t-148.5 75q-91 0 -147 -75t-56 -196q0 -124 56.5 -199.5t148.5 -75.5z" />
    <glyph glyph-name="uni1EDB" unicode="&#x1edb;" horiz-adv-x="545" 
d="M411 705l-127 -115h-70l92 115h105zM502 259q0 -120 -64.5 -195.5t-165.5 -75.5t-164.5 75t-63.5 195q0 119 64 193t165 74h11q5 0 17 -1t18 -1h10q50 0 76.5 18t26.5 53q0 9 -2 18.5t-6 20.5l66 20q7 -16 10.5 -31t3.5 -30q0 -45 -27.5 -74.5t-76.5 -37.5
q49 -34 75.5 -91t26.5 -130zM273 68q59 0 96 52.5t37 137.5q0 84 -37.5 136.5t-96.5 52.5t-96 -52t-37 -136q0 -85 37.5 -138t96.5 -53z" />
    <glyph glyph-name="uni1EDC" unicode="&#x1edc;" horiz-adv-x="718" 
d="M666 351q0 -162 -85.5 -262.5t-222.5 -100.5q-136 0 -221 100t-85 261t85.5 260.5t222.5 99.5h19q10 -1 31 -2q21 -2 31 -2.5t19 -0.5q62 0 93 19t31 57q0 12 -2 21.5t-7 19.5l70 21q7 -16 10.5 -32t3.5 -32q0 -51 -35 -84t-98 -40q67 -45 103.5 -124t36.5 -179zM360 76
q91 0 147 75.5t56 197.5q0 123 -56.5 198t-148.5 75q-91 0 -147 -75t-56 -196q0 -124 56.5 -199.5t148.5 -75.5zM419 756h-81l-143 98h127z" />
    <glyph glyph-name="uni1EDD" unicode="&#x1edd;" horiz-adv-x="545" 
d="M502 259q0 -120 -64.5 -195.5t-165.5 -75.5t-164.5 75t-63.5 195q0 119 64 193t165 74h11q5 0 17 -1t18 -1h10q50 0 76.5 18t26.5 53q0 9 -2 18.5t-6 20.5l66 20q7 -16 10.5 -31t3.5 -30q0 -45 -27.5 -74.5t-76.5 -37.5q49 -34 75.5 -91t26.5 -130zM273 68q59 0 96 52.5
t37 137.5q0 84 -37.5 136.5t-96.5 52.5t-96 -52t-37 -136q0 -85 37.5 -138t96.5 -53zM325 590h-67l-144 115h118z" />
    <glyph glyph-name="uni1EDE" unicode="&#x1ede;" horiz-adv-x="718" 
d="M666 351q0 -162 -85.5 -262.5t-222.5 -100.5q-136 0 -221 100t-85 261t85.5 260.5t222.5 99.5h19q10 -1 31 -2q21 -2 31 -2.5t19 -0.5q62 0 93 19t31 57q0 12 -2 21.5t-7 19.5l70 21q7 -16 10.5 -32t3.5 -32q0 -51 -35 -84t-98 -40q67 -45 103.5 -124t36.5 -179zM360 76
q91 0 147 75.5t56 197.5q0 123 -56.5 198t-148.5 75q-91 0 -147 -75t-56 -196q0 -124 56.5 -199.5t148.5 -75.5zM247 835l-10 50q32 7 62 10.5t60 3.5q58 0 89 -15.5t31 -44.5t-31 -49t-106 -40l-13 40q48 15 65 23t17 17t-13.5 13t-43.5 4q-26 0 -53 -3t-54 -9z" />
    <glyph glyph-name="uni1EDF" unicode="&#x1edf;" horiz-adv-x="545" 
d="M168 676l-12 50q27 9 54 13t54 4q51 0 79.5 -17t28.5 -46t-27.5 -50.5t-95.5 -45.5l-15 40q43 18 58.5 27.5t15.5 19.5q0 9 -12.5 14.5t-36.5 5.5q-21 0 -43.5 -3.5t-47.5 -11.5zM502 259q0 -120 -64.5 -195.5t-165.5 -75.5t-164.5 75t-63.5 195q0 119 64 193t165 74h11
q5 0 17 -1t18 -1h10q50 0 76.5 18t26.5 53q0 9 -2 18.5t-6 20.5l66 20q7 -16 10.5 -31t3.5 -30q0 -45 -27.5 -74.5t-76.5 -37.5q49 -34 75.5 -91t26.5 -130zM273 68q59 0 96 52.5t37 137.5q0 84 -37.5 136.5t-96.5 52.5t-96 -52t-37 -136q0 -85 37.5 -138t96.5 -53z" />
    <glyph glyph-name="uni1EE0" unicode="&#x1ee0;" horiz-adv-x="718" 
d="M294 802q-13 0 -23 -11.5t-21 -37.5l-49 16q19 50 38.5 71.5t47.5 21.5q14 0 29 -5t42 -20q26 -14 36 -18t20 -4q13 0 22.5 10.5t21.5 37.5l49 -15q-19 -50 -38.5 -72t-47.5 -22q-15 0 -29 5t-43 21q-23 13 -34 17.5t-21 4.5zM666 351q0 -162 -85.5 -262.5t-222.5 -100.5
q-136 0 -221 100t-85 261t85.5 260.5t222.5 99.5h19q10 -1 31 -2q21 -2 31 -2.5t19 -0.5q62 0 93 19t31 57q0 12 -2 21.5t-7 19.5l70 21q7 -16 10.5 -32t3.5 -32q0 -51 -35 -84t-98 -40q67 -45 103.5 -124t36.5 -179zM360 76q91 0 147 75.5t56 197.5q0 123 -56.5 198
t-148.5 75q-91 0 -147 -75t-56 -196q0 -124 56.5 -199.5t148.5 -75.5z" />
    <glyph glyph-name="uni1EE1" unicode="&#x1ee1;" horiz-adv-x="545" 
d="M203 636q-12 0 -20.5 -11t-19.5 -38l-44 14q18 53 35.5 75t41.5 22q11 0 22.5 -4.5t40.5 -21.5q23 -15 32 -19t16 -4q11 0 20 11t20 39l44 -14q-18 -53 -35 -75t-42 -22q-13 0 -25 5t-38 21q-22 14 -30.5 18t-17.5 4zM502 259q0 -120 -64.5 -195.5t-165.5 -75.5
t-164.5 75t-63.5 195q0 119 64 193t165 74h11q5 0 17 -1t18 -1h10q50 0 76.5 18t26.5 53q0 9 -2 18.5t-6 20.5l66 20q7 -16 10.5 -31t3.5 -30q0 -45 -27.5 -74.5t-76.5 -37.5q49 -34 75.5 -91t26.5 -130zM273 68q59 0 96 52.5t37 137.5q0 84 -37.5 136.5t-96.5 52.5t-96 -52
t-37 -136q0 -85 37.5 -138t96.5 -53z" />
    <glyph glyph-name="uni1EE2" unicode="&#x1ee2;" horiz-adv-x="718" 
d="M666 351q0 -162 -85.5 -262.5t-222.5 -100.5q-136 0 -221 100t-85 261t85.5 260.5t222.5 99.5h19q10 -1 31 -2q21 -2 31 -2.5t19 -0.5q62 0 93 19t31 57q0 12 -2 21.5t-7 19.5l70 21q7 -16 10.5 -32t3.5 -32q0 -51 -35 -84t-98 -40q67 -45 103.5 -124t36.5 -179zM360 76
q91 0 147 75.5t56 197.5q0 123 -56.5 198t-148.5 75q-91 0 -147 -75t-56 -196q0 -124 56.5 -199.5t148.5 -75.5zM399 -56v-88h-80v88h80z" />
    <glyph glyph-name="uni1EE3" unicode="&#x1ee3;" horiz-adv-x="545" 
d="M502 259q0 -120 -64.5 -195.5t-165.5 -75.5t-164.5 75t-63.5 195q0 119 64 193t165 74h11q5 0 17 -1t18 -1h10q50 0 76.5 18t26.5 53q0 9 -2 18.5t-6 20.5l66 20q7 -16 10.5 -31t3.5 -30q0 -45 -27.5 -74.5t-76.5 -37.5q49 -34 75.5 -91t26.5 -130zM273 68q59 0 96 52.5
t37 137.5q0 84 -37.5 136.5t-96.5 52.5t-96 -52t-37 -136q0 -85 37.5 -138t96.5 -53zM312 -52v-88h-80v88h80z" />
    <glyph glyph-name="uni1EE4" unicode="&#x1ee4;" horiz-adv-x="693" 
d="M614 700v-429q0 -134 -70.5 -207.5t-197.5 -73.5q-126 0 -196.5 73.5t-70.5 207.5v429h101v-431q0 -90 44.5 -141t122.5 -51t122.5 50.5t44.5 139.5v433h100zM386 -56v-88h-80v88h80z" />
    <glyph glyph-name="uni1EE5" unicode="&#x1ee5;" horiz-adv-x="563" 
d="M414 0l-16 51q-44 -32 -84 -46t-82 -14q-79 0 -120 44.5t-41 129.5v353h95v-332q0 -54 25.5 -82.5t74.5 -28.5q30 0 63 12.5t63 34.5v396h96v-518h-74zM322 -52v-88h-80v88h80z" />
    <glyph glyph-name="uni1EE6" unicode="&#x1ee6;" horiz-adv-x="693" 
d="M614 700v-429q0 -134 -70.5 -207.5t-197.5 -73.5q-126 0 -196.5 73.5t-70.5 207.5v429h101v-431q0 -90 44.5 -141t122.5 -51t122.5 50.5t44.5 139.5v433h100zM234 824l-10 50q32 7 62 10.5t60 3.5q58 0 89 -15.5t31 -44.5t-31 -49t-106 -40l-13 40q48 15 65 23t17 17
t-13.5 13t-43.5 4q-26 0 -53 -3t-54 -9z" />
    <glyph glyph-name="uni1EE7" unicode="&#x1ee7;" horiz-adv-x="563" 
d="M414 0l-16 51q-44 -32 -84 -46t-82 -14q-79 0 -120 44.5t-41 129.5v353h95v-332q0 -54 25.5 -82.5t74.5 -28.5q30 0 63 12.5t63 34.5v396h96v-518h-74zM182 669l-12 50q27 9 54 13t55 4q51 0 80 -17t29 -46t-27.5 -50.5t-96.5 -46.5l-15 41q43 17 58.5 27t15.5 20
q0 9 -12.5 14t-36.5 5q-22 0 -45.5 -3.5t-46.5 -10.5z" />
    <glyph glyph-name="uni1EE8" unicode="&#x1ee8;" horiz-adv-x="721" 
d="M346 -10q-126 0 -196.5 73.5t-70.5 207.5v429h101v-431q0 -90 44.5 -141t122.5 -51t122.5 50.5t44.5 139.5v433h14q63 0 95.5 20t32.5 60q0 11 -2 20.5t-7 20.5l70 21q7 -16 10.5 -32t3.5 -32q0 -47 -30.5 -79.5t-86.5 -45.5v-382q0 -134 -70.5 -207.5t-197.5 -73.5z
M510 843l-143 -98h-81l97 98h127z" />
    <glyph glyph-name="uni1EE9" unicode="&#x1ee9;" horiz-adv-x="584" 
d="M442 690l-140 -115h-68l92 115h116zM414 0l-16 52q-44 -32 -84 -46t-82 -14q-79 0 -120 44.5t-41 129.5v352h95v-331q0 -54 25.5 -82.5t74.5 -28.5q30 0 63 12.5t63 34.5v395h10q57 0 87 19.5t30 56.5q0 10 -2 19.5t-7 19.5l66 20q7 -14 10.5 -29t3.5 -32
q0 -43 -26.5 -73.5t-75.5 -43.5v-475h-74z" />
    <glyph glyph-name="uni1EEA" unicode="&#x1eea;" horiz-adv-x="721" 
d="M346 -10q-126 0 -196.5 73.5t-70.5 207.5v429h101v-431q0 -90 44.5 -141t122.5 -51t122.5 50.5t44.5 139.5v433h14q63 0 95.5 20t32.5 60q0 11 -2 20.5t-7 20.5l70 21q7 -16 10.5 -32t3.5 -32q0 -47 -30.5 -79.5t-86.5 -45.5v-382q0 -134 -70.5 -207.5t-197.5 -73.5z
M406 745h-81l-143 98h127z" />
    <glyph glyph-name="uni1EEB" unicode="&#x1eeb;" horiz-adv-x="584" 
d="M414 0l-16 52q-44 -32 -84 -46t-82 -14q-79 0 -120 44.5t-41 129.5v352h95v-331q0 -54 25.5 -82.5t74.5 -28.5q30 0 63 12.5t63 34.5v395h10q57 0 87 19.5t30 56.5q0 10 -2 19.5t-7 19.5l66 20q7 -14 10.5 -29t3.5 -32q0 -43 -26.5 -73.5t-75.5 -43.5v-475h-74zM333 583
h-67l-144 115h118z" />
    <glyph glyph-name="uni1EEC" unicode="&#x1eec;" horiz-adv-x="721" 
d="M346 -10q-126 0 -196.5 73.5t-70.5 207.5v429h101v-431q0 -90 44.5 -141t122.5 -51t122.5 50.5t44.5 139.5v433h14q63 0 95.5 20t32.5 60q0 11 -2 20.5t-7 20.5l70 21q7 -16 10.5 -32t3.5 -32q0 -47 -30.5 -79.5t-86.5 -45.5v-382q0 -134 -70.5 -207.5t-197.5 -73.5z
M234 824l-10 50q32 7 62 10.5t60 3.5q58 0 89 -15.5t31 -44.5t-31 -49t-106 -40l-13 40q48 15 65 23t17 17t-13.5 13t-43.5 4q-26 0 -53 -3t-54 -9z" />
    <glyph glyph-name="uni1EED" unicode="&#x1eed;" horiz-adv-x="584" 
d="M414 0l-16 52q-44 -32 -84 -46t-82 -14q-79 0 -120 44.5t-41 129.5v352h95v-331q0 -54 25.5 -82.5t74.5 -28.5q30 0 63 12.5t63 34.5v395h10q57 0 87 19.5t30 56.5q0 10 -2 19.5t-7 19.5l66 20q7 -14 10.5 -29t3.5 -32q0 -43 -26.5 -73.5t-75.5 -43.5v-475h-74zM182 669
l-12 50q27 9 54 13t55 4q51 0 80 -17t29 -46t-27.5 -50.5t-96.5 -46.5l-15 41q43 17 58.5 27t15.5 20q0 9 -12.5 14t-36.5 5q-22 0 -45.5 -3.5t-46.5 -10.5z" />
    <glyph glyph-name="uni1EEE" unicode="&#x1eee;" horiz-adv-x="721" 
d="M346 -10q-126 0 -196.5 73.5t-70.5 207.5v429h101v-431q0 -90 44.5 -141t122.5 -51t122.5 50.5t44.5 139.5v433h14q63 0 95.5 20t32.5 60q0 11 -2 20.5t-7 20.5l70 21q7 -16 10.5 -32t3.5 -32q0 -47 -30.5 -79.5t-86.5 -45.5v-382q0 -134 -70.5 -207.5t-197.5 -73.5z
M289 795q-13 0 -23 -11t-22 -38l-50 15q20 51 40 72.5t48 21.5q15 0 30 -5.5t42 -20.5q24 -13 35.5 -17.5t21.5 -4.5q13 0 23 11t22 38l49 -16q-19 -50 -39 -71.5t-48 -21.5q-15 0 -30 5t-43 20q-25 14 -35.5 18.5t-20.5 4.5z" />
    <glyph glyph-name="uni1EEF" unicode="&#x1eef;" horiz-adv-x="584" 
d="M225 625q-13 0 -22.5 -11t-21.5 -39l-46 14q18 52 37.5 74.5t46.5 22.5q14 0 28 -5.5t40 -20.5q25 -15 34.5 -19t18.5 -4q12 0 22 11t22 39l46 -14q-18 -52 -37.5 -74.5t-46.5 -22.5q-13 0 -25.5 5t-42.5 22q-27 15 -36 18.5t-17 3.5zM414 0l-16 52q-44 -32 -84 -46
t-82 -14q-79 0 -120 44.5t-41 129.5v352h95v-331q0 -54 25.5 -82.5t74.5 -28.5q30 0 63 12.5t63 34.5v395h10q57 0 87 19.5t30 56.5q0 10 -2 19.5t-7 19.5l66 20q7 -14 10.5 -29t3.5 -32q0 -43 -26.5 -73.5t-75.5 -43.5v-475h-74z" />
    <glyph glyph-name="uni1EF0" unicode="&#x1ef0;" horiz-adv-x="721" 
d="M346 -10q-126 0 -196.5 73.5t-70.5 207.5v429h101v-431q0 -90 44.5 -141t122.5 -51t122.5 50.5t44.5 139.5v433h14q63 0 95.5 20t32.5 60q0 11 -2 20.5t-7 20.5l70 21q7 -16 10.5 -32t3.5 -32q0 -47 -30.5 -79.5t-86.5 -45.5v-382q0 -134 -70.5 -207.5t-197.5 -73.5z
M386 -56v-88h-80v88h80z" />
    <glyph glyph-name="uni1EF1" unicode="&#x1ef1;" horiz-adv-x="584" 
d="M414 0l-16 52q-44 -32 -84 -46t-82 -14q-79 0 -120 44.5t-41 129.5v352h95v-331q0 -54 25.5 -82.5t74.5 -28.5q30 0 63 12.5t63 34.5v395h10q57 0 87 19.5t30 56.5q0 10 -2 19.5t-7 19.5l66 20q7 -14 10.5 -29t3.5 -32q0 -43 -26.5 -73.5t-75.5 -43.5v-475h-74zM322 -52
v-88h-80v88h80z" />
    <glyph glyph-name="Ygrave" unicode="&#x1ef2;" horiz-adv-x="642" 
d="M372 274v-274h-102v274l-252 426h112l192 -335l191 335h111zM381 745h-81l-143 98h127z" />
    <glyph glyph-name="ygrave" unicode="&#x1ef3;" horiz-adv-x="516" 
d="M69 -178l-22 77q57 15 94.5 41.5t65.5 69.5l-179 508h98l137 -424l134 424h97l-163 -461q-39 -110 -92.5 -158t-169.5 -77zM314 583h-67l-144 115h118z" />
    <glyph glyph-name="uni1EF4" unicode="&#x1ef4;" horiz-adv-x="642" 
d="M372 274v-274h-102v274l-252 426h112l192 -335l191 335h111zM361 -49v-88h-80v88h80z" />
    <glyph glyph-name="uni1EF5" unicode="&#x1ef5;" horiz-adv-x="516" 
d="M69 -178l-22 77q57 15 94.5 41.5t65.5 69.5l-179 508h98l137 -424l134 424h97l-163 -461q-39 -110 -92.5 -158t-169.5 -77zM401 -88v-88h-80v88h80z" />
    <glyph glyph-name="uni1EF6" unicode="&#x1ef6;" horiz-adv-x="642" 
d="M372 274v-274h-102v274l-252 426h112l192 -335l191 335h111zM209 824l-10 50q32 7 62 10.5t60 3.5q58 0 89 -15.5t31 -44.5t-31 -49t-106 -40l-13 40q48 15 65 23t17 17t-13.5 13t-43.5 4q-26 0 -53 -3t-54 -9z" />
    <glyph glyph-name="uni1EF7" unicode="&#x1ef7;" horiz-adv-x="516" 
d="M69 -178l-22 77q57 15 94.5 41.5t65.5 69.5l-179 508h98l137 -424l134 424h97l-163 -461q-39 -110 -92.5 -158t-169.5 -77zM162 669l-12 50q27 9 54 13t55 4q51 0 80 -17t29 -46t-27.5 -50.5t-96.5 -46.5l-15 41q43 17 58.5 27t15.5 20q0 9 -12.5 14t-36.5 5
q-22 0 -45.5 -3.5t-46.5 -10.5z" />
    <glyph glyph-name="uni1EF8" unicode="&#x1ef8;" horiz-adv-x="642" 
d="M372 274v-274h-102v274l-252 426h112l192 -335l191 335h111zM264 795q-13 0 -23 -11t-22 -38l-50 15q20 51 40 72.5t48 21.5q15 0 30 -5.5t42 -20.5q24 -13 35.5 -17.5t21.5 -4.5q13 0 23 11t22 38l49 -16q-19 -50 -39 -71.5t-48 -21.5q-15 0 -30 5t-43 20
q-25 14 -35.5 18.5t-20.5 4.5z" />
    <glyph glyph-name="uni1EF9" unicode="&#x1ef9;" horiz-adv-x="516" 
d="M69 -178l-22 77q57 15 94.5 41.5t65.5 69.5l-179 508h98l137 -424l134 424h97l-163 -461q-39 -110 -92.5 -158t-169.5 -77zM206 634q-12 0 -22 -11.5t-22 -39.5l-46 15q18 52 38 74.5t47 22.5q13 0 25.5 -4.5t43.5 -22.5q21 -13 32.5 -17.5t21.5 -4.5q13 0 22.5 11
t21.5 39l46 -14q-18 -52 -37.5 -74.5t-47.5 -22.5q-14 0 -27.5 5t-41.5 21q-26 15 -35.5 19t-18.5 4z" />
    <glyph glyph-name="uni2002" unicode="&#x2002;" horiz-adv-x="500" 
d="M0 0z" />
    <glyph glyph-name="uni2003" unicode="&#x2003;" horiz-adv-x="1000" 
d="M0 0z" />
    <glyph glyph-name="uni2004" unicode="&#x2004;" horiz-adv-x="333" 
d="M0 0z" />
    <glyph glyph-name="uni2005" unicode="&#x2005;" horiz-adv-x="250" 
d="M0 0z" />
    <glyph glyph-name="uni2007" unicode="&#x2007;" horiz-adv-x="564" 
d="M0 0z" />
    <glyph glyph-name="uni2009" unicode="&#x2009;" horiz-adv-x="125" 
d="M0 0z" />
    <glyph glyph-name="uni200A" unicode="&#x200a;" horiz-adv-x="42" 
d="M0 0z" />
    <glyph glyph-name="uni2011" unicode="&#x2011;" horiz-adv-x="341" 
d="M297 347v-84h-253v84h253z" />
    <glyph glyph-name="uni2012" unicode="&#x2012;" horiz-adv-x="564" 
d="M486 399v-81h-407v81h407z" />
    <glyph glyph-name="endash" unicode="&#x2013;" horiz-adv-x="488" 
d="M444 346v-82h-400v82h400z" />
    <glyph glyph-name="emdash" unicode="&#x2014;" horiz-adv-x="800" 
d="M756 346v-82h-712v82h712z" />
    <glyph glyph-name="uni2015" unicode="&#x2015;" horiz-adv-x="800" 
d="M756 346v-82h-712v82h712z" />
    <glyph glyph-name="quoteleft" unicode="&#x2018;" horiz-adv-x="208" 
d="M128 466h-96v8q0 72 30 133.5t96 121.5l32 -24q-36 -55 -49 -106t-13 -133z" />
    <glyph glyph-name="quoteright" unicode="&#x2019;" horiz-adv-x="208" 
d="M80 724h97v-7q0 -72 -30.5 -133.5t-96.5 -122.5l-31 24q36 57 48.5 107.5t12.5 131.5z" />
    <glyph glyph-name="quotesinglbase" unicode="&#x201a;" horiz-adv-x="190" 
d="M51 117h97v-8q0 -72 -30.5 -133t-96.5 -122l-32 24q36 56 49 107t13 132z" />
    <glyph glyph-name="uni201B" unicode="&#x201b;" horiz-adv-x="208" 
d="M32 717v7h96q0 -81 13 -132t49 -107l-32 -24q-66 60 -96 121.5t-30 134.5z" />
    <glyph glyph-name="quotedblleft" unicode="&#x201c;" horiz-adv-x="379" 
d="M123 466h-91v9q0 72 29.5 133t92.5 121l31 -24q-36 -55 -49 -106.5t-13 -132.5zM299 466h-92v9q0 71 29.5 132.5t92.5 121.5l31 -24q-35 -54 -48 -105t-13 -134z" />
    <glyph glyph-name="quotedblright" unicode="&#x201d;" horiz-adv-x="379" 
d="M255 724h92v-8q0 -72 -29 -133t-93 -122l-31 24q35 55 48 106t13 133zM80 724h92v-8q0 -72 -29.5 -133t-93.5 -122l-30 24q35 56 48 107.5t13 131.5z" />
    <glyph glyph-name="quotedblbase" unicode="&#x201e;" horiz-adv-x="360" 
d="M226 117h92v-8q0 -72 -29 -133t-93 -122l-31 24q35 55 48 106t13 133zM51 117h92v-8q0 -72 -29.5 -133t-93.5 -122l-31 24q36 56 49 107t13 132z" />
    <glyph glyph-name="uni201F" unicode="&#x201f;" horiz-adv-x="379" 
d="M32 716v8h91q0 -81 13 -132t49 -107l-31 -24q-64 61 -93 122t-29 133zM207 716v8h92q0 -82 13 -133t48 -106l-31 -24q-64 62 -93 122.5t-29 132.5z" />
    <glyph glyph-name="dagger" unicode="&#x2020;" horiz-adv-x="295" 
d="M159 565l15 -89l-19 -208h-16l-18 208l15 89h-14l-80 -15v52l80 -15h15l-18 115h56l-17 -115h15l80 15v-52l-80 15h-14z" />
    <glyph glyph-name="daggerdbl" unicode="&#x2021;" horiz-adv-x="295" 
d="M253 351l-80 15h-15l17 -115h-56l18 115h-15l-80 -15v52l80 -15h14l-15 88l15 89h-14l-80 -15v52l80 -15h15l-18 115h56l-17 -115h15l80 15v-52l-80 15h-14l15 -89l-15 -88h14l80 15v-52z" />
    <glyph glyph-name="bullet" unicode="&#x2022;" horiz-adv-x="436" 
d="M218 222q-55 0 -93.5 39t-38.5 94t38.5 94t93.5 39t94 -39t39 -94t-39 -94t-94 -39z" />
    <glyph glyph-name="uni2025" unicode="&#x2025;" horiz-adv-x="564" 
d="M474 117v-117h-102v117h102zM192 117v-117h-102v117h102z" />
    <glyph glyph-name="ellipsis" unicode="&#x2026;" horiz-adv-x="559" 
d="M516 114v-114h-99v114h99zM329 114v-114h-99v114h99zM143 114v-114h-99v114h99z" />
    <glyph glyph-name="uni202F" unicode="&#x202f;" horiz-adv-x="125" 
d="M0 0z" />
    <glyph glyph-name="guilsinglleft" unicode="&#x2039;" horiz-adv-x="307" 
d="M267 124l-34 -31l-198 187v50l198 187l34 -31l-143 -181z" />
    <glyph glyph-name="guilsinglright" unicode="&#x203a;" horiz-adv-x="307" 
d="M272 280l-198 -187l-34 30l143 182l-143 181l34 31l198 -187v-50z" />
    <glyph glyph-name="fraction" unicode="&#x2044;" horiz-adv-x="117" 
d="M-137 0h-52l231 361l212 339h52l-231 -361z" />
    <glyph glyph-name="uni2070" unicode="&#x2070;" horiz-adv-x="462" 
d="M406 627q0 -99 -48 -158t-127 -59t-127 59t-48 158t48 157.5t127 58.5t127 -58.5t48 -157.5zM332 626q0 71 -28 113.5t-73 42.5q-46 0 -73.5 -41.5t-27.5 -112.5q0 -72 28 -114.5t73 -42.5q46 0 73.5 41.5t27.5 113.5z" />
    <glyph glyph-name="uni2074" unicode="&#x2074;" horiz-adv-x="446" 
d="M338 507v-90h-71v90h-225l-3 56l202 276h97v-276h72v-56h-72zM110 562h159v222z" />
    <glyph glyph-name="uni2075" unicode="&#x2075;" horiz-adv-x="421" 
d="M368 554q0 -64 -49 -104t-127 -40q-40 0 -73.5 8t-74.5 29l27 54q31 -17 59.5 -25t58.5 -8q46 0 75.5 24t29.5 60q0 33 -22.5 52t-62.5 19q-22 0 -41.5 -5.5t-49.5 -22.5l-49 21l15 220h278v-59h-217l-9 -121q25 13 47.5 18.5t48.5 5.5q62 0 99 -34t37 -92z" />
    <glyph glyph-name="uni2076" unicode="&#x2076;" horiz-adv-x="431" 
d="M382 552q0 -63 -45 -102.5t-117 -39.5q-77 0 -121.5 46.5t-44.5 126.5q0 92 58.5 158t175.5 106l25 -56q-80 -29 -122.5 -61.5t-57.5 -76.5q25 13 53 19.5t55 6.5q63 0 102 -35t39 -92zM124 576q0 -51 26.5 -80t71.5 -29q40 0 65 23t25 59t-25.5 57t-69.5 21
q-23 0 -46 -5t-45 -15q-1 -12 -1.5 -18.5t-0.5 -12.5z" />
    <glyph glyph-name="uni2077" unicode="&#x2077;" horiz-adv-x="403" 
d="M358 769l-204 -358l-68 26l195 336h-229v63h306v-67z" />
    <glyph glyph-name="uni2078" unicode="&#x2078;" horiz-adv-x="438" 
d="M387 530q0 -53 -46.5 -86t-121.5 -33t-121.5 33t-46.5 86q0 38 22.5 64t68.5 41q-39 14 -59 38.5t-20 58.5q0 47 43.5 78.5t112.5 31.5t112.5 -31.5t43.5 -78.5q0 -34 -19.5 -58.5t-58.5 -38.5q45 -15 67.5 -41t22.5 -64zM132 724q0 -29 24.5 -47t62.5 -18t62.5 18
t24.5 47q0 28 -24 46t-63 18t-63 -17.5t-24 -46.5zM122 538q0 -33 27 -53t70 -20q44 0 70.5 20t26.5 53q0 32 -27 52t-70 20t-70 -20t-27 -52z" />
    <glyph glyph-name="uni2079" unicode="&#x2079;" horiz-adv-x="431" 
d="M49 701q0 63 45 102.5t117 39.5q77 0 121.5 -46.5t44.5 -126.5q0 -92 -58.5 -158t-175.5 -106l-25 56q80 29 122.5 61.5t57.5 76.5q-25 -13 -53 -19.5t-55 -6.5q-63 0 -102 35t-39 92zM307 677q0 51 -26.5 80t-71.5 29q-40 0 -65 -23t-25 -59t25.5 -57t69.5 -21
q23 0 46 5t45 15q1 12 1.5 18.5t0.5 12.5z" />
    <glyph glyph-name="uni2080" unicode="&#x2080;" horiz-adv-x="462" 
d="M406 54q0 -99 -48 -158t-127 -59t-127 59t-48 158t48 157.5t127 58.5t127 -58.5t48 -157.5zM332 53q0 71 -28 113.5t-73 42.5q-46 0 -73.5 -41.5t-27.5 -112.5q0 -72 28 -114.5t73 -42.5q46 0 73.5 41.5t27.5 113.5z" />
    <glyph glyph-name="uni2081" unicode="&#x2081;" horiz-adv-x="338" 
d="M245 266v-422h-74v344l-112 -39l-16 60l148 57h54z" />
    <glyph glyph-name="uni2082" unicode="&#x2082;" horiz-adv-x="411" 
d="M364 -95v-61h-306l-13 51l176 164q32 32 44.5 52t12.5 39q0 26 -19 41t-50 15q-29 0 -59.5 -15.5t-61.5 -45.5l-33 51q35 36 76 54.5t86 18.5q62 0 99.5 -30.5t37.5 -81.5q0 -34 -19.5 -65.5t-66.5 -73.5l-119 -113h215z" />
    <glyph glyph-name="uni2083" unicode="&#x2083;" horiz-adv-x="413" 
d="M361 -46q0 -51 -46 -83t-116 -32q-41 0 -78 9.5t-78 31.5l27 52q33 -18 63.5 -27t63.5 -9q39 0 64.5 17.5t25.5 46.5q0 33 -39.5 49.5t-119.5 15.5l-5 54q78 6 118.5 26t40.5 51q0 26 -19.5 40.5t-52.5 14.5q-28 0 -59.5 -10t-68.5 -31l-29 50q42 25 82.5 37t82.5 12
q63 -1 100.5 -29.5t37.5 -76.5q0 -36 -24.5 -63t-70.5 -43q49 -12 74.5 -38t25.5 -65z" />
    <glyph glyph-name="uni2084" unicode="&#x2084;" horiz-adv-x="446" 
d="M338 -66v-90h-71v90h-225l-3 56l202 276h97v-276h72v-56h-72zM110 -11h159v222z" />
    <glyph glyph-name="uni2085" unicode="&#x2085;" horiz-adv-x="421" 
d="M368 -19q0 -64 -49 -104t-127 -40q-40 0 -73.5 8t-74.5 29l27 54q31 -17 59.5 -25t58.5 -8q46 0 75.5 24t29.5 60q0 33 -22.5 52t-62.5 19q-22 0 -41.5 -5.5t-49.5 -22.5l-49 21l15 220h278v-59h-217l-9 -121q25 13 47.5 18.5t48.5 5.5q62 0 99 -34t37 -92z" />
    <glyph glyph-name="uni2086" unicode="&#x2086;" horiz-adv-x="431" 
d="M382 -21q0 -63 -45 -102.5t-117 -39.5q-77 0 -121.5 46.5t-44.5 126.5q0 92 58.5 158t175.5 106l25 -56q-80 -29 -122.5 -61.5t-57.5 -76.5q25 13 53 19.5t55 6.5q63 0 102 -35t39 -92zM124 3q0 -51 26.5 -80t71.5 -29q40 0 65 23t25 59t-25.5 57t-69.5 21q-23 0 -46 -5
t-45 -15q-1 -12 -1.5 -18.5t-0.5 -12.5z" />
    <glyph glyph-name="uni2087" unicode="&#x2087;" horiz-adv-x="403" 
d="M358 196l-204 -358l-68 26l195 336h-229v63h306v-67z" />
    <glyph glyph-name="uni2088" unicode="&#x2088;" horiz-adv-x="438" 
d="M387 -43q0 -53 -46.5 -86t-121.5 -33t-121.5 33t-46.5 86q0 38 22.5 64t68.5 41q-39 14 -59 38.5t-20 58.5q0 47 43.5 78.5t112.5 31.5t112.5 -31.5t43.5 -78.5q0 -34 -19.5 -58.5t-58.5 -38.5q45 -15 67.5 -41t22.5 -64zM132 151q0 -29 24.5 -47t62.5 -18t62.5 18
t24.5 47q0 28 -24 46t-63 18t-63 -17.5t-24 -46.5zM122 -35q0 -33 27 -53t70 -20q44 0 70.5 20t26.5 53q0 32 -27 52t-70 20t-70 -20t-27 -52z" />
    <glyph glyph-name="uni2089" unicode="&#x2089;" horiz-adv-x="431" 
d="M49 128q0 63 45 102.5t117 39.5q77 0 121.5 -46.5t44.5 -126.5q0 -92 -58.5 -158t-175.5 -106l-25 56q80 29 122.5 61.5t57.5 76.5q-25 -13 -53 -19.5t-55 -6.5q-63 0 -102 35t-39 92zM307 104q0 51 -26.5 80t-71.5 29q-40 0 -65 -23t-25 -59t25.5 -57t69.5 -21
q23 0 46 5t45 15q1 12 1.5 18.5t0.5 12.5z" />
    <glyph glyph-name="uni20A6" unicode="&#x20a6;" horiz-adv-x="767" 
d="M214 473h55l-55 97v-97zM471 285h81v138h-159zM215 285h159l-77 138h-82v-138zM499 235l54 -97v97h-54zM643 0h-109l-132 235h-186v-235h-92v232h-82v56h82v132h-82v56h82v224h113l128 -227h186v227h92v-224h82v-56h-82v-132h82v-56h-82v-232z" />
    <glyph glyph-name="uni20A9" unicode="&#x20a9;" horiz-adv-x="995" 
d="M470 475h55l-28 103zM661 281h83l32 144h-153zM418 281h159l-39 144h-82zM255 281h83l38 144h-153zM674 231l32 -124l27 124h-59zM762 -6h-108l-64 237h-185l-65 -237h-107l-58 234h-133v56h120l-34 138h-86v56h72l-55 222h104l50 -225h175l59 225h105l59 -225h175
l49 225h100l-54 -222h72v-56h-86l-34 -138h120v-56h-134zM266 231l27 -124l32 124h-59z" />
    <glyph glyph-name="dong" unicode="&#x20ab;" horiz-adv-x="596" 
d="M286 420q-65 0 -102.5 -47t-37.5 -129q0 -80 37.5 -126.5t101.5 -46.5q29 0 57 11t54 32v267q-26 19 -54 29t-56 10zM418 0l-16 48q-36 -30 -71 -43.5t-73 -13.5q-92 0 -148 68.5t-56 184.5q0 118 58 186.5t155 68.5q34 0 66 -10t63 -30v111h-144v53h144v77h95v-77h71
v-53h-71v-570h-73zM491 -73v-53h-400v53h400z" />
    <glyph glyph-name="Euro" unicode="&#x20ac;" horiz-adv-x="598" 
d="M533 101l16 -86q-33 -11 -70 -17t-70 -6q-121 0 -197.5 64t-99.5 186h-81v57h74q-1 19 -1.5 30t-0.5 21q0 9 0.5 20t1.5 28h-74v57h81q23 123 99.5 188t198.5 65q32 0 67 -5.5t72 -16.5l-16 -87q-30 10 -60.5 15t-58.5 5q-81 0 -131.5 -41.5t-69.5 -122.5h269v-57h-278
q-1 -17 -1.5 -28t-0.5 -20q0 -10 0.5 -21t1.5 -30h278v-57h-268q19 -80 69.5 -120.5t129.5 -40.5q27 0 59.5 5.5t60.5 14.5z" />
    <glyph glyph-name="uni20B1" unicode="&#x20b1;" horiz-adv-x="696" 
d="M331 615h-106v-136h278q-6 68 -49 102t-123 34zM225 428v-137h100q78 0 123.5 35t53.5 102h-277zM324 208h-99v-208h-101v425h-82v57h82v218h209q127 0 197 -56t75 -162h78v-57h-79q-11 -105 -83.5 -161t-196.5 -56z" />
    <glyph glyph-name="uni20B9" unicode="&#x20b9;" horiz-adv-x="612" 
d="M387 189l170 -187v-2h-128l-145 164q-35 40 -67 55t-81 15h-77v68h94q89 0 148 35.5t74 98.5h-316v63h320q-8 65 -59.5 99t-141.5 34h-119v68h500v-68h-174q41 -20 65.5 -53.5t30.5 -77.5h78v-67h-80q-12 -63 -61 -108t-127 -66q26 -10 49 -27t47 -44z" />
    <glyph glyph-name="uni20BA" unicode="&#x20ba;" horiz-adv-x="597" 
d="M222 0h-98v226l-82 -45v64l82 45v104l-82 -45v63l82 45v243h101v-191l211 119v-64l-211 -119v-104l211 120v-64l-211 -119v-186h22q105 0 170 56t77 154h60q-9 -142 -95.5 -222t-236.5 -80z" />
    <glyph glyph-name="uni20BD" unicode="&#x20bd;" horiz-adv-x="659" 
d="M515 473q0 70 -45.5 106t-135.5 36h-109v-295h102q89 0 138.5 40t49.5 113zM522 173v-56h-297v-117h-101v117h-82v56h82v91h-82v57h82v379h213q135 0 207 -54.5t72 -157.5q0 -108 -74.5 -166.5t-211.5 -58.5h-105v-90h297z" />
    <glyph glyph-name="uni2117" unicode="&#x2117;" horiz-adv-x="756" 
d="M701 350q0 -163 -92 -269.5t-231 -106.5q-140 0 -231.5 106t-91.5 270t91.5 270t231.5 106q139 0 231 -106.5t92 -269.5zM669 350q0 151 -82.5 249t-208.5 98t-208.5 -98t-82.5 -249t82.5 -249t208.5 -98t208.5 98t82.5 249zM325 281v-115h-64v372h124q74 0 114.5 -32.5
t40.5 -92.5q0 -63 -42 -97.5t-118 -34.5h-55zM325 484v-150h54q47 0 71 19t24 57q0 36 -23 55t-68 19h-58z" />
    <glyph glyph-name="uni2120" unicode="&#x2120;" horiz-adv-x="567" 
d="M415 472h-41l-65 173l-8 -173h-40l12 228h56l66 -174l65 174h57l12 -228h-41l-8 170zM140 607q46 -12 63.5 -27.5t17.5 -43.5q0 -31 -24.5 -49.5t-66.5 -18.5q-25 0 -48.5 6t-45.5 17l12 34q21 -11 42 -16.5t42 -5.5q23 0 35.5 8t12.5 22t-11.5 21.5t-41.5 16.5
q-45 12 -62 27t-17 41q0 29 22.5 47t61.5 18q19 0 39.5 -4.5t39.5 -12.5l-11 -35q-16 8 -35 12.5t-34 4.5q-20 0 -31 -7t-11 -20q0 -12 11.5 -20t39.5 -15z" />
    <glyph glyph-name="trademark" unicode="&#x2122;" horiz-adv-x="554" 
d="M139 663v-191h-42v191h-75v37h193v-37h-76zM401 472h-40l-65 173l-9 -173h-39l12 228h56l66 -174l65 174h56l12 -228h-40l-9 173z" />
    <glyph glyph-name="onethird" unicode="&#x2153;" horiz-adv-x="876" 
d="M230 703v-422h-74v344l-112 -39l-16 60l148 57h54zM203 0h-52l231 361l212 339h52l-231 -361zM839 110q0 -51 -46 -83t-116 -32q-41 0 -78 9.5t-78 31.5l27 52q33 -18 63.5 -27t63.5 -9q39 0 64.5 17.5t25.5 46.5q0 33 -39.5 49.5t-119.5 15.5l-5 54q78 6 118.5 26
t40.5 51q0 26 -19.5 40.5t-52.5 14.5q-28 0 -59.5 -10t-68.5 -31l-29 50q42 25 82.5 37t82.5 12q63 -1 100.5 -29.5t37.5 -76.5q0 -36 -24.5 -63t-70.5 -43q49 -12 74.5 -38t25.5 -65z" />
    <glyph glyph-name="twothirds" unicode="&#x2154;" horiz-adv-x="975" 
d="M349 342v-61h-306l-13 51l176 164q32 32 44.5 52t12.5 39q0 26 -19 41t-50 15q-29 0 -59.5 -15.5t-61.5 -45.5l-33 51q35 36 76 54.5t86 18.5q62 0 99.5 -30.5t37.5 -81.5q0 -34 -19.5 -65.5t-66.5 -73.5l-119 -113h215zM303 0h-52l231 361l212 339h52l-231 -361z
M938 110q0 -51 -46 -83t-116 -32q-41 0 -78 9.5t-78 31.5l27 52q33 -18 63.5 -27t63.5 -9q39 0 64.5 17.5t25.5 46.5q0 33 -39.5 49.5t-119.5 15.5l-5 54q78 6 118.5 26t40.5 51q0 26 -19.5 40.5t-52.5 14.5q-28 0 -59.5 -10t-68.5 -31l-29 50q42 25 82.5 37t82.5 12
q63 -1 100.5 -29.5t37.5 -76.5q0 -36 -24.5 -63t-70.5 -43q49 -12 74.5 -38t25.5 -65z" />
    <glyph glyph-name="uni2155" unicode="&#x2155;" horiz-adv-x="880" 
d="M230 703v-422h-74v344l-112 -39l-16 60l148 57h54zM203 0h-52l231 361l212 339h52l-231 -361zM842 137q0 -64 -49 -104t-127 -40q-40 0 -73.5 8t-74.5 29l27 54q31 -17 59.5 -25t58.5 -8q46 0 75.5 24t29.5 60q0 33 -22.5 52t-62.5 19q-22 0 -41.5 -5.5t-49.5 -22.5
l-49 21l15 220h278v-59h-217l-9 -121q25 13 47.5 18.5t48.5 5.5q62 0 99 -34t37 -92z" />
    <glyph glyph-name="uni2156" unicode="&#x2156;" horiz-adv-x="979" 
d="M349 342v-61h-306l-13 51l176 164q32 32 44.5 52t12.5 39q0 26 -19 41t-50 15q-29 0 -59.5 -15.5t-61.5 -45.5l-33 51q35 36 76 54.5t86 18.5q62 0 99.5 -30.5t37.5 -81.5q0 -34 -19.5 -65.5t-66.5 -73.5l-119 -113h215zM303 0h-52l231 361l212 339h52l-231 -361z
M941 137q0 -64 -49 -104t-127 -40q-40 0 -73.5 8t-74.5 29l27 54q31 -17 59.5 -25t58.5 -8q46 0 75.5 24t29.5 60q0 33 -22.5 52t-62.5 19q-22 0 -41.5 -5.5t-49.5 -22.5l-49 21l15 220h278v-59h-217l-9 -121q25 13 47.5 18.5t48.5 5.5q62 0 99 -34t37 -92z" />
    <glyph glyph-name="uni2157" unicode="&#x2157;" horiz-adv-x="941" 
d="M346 391q0 -51 -46 -83t-116 -32q-41 0 -78 9.5t-78 31.5l27 52q33 -18 63.5 -27t63.5 -9q39 0 64.5 17.5t25.5 46.5q0 33 -39.5 49.5t-119.5 15.5l-5 54q78 6 118.5 26t40.5 51q0 26 -19.5 40.5t-52.5 14.5q-28 0 -59.5 -10t-68.5 -31l-29 50q42 25 82.5 37t82.5 12
q63 -1 100.5 -29.5t37.5 -76.5q0 -36 -24.5 -63t-70.5 -43q49 -12 74.5 -38t25.5 -65zM264 0h-52l231 361l212 339h52l-231 -361zM903 137q0 -64 -49 -104t-127 -40q-40 0 -73.5 8t-74.5 29l27 54q31 -17 59.5 -25t58.5 -8q46 0 75.5 24t29.5 60q0 33 -22.5 52t-62.5 19
q-22 0 -41.5 -5.5t-49.5 -22.5l-49 21l15 220h278v-59h-217l-9 -121q25 13 47.5 18.5t48.5 5.5q62 0 99 -34t37 -92z" />
    <glyph glyph-name="uni2158" unicode="&#x2158;" horiz-adv-x="986" 
d="M323 371v-90h-71v90h-225l-3 56l202 276h97v-276h72v-56h-72zM95 426h159v222zM309 0h-52l231 361l212 339h52l-231 -361zM947 137q0 -64 -49 -104t-127 -40q-40 0 -73.5 8t-74.5 29l27 54q31 -17 59.5 -25t58.5 -8q46 0 75.5 24t29.5 60q0 33 -22.5 52t-62.5 19
q-22 0 -41.5 -5.5t-49.5 -22.5l-49 21l15 220h278v-59h-217l-9 -121q25 13 47.5 18.5t48.5 5.5q62 0 99 -34t37 -92z" />
    <glyph glyph-name="uni2159" unicode="&#x2159;" horiz-adv-x="838" 
d="M230 703v-422h-74v344l-112 -39l-16 60l148 57h54zM203 0h-52l231 361l212 339h52l-231 -361zM804 135q0 -63 -45 -102.5t-117 -39.5q-77 0 -121.5 46.5t-44.5 126.5q0 92 58.5 158t175.5 106l25 -56q-80 -29 -122.5 -61.5t-57.5 -76.5q25 13 53 19.5t55 6.5
q63 0 102 -35t39 -92zM546 159q0 -51 26.5 -80t71.5 -29q40 0 65 23t25 59t-25.5 57t-69.5 21q-23 0 -46 -5t-45 -15q-1 -12 -1.5 -18.5t-0.5 -12.5z" />
    <glyph glyph-name="uni215A" unicode="&#x215a;" horiz-adv-x="898" 
d="M353 418q0 -64 -49 -104t-127 -40q-40 0 -73.5 8t-74.5 29l27 54q31 -17 59.5 -25t58.5 -8q46 0 75.5 24t29.5 60q0 33 -22.5 52t-62.5 19q-22 0 -41.5 -5.5t-49.5 -22.5l-49 21l15 220h278v-59h-217l-9 -121q25 13 47.5 18.5t48.5 5.5q62 0 99 -34t37 -92zM263 0h-52
l231 361l212 339h52l-231 -361zM864 135q0 -63 -45 -102.5t-117 -39.5q-77 0 -121.5 46.5t-44.5 126.5q0 92 58.5 158t175.5 106l25 -56q-80 -29 -122.5 -61.5t-57.5 -76.5q25 13 53 19.5t55 6.5q63 0 102 -35t39 -92zM606 159q0 -51 26.5 -80t71.5 -29q40 0 65 23t25 59
t-25.5 57t-69.5 21q-23 0 -46 -5t-45 -15q-1 -12 -1.5 -18.5t-0.5 -12.5z" />
    <glyph glyph-name="uni215B" unicode="&#x215b;" horiz-adv-x="879" 
d="M230 703v-422h-74v344l-112 -39l-16 60l148 57h54zM203 0h-52l231 361l212 339h52l-231 -361zM843 113q0 -53 -46.5 -86t-121.5 -33t-121.5 33t-46.5 86q0 38 22.5 64t68.5 41q-39 14 -59 38.5t-20 58.5q0 47 43.5 78.5t112.5 31.5t112.5 -31.5t43.5 -78.5
q0 -34 -19.5 -58.5t-58.5 -38.5q45 -15 67.5 -41t22.5 -64zM588 307q0 -29 24.5 -47t62.5 -18t62.5 18t24.5 47q0 28 -24 46t-63 18t-63 -17.5t-24 -46.5zM578 121q0 -33 27 -53t70 -20q44 0 70.5 20t26.5 53q0 32 -27 52t-70 20t-70 -20t-27 -52z" />
    <glyph glyph-name="uni215C" unicode="&#x215c;" horiz-adv-x="940" 
d="M346 391q0 -51 -46 -83t-116 -32q-41 0 -78 9.5t-78 31.5l27 52q33 -18 63.5 -27t63.5 -9q39 0 64.5 17.5t25.5 46.5q0 33 -39.5 49.5t-119.5 15.5l-5 54q78 6 118.5 26t40.5 51q0 26 -19.5 40.5t-52.5 14.5q-28 0 -59.5 -10t-68.5 -31l-29 50q42 25 82.5 37t82.5 12
q63 -1 100.5 -29.5t37.5 -76.5q0 -36 -24.5 -63t-70.5 -43q49 -12 74.5 -38t25.5 -65zM264 0h-52l231 361l212 339h52l-231 -361zM904 113q0 -53 -46.5 -86t-121.5 -33t-121.5 33t-46.5 86q0 38 22.5 64t68.5 41q-39 14 -59 38.5t-20 58.5q0 47 43.5 78.5t112.5 31.5
t112.5 -31.5t43.5 -78.5q0 -34 -19.5 -58.5t-58.5 -38.5q45 -15 67.5 -41t22.5 -64zM649 307q0 -29 24.5 -47t62.5 -18t62.5 18t24.5 47q0 28 -24 46t-63 18t-63 -17.5t-24 -46.5zM639 121q0 -33 27 -53t70 -20q44 0 70.5 20t26.5 53q0 32 -27 52t-70 20t-70 -20t-27 -52z
" />
    <glyph glyph-name="uni215D" unicode="&#x215d;" horiz-adv-x="939" 
d="M353 418q0 -64 -49 -104t-127 -40q-40 0 -73.5 8t-74.5 29l27 54q31 -17 59.5 -25t58.5 -8q46 0 75.5 24t29.5 60q0 33 -22.5 52t-62.5 19q-22 0 -41.5 -5.5t-49.5 -22.5l-49 21l15 220h278v-59h-217l-9 -121q25 13 47.5 18.5t48.5 5.5q62 0 99 -34t37 -92zM263 0h-52
l231 361l212 339h52l-231 -361zM903 113q0 -53 -46.5 -86t-121.5 -33t-121.5 33t-46.5 86q0 38 22.5 64t68.5 41q-39 14 -59 38.5t-20 58.5q0 47 43.5 78.5t112.5 31.5t112.5 -31.5t43.5 -78.5q0 -34 -19.5 -58.5t-58.5 -38.5q45 -15 67.5 -41t22.5 -64zM648 307
q0 -29 24.5 -47t62.5 -18t62.5 18t24.5 47q0 28 -24 46t-63 18t-63 -17.5t-24 -46.5zM638 121q0 -33 27 -53t70 -20q44 0 70.5 20t26.5 53q0 32 -27 52t-70 20t-70 -20t-27 -52z" />
    <glyph glyph-name="uni215E" unicode="&#x215e;" horiz-adv-x="861" 
d="M343 633l-204 -358l-68 26l195 336h-229v63h306v-67zM185 0h-52l231 361l212 339h52l-231 -361zM824 113q0 -53 -46.5 -86t-121.5 -33t-121.5 33t-46.5 86q0 38 22.5 64t68.5 41q-39 14 -59 38.5t-20 58.5q0 47 43.5 78.5t112.5 31.5t112.5 -31.5t43.5 -78.5
q0 -34 -19.5 -58.5t-58.5 -38.5q45 -15 67.5 -41t22.5 -64zM569 307q0 -29 24.5 -47t62.5 -18t62.5 18t24.5 47q0 28 -24 46t-63 18t-63 -17.5t-24 -46.5zM559 121q0 -33 27 -53t70 -20q44 0 70.5 20t26.5 53q0 32 -27 52t-70 20t-70 -20t-27 -52z" />
    <glyph glyph-name="uni2190" unicode="&#x2190;" horiz-adv-x="1042" 
d="M183 327l229 -189l-54 -62l-288 258v51l288 258l54 -62l-229 -189l354 10h434v-85h-434z" />
    <glyph glyph-name="uni2191" unicode="&#x2191;" horiz-adv-x="564" 
d="M315 600l10 -326v-277h-85v277l9 326l-152 -204l-61 50l221 266h51l220 -266l-60 -50z" />
    <glyph glyph-name="uni2192" unicode="&#x2192;" horiz-adv-x="1042" 
d="M973 334l-288 -258l-55 62l230 189l-355 -10h-434v85h434l355 -10l-230 189l55 62l288 -258v-51z" />
    <glyph glyph-name="uni2193" unicode="&#x2193;" horiz-adv-x="564" 
d="M528 254l-220 -266h-51l-221 266l61 50l152 -204l-9 326v277h85v-277l-10 -326l153 204z" />
    <glyph glyph-name="minus" unicode="&#x2212;" horiz-adv-x="564" 
d="M508 395v-80h-451v80h451z" />
    <glyph glyph-name="approxequal" unicode="&#x2248;" horiz-adv-x="564" 
d="M372 458q19 0 34.5 17t38.5 61l55 -24q-30 -71 -57.5 -101.5t-63.5 -30.5q-21 0 -43 8.5t-63 33.5q-36 21 -53.5 28.5t-31.5 7.5q-17 0 -32.5 -16t-37.5 -59l-54 24q30 70 56.5 99.5t60.5 29.5q21 0 43 -8.5t63 -33.5q36 -21 53.5 -28.5t31.5 -7.5zM376 254q18 0 33.5 17
t36.5 58l54 -24q-29 -69 -55.5 -99t-61.5 -30q-21 0 -43 8.5t-63 33.5q-36 21 -53.5 28.5t-31.5 7.5q-18 0 -33.5 -16.5t-38.5 -61.5l-56 24q30 70 58 101t63 31q21 0 43 -8.5t63 -33.5q36 -21 53.5 -28.5t31.5 -7.5z" />
    <glyph glyph-name="notequal" unicode="&#x2260;" horiz-adv-x="564" 
d="M500 289v-69h-255l-62 -115h-71l63 115h-111v69h150l71 132h-221v69h255l63 115h70l-62 -115h110v-69h-150l-71 -132h221z" />
    <glyph glyph-name="uni237F" unicode="&#x237f;" horiz-adv-x="449" 
d="M259 228v-342h-68v342q-46 9 -75.5 45t-29.5 82t29.5 82t75.5 45v329h68v-329q46 -9 75.5 -45t29.5 -82t-29.5 -82t-75.5 -45z" />
    <glyph glyph-name="triagup" unicode="&#x25b2;" horiz-adv-x="771" 
d="M718 10v-10h-666v10l324 702h18z" />
    <glyph glyph-name="uni25B6" unicode="&#x25b6;" horiz-adv-x="798" 
d="M117 -8v716l8 4l602 -353v-18l-602 -353z" />
    <glyph glyph-name="triagdn" unicode="&#x25bc;" horiz-adv-x="771" 
d="M52 690v10h666v-10l-324 -702h-18z" />
    <glyph glyph-name="uni25C0" unicode="&#x25c0;" horiz-adv-x="798" 
d="M680 708v-716l-8 -4l-602 353v18l602 353z" />
    <glyph glyph-name="uniA788" unicode="&#xa788;" horiz-adv-x="500" 
d="M318 -167l-68 66l-69 -66h-61l93 118h74l93 -118h-62z" />
    <glyph glyph-name="guillemotleft.cap" horiz-adv-x="509" 
d="M469 179l-34 -31l-198 187v50l198 187l34 -31l-143 -181zM267 179l-34 -31l-198 187v50l198 187l34 -31l-143 -181z" />
    <glyph glyph-name="guillemotright.cap" horiz-adv-x="509" 
d="M272 335l-198 -187l-34 30l143 182l-143 181l34 31l198 -187v-50zM474 335l-198 -187l-34 30l144 182l-144 181l34 31l198 -187v-50z" />
    <glyph glyph-name="guilsinglleft.cap" horiz-adv-x="307" 
d="M267 179l-34 -31l-198 187v50l198 187l34 -31l-143 -181z" />
    <glyph glyph-name="guilsinglright.cap" horiz-adv-x="307" 
d="M272 335l-198 -187l-34 30l143 182l-143 181l34 31l198 -187v-50z" />
    <glyph glyph-name="parenleft.cap" horiz-adv-x="397" 
d="M150 349q0 -117 50.5 -207t159.5 -166l-35 -51q-133 79 -199 184.5t-66 239.5t66 239.5t199 184.5l35 -51q-109 -76 -159.5 -166t-50.5 -207z" />
    <glyph glyph-name="parenright.cap" horiz-adv-x="397" 
d="M72 -75l-35 51q110 77 160.5 167t50.5 206t-50.5 206t-160.5 167l35 51q133 -79 199 -184t66 -240t-66 -240t-199 -184z" />
    <glyph glyph-name="bracketleft.cap" horiz-adv-x="412" 
d="M366 10v-57l-277 -17v826l277 -17v-57l-195 9v-696z" />
    <glyph glyph-name="bracketright.cap" horiz-adv-x="412" 
d="M323 762v-826l-276 17v57l194 -9v696l-194 -9v57z" />
    <glyph glyph-name="braceleft.cap" horiz-adv-x="544" 
d="M500 -10l-9 -61q-86 9 -166 28.5t-151 48.5l-9 52q47 24 70 53t23 66q0 62 -56.5 100t-162.5 46v52q106 8 162.5 46t56.5 100q0 37 -23 66t-70 53l9 52q71 29 151 48.5t166 28.5l9 -61q-60 -6 -119.5 -19t-115.5 -32q42 -24 64 -58t22 -76q0 -62 -46 -106t-135 -68
q89 -24 135 -68t46 -106q0 -42 -22 -76t-64 -58q56 -19 115.5 -32t119.5 -19z" />
    <glyph glyph-name="braceright.cap" horiz-adv-x="544" 
d="M54 -71l-10 61q61 6 120.5 19t114.5 32q-42 24 -63.5 58t-21.5 76q0 62 46 106.5t134 67.5q-88 23 -134 67.5t-46 106.5q0 42 21.5 76t63.5 58q-55 19 -114.5 32t-120.5 19l10 61q86 -9 166.5 -28.5t150.5 -48.5l8 -52q-47 -24 -70 -53t-23 -66q0 -62 56.5 -100
t162.5 -46v-52q-106 -8 -162.5 -46t-56.5 -100q0 -37 23 -66t70 -53l-8 -52q-70 -29 -150.5 -48.5t-166.5 -28.5z" />
    <glyph glyph-name="slash.cap" horiz-adv-x="379" 
d="M311 811h73l-318 -925h-73z" />
    <glyph glyph-name="bar.cap" horiz-adv-x="306" 
d="M187 811v-925h-68v925h68z" />
    <glyph glyph-name="backslash.cap" horiz-adv-x="379" 
d="M386 -114h-73l-318 925h73z" />
    <glyph glyph-name="hyphen.cap" horiz-adv-x="341" 
d="M297 402v-84h-253v84h253z" />
    <glyph glyph-name="endash.cap" horiz-adv-x="488" 
d="M444 401v-82h-400v82h400z" />
    <glyph glyph-name="emdash.cap" horiz-adv-x="800" 
d="M756 401v-82h-712v82h712z" />
    <glyph glyph-name="uni00B7.cap" horiz-adv-x="216" 
d="M159 418v-117h-102v117h102z" />
    <glyph glyph-name="colon.fig" horiz-adv-x="201" 
d="M152 556v-112h-103v112h103zM152 274v-112h-103v112h103z" />
    <glyph glyph-name="zero.tab" horiz-adv-x="564" 
d="M282 711q109 0 171.5 -95t62.5 -266q0 -170 -62.5 -265.5t-171.5 -95.5t-171.5 95t-62.5 266q0 170 62.5 265.5t171.5 95.5zM283 73q62 0 98 72.5t36 203.5q0 132 -36 205t-99 73t-99 -72.5t-36 -203.5q0 -132 36.5 -205t99.5 -73z" />
    <glyph glyph-name="one.tab" horiz-adv-x="564" 
d="M506 82v-82h-432v82h173v516l-155 -55l-18 83l200 78h73v-622h159z" />
    <glyph glyph-name="two.tab" horiz-adv-x="564" 
d="M104 525l-45 77q54 54 113 80.5t124 26.5q93 0 147.5 -50t54.5 -134q0 -58 -27.5 -110t-96.5 -122l-188 -206h326v-87h-449l-17 71l262 285q48 52 67.5 87.5t19.5 70.5q0 47 -29.5 75.5t-79.5 28.5q-44 0 -88 -22.5t-94 -70.5z" />
    <glyph glyph-name="three.tab" horiz-adv-x="564" 
d="M502 181q0 -83 -68 -136t-173 -53q-59 0 -111 12t-111 39l31 81q46 -23 90.5 -34t95.5 -11q63 0 103.5 30.5t40.5 78.5q0 58 -62 88t-182 29l-7 84q121 10 182.5 45t61.5 92q0 44 -33.5 70t-89.5 26q-41 0 -86 -15.5t-95 -46.5l-39 76q63 38 117.5 55t111.5 17
q98 0 156.5 -47t58.5 -123q0 -64 -41.5 -111t-119.5 -71q82 -16 125.5 -60.5t43.5 -114.5z" />
    <glyph glyph-name="four.tab" horiz-adv-x="564" 
d="M446 157v-157h-99v157h-302l-14 83l283 464h132v-462h89v-85h-89zM134 241h215v365z" />
    <glyph glyph-name="five.tab" horiz-adv-x="564" 
d="M511 231q0 -108 -73 -173.5t-193 -65.5q-52 0 -101 10t-97 31l27 83q47 -19 88 -28t80 -9q74 0 121.5 42t47.5 106q0 53 -34 84.5t-90 31.5q-33 0 -65 -9.5t-78 -34.5l-71 31l21 370h409v-86h-319l-14 -218q37 17 71 25t70 8q90 0 145 -54t55 -144z" />
    <glyph glyph-name="six.tab" horiz-adv-x="564" 
d="M518 227q0 -106 -63 -172t-165 -66q-110 0 -173.5 76.5t-63.5 210.5q0 153 82 263t246 178l42 -75q-107 -47 -169.5 -104.5t-87.5 -131.5q38 18 76 27.5t75 9.5q92 0 146.5 -58t54.5 -158zM151 265q0 -89 37.5 -140.5t102.5 -51.5q57 0 93 40.5t36 106.5t-35.5 102.5
t-99.5 36.5q-28 0 -61 -8t-69 -23q-2 -14 -3 -29.5t-1 -33.5z" />
    <glyph glyph-name="seven.tab" horiz-adv-x="564" 
d="M517 606l-311 -616l-95 31l304 591h-363v88h465v-94z" />
    <glyph glyph-name="eight.tab" horiz-adv-x="564" 
d="M519 186q0 -86 -66 -140.5t-171 -54.5q-106 0 -171.5 54.5t-65.5 140.5q0 65 32.5 109.5t96.5 69.5q-57 26 -84 66t-27 97q0 78 61 129.5t158 51.5q98 0 159 -51.5t61 -129.5q0 -56 -27.5 -96.5t-83.5 -66.5q64 -25 96 -69.5t32 -109.5zM282 406q53 0 87 30t34 79
q0 50 -33 80t-88 30t-87.5 -30t-32.5 -80q0 -49 33.5 -79t86.5 -30zM282 75q62 0 100.5 34.5t38.5 90.5q0 54 -39 88.5t-100 34.5t-99.5 -34t-38.5 -89q0 -56 38 -90.5t100 -34.5z" />
    <glyph glyph-name="nine.tab" horiz-adv-x="564" 
d="M46 473q0 106 63 172t165 66q110 0 173.5 -76.5t63.5 -210.5q0 -153 -82 -263t-246 -178l-42 75q107 47 169.5 104.5t87.5 131.5q-38 -18 -76 -27.5t-75 -9.5q-92 0 -146.5 58t-54.5 158zM413 435q0 89 -37.5 140.5t-102.5 51.5q-57 0 -93 -40.5t-36 -106.5t35.5 -102.5
t99.5 -36.5q28 0 61 8t69 23q2 14 3 29.5t1 33.5z" />
    <glyph glyph-name="period.tab" horiz-adv-x="282" 
d="M192 117v-117h-102v117h102z" />
    <glyph glyph-name="comma.tab" horiz-adv-x="282" 
d="M97 117h97v-8q0 -72 -30 -133.5t-96 -121.5l-32 24q35 56 48 106.5t13 132.5z" />
    <glyph glyph-name="colon.tab" horiz-adv-x="282" 
d="M192 518v-117h-102v117h102zM192 117v-117h-102v117h102z" />
    <glyph glyph-name="colon.figtab" horiz-adv-x="282" 
d="M193 556v-112h-103v112h103zM193 274v-112h-103v112h103z" />
    <glyph glyph-name="slash.tab" horiz-adv-x="564" 
d="M476 811h78l-467 -925h-78z" />
    <glyph glyph-name="uni00B7.tab" horiz-adv-x="282" 
d="M192 414v-117h-102v117h102z" />
    <glyph glyph-name="quotedbl.tab" horiz-adv-x="564" 
d="M498 700v-1l-155 -262l-40 15l83 248h112zM276 700v-1l-154 -262l-41 15l84 248h111z" />
    <glyph glyph-name="quotesingle.tab" horiz-adv-x="282" 
d="M240 700v-1l-142 -262l-41 13l72 250h111z" />
    <glyph glyph-name="dollar.tab" horiz-adv-x="564" 
d="M156 518q0 -40 27 -66t88 -45l29 217h-5q-64 0 -101.5 -29t-37.5 -77zM424 192q0 42 -28.5 70t-90.5 47l-32 -233q70 0 110.5 31t40.5 85zM269 -1l-15 -106h-59l16 109q-47 6 -93 21t-87 38l26 76q44 -24 86.5 -38.5t83.5 -19.5l33 243q-99 27 -145 72t-46 117
q0 87 62 138.5t169 51.5h5l12 83h58l-12 -87q36 -5 71.5 -16.5t70.5 -29.5l-25 -75q-33 18 -66.5 29t-67.5 15l-30 -225q100 -28 147.5 -75.5t47.5 -120.5q0 -94 -64.5 -147t-177.5 -53z" />
    <glyph glyph-name="sterling.tab" horiz-adv-x="564" 
d="M161 85h353v-85h-448l-17 67q37 35 58 79t29 105l7 56h-89v79h100l14 107q7 53 23 91t43 65q30 30 69.5 44.5t89.5 14.5q34 0 66.5 -6t62.5 -18l-20 -86q-24 10 -51 15.5t-51 5.5q-30 0 -54 -9t-41 -26q-18 -19 -29 -45.5t-15 -61.5l-12 -91h196v-79h-207l-9 -69
q-6 -52 -22 -88t-46 -65z" />
    <glyph glyph-name="yen.tab" horiz-adv-x="564" 
d="M486 170v-55h-156v-115h-96v115h-156v55h156v89h-156v56h144l-196 385h104l153 -330l153 330h102l-196 -385h144v-56h-156v-89h156z" />
    <glyph glyph-name="Euro.tab" horiz-adv-x="564" 
d="M504 101l17 -87q-31 -11 -64 -16.5t-67 -5.5q-114 0 -186 64t-93 186h-78v57h71q-1 19 -1.5 30t-0.5 21q0 9 0.5 20t1.5 28h-71v57h78q21 122 94 187.5t186 65.5q34 0 66 -5.5t64 -16.5l-17 -86q-27 9 -53.5 14t-53.5 5q-74 0 -121.5 -41.5t-64.5 -122.5h243v-57h-251
q-1 -17 -1.5 -28t-0.5 -20q0 -10 0.5 -21t1.5 -30h251v-57h-242q17 -79 64 -120t120 -41q27 0 54 5t54 15z" />
    <glyph glyph-name="triagup.tab" horiz-adv-x="564" 
d="M294 713l211 -713h-446l212 713h23z" />
    <glyph glyph-name="triagdn.tab" horiz-adv-x="564" 
d="M271 -13l-212 713h446l-211 -713h-23z" />
    <glyph glyph-name="uni25C0.tab" horiz-adv-x="564" 
d="M467 548v-376l-8 -4l-390 183v18l390 183z" />
    <glyph glyph-name="uni25B6.tab" horiz-adv-x="564" 
d="M98 172v376l8 4l390 -183v-18l-390 -183z" />
    <glyph glyph-name="i.dot" horiz-adv-x="249" 
d="M172 518v-518h-95v518h95zM165 681v-88h-80v88h80z" />
    <glyph glyph-name="f.lig" horiz-adv-x="366" 
d="M277 729q23 0 46 -3t43 -8v-79q-20 5 -39 8t-37 3q-42 0 -63.5 -22t-21.5 -65v-45h143v-80h-143v-438h-94v438h-85v80h85v45q0 82 42 124t124 42z" />
    <glyph glyph-name="space.cap" horiz-adv-x="202" 
d="M0 0z" />
    <glyph glyph-name="middotcat" horiz-adv-x="86" 
d="M83 422v-104h-80v104h80z" />
    <glyph glyph-name="middotcat.cap" horiz-adv-x="180" 
d="M91 434v-110h-91v110h91z" />
    <glyph glyph-name="macron.nrw" 
d="M111 651v-53h-222v53h222z" />
    <glyph glyph-name="uni0331.nrw" 
d="M111 -55v-53h-222v53h222z" />
    <glyph glyph-name="ringacute" 
d="M25 873h115l-122 -81h-70zM0 581q-43 0 -71 26t-28 65t28 65t71 26t71 -26t28 -65t-28 -65t-71 -26zM0 732q-27 0 -45 -17t-18 -43t18 -43t45 -17t45 17t18 43t-18 43t-45 17z" />
    <glyph glyph-name="uni00A80301" 
d="M148 812l-129 -97h-67l78 97h118zM-39 679v-86h-78v86h78zM117 679v-86h-78v86h78z" />
    <glyph glyph-name="uni00A80300" 
d="M48 715h-67l-129 97h118zM-39 679v-86h-78v86h78zM117 679v-86h-78v86h78z" />
    <glyph glyph-name="uni00A8030C" 
d="M132 815l-95 -100h-74l-95 100h62l70 -50l71 50h61zM-39 679v-86h-78v86h78zM117 679v-86h-78v86h78z" />
    <glyph glyph-name="uni00A80304" 
d="M124 772v-52h-248v52h248zM-39 679v-86h-78v86h78zM117 679v-86h-78v86h78z" />
    <glyph glyph-name="uni02D80301" 
d="M148 808l-128 -97h-67l78 97h117zM0 640q29 0 47.5 13.5t24.5 38.5h51q-2 -49 -35.5 -78.5t-87.5 -29.5t-87.5 29.5t-35.5 78.5h51q6 -25 24.5 -38.5t47.5 -13.5z" />
    <glyph glyph-name="uni02D80300" 
d="M47 711h-67l-128 97h117zM0 640q29 0 47.5 13.5t24.5 38.5h51q-2 -49 -35.5 -78.5t-87.5 -29.5t-87.5 29.5t-35.5 78.5h51q6 -25 24.5 -38.5t47.5 -13.5z" />
    <glyph glyph-name="uni02D80309" 
d="M-84 777l-12 47q24 7 46.5 10t47.5 3q45 0 71 -15t26 -41q0 -27 -25 -46.5t-85 -41.5l-14 37q35 16 48 24.5t13 16.5t-10 12.5t-30 4.5q-18 0 -37.5 -3t-38.5 -8zM0 640q29 0 47.5 13.5t24.5 38.5h51q-2 -49 -35.5 -78.5t-87.5 -29.5t-87.5 29.5t-35.5 78.5h51
q6 -25 24.5 -38.5t47.5 -13.5z" />
    <glyph glyph-name="uni02D80303" 
d="M-48 764q-11 0 -19 -9t-20 -34l-43 15q17 45 34.5 65t40.5 20q11 0 21 -3.5t39 -19.5q24 -13 32 -16t16 -3q11 0 19.5 10t18.5 33l44 -15q-17 -45 -35 -65t-41 -20q-12 0 -23.5 4t-36.5 19q-22 12 -30.5 15.5t-16.5 3.5zM0 640q29 0 47.5 13.5t24.5 38.5h51
q-2 -49 -35.5 -78.5t-87.5 -29.5t-87.5 29.5t-35.5 78.5h51q6 -25 24.5 -38.5t47.5 -13.5z" />
    <glyph glyph-name="uni02C60301" 
d="M291 778l-128 -98h-60l78 98h110zM71 587l-71 57l-71 -57h-61l95 107h74l95 -107h-61z" />
    <glyph glyph-name="uni02C60300" 
d="M204 680h-59l-129 98h110zM71 587l-71 57l-71 -57h-61l95 107h74l95 -107h-61z" />
    <glyph glyph-name="uni02C60309" 
d="M63 745l-11 46q22 7 43 10t45 3q41 0 64.5 -15.5t23.5 -41.5t-23 -45.5t-78 -40.5l-15 36q33 14 46.5 23t13.5 18t-10 13.5t-29 4.5q-17 0 -34.5 -3t-35.5 -8zM71 587l-71 57l-71 -57h-61l95 107h74l95 -107h-61z" />
    <glyph glyph-name="uni02C60303" 
d="M-45 758q-11 0 -19.5 -10t-18.5 -33l-44 15q17 45 35 65t41 20q11 0 21 -3.5t39 -19.5q22 -12 30.5 -15.5t16.5 -3.5q11 0 19.5 9.5t19.5 33.5l44 -15q-18 -45 -35.5 -65t-40.5 -20q-12 0 -22.5 4t-37.5 19q-22 12 -31 15.5t-17 3.5zM72 587l-72 52l-73 -52h-60l96 102
h74l96 -102h-61z" />
    <glyph glyph-name="acute.cap" 
d="M164 847l-143 -98h-81l97 98h127z" />
    <glyph glyph-name="hungarumlaut.cap" 
d="M85 847l-135 -98h-72l100 98h107zM229 847l-135 -98h-72l100 98h107z" />
    <glyph glyph-name="grave.cap" 
d="M60 749h-81l-143 98h127z" />
    <glyph glyph-name="circumflex.cap" 
d="M66 749l-67 53l-67 -53h-69l94 101h86l94 -101h-71z" />
    <glyph glyph-name="caron.cap" 
d="M-66 850l67 -52l67 52h69l-94 -101h-86l-94 101h71z" />
    <glyph glyph-name="breve.cap" 
d="M0 804q29 0 47 13.5t25 40.5h56q-5 -51 -39.5 -81.5t-88.5 -30.5t-88.5 30t-39.5 82h56q7 -26 25.5 -40t46.5 -14z" />
    <glyph glyph-name="tilde.cap" 
d="M-57 795q-13 0 -23 -11t-22 -38l-50 15q20 51 40 72.5t48 21.5q15 0 30 -5.5t42 -20.5q24 -13 35.5 -17.5t21.5 -4.5q13 0 23 11t22 38l49 -16q-19 -50 -39 -71.5t-48 -21.5q-15 0 -30 5t-43 20q-25 14 -35.5 18.5t-20.5 4.5z" />
    <glyph glyph-name="macron.cap" 
d="M143 811v-56h-286v56h286z" />
    <glyph glyph-name="macron.capnrw" 
d="M126 811v-56h-252v56h252z" />
    <glyph glyph-name="dieresis.cap" 
d="M-42 837v-88h-81v88h81zM123 837v-88h-81v88h81z" />
    <glyph glyph-name="dotaccent.cap" 
d="M42 837v-88h-84v88h84z" />
    <glyph glyph-name="ring.cap" 
d="M0 743q-45 0 -75 27.5t-30 69.5q0 41 30 68.5t75 27.5q46 0 75.5 -27.5t29.5 -68.5t-30 -69t-75 -28zM0 904q-30 0 -49 -18t-19 -46t19 -46.5t49 -18.5t49 18.5t19 46.5t-19 46t-49 18z" />
    <glyph glyph-name="uni00200309.cap" 
d="M-112 828l-10 50q32 7 62 10.5t60 3.5q58 0 89 -15.5t31 -44.5t-31 -49t-106 -40l-13 40q48 15 65 23t17 17t-13.5 13t-43.5 4q-26 0 -53 -3t-54 -9z" />
    <glyph glyph-name="uni00A80301.cap" 
d="M160 955l-132 -86h-81l86 86h127zM-42 835v-86h-81v86h81zM123 835v-86h-81v86h81z" />
    <glyph glyph-name="uni00A80300.cap" 
d="M-33 955l86 -86h-81l-132 86h127zM-42 835v-86h-81v86h81zM123 835v-86h-81v86h81z" />
    <glyph glyph-name="uni00A8030C.cap" 
d="M139 958l-96 -89h-86l-96 89h71l69 -41l68 41h70zM-42 835v-86h-81v86h81zM123 835v-86h-81v86h81z" />
    <glyph glyph-name="uni00A80304.cap" 
d="M133 929v-55h-266v55h266zM-42 835v-86h-81v86h81zM123 835v-86h-81v86h81z" />
    <glyph glyph-name="uni02D80301.cap" 
d="M159 952l-132 -85h-81l86 85h127zM0 803q29 0 48 11t26 32h56q-6 -46 -41 -73t-89 -27t-89 27t-41 73h56q7 -20 26.5 -31.5t47.5 -11.5z" />
    <glyph glyph-name="uni02D80300.cap" 
d="M-32 952l86 -85h-81l-132 85h127zM0 803q29 0 48 11t26 32h56q-6 -46 -41 -73t-89 -27t-89 27t-41 73h56q7 -20 26.5 -31.5t47.5 -11.5z" />
    <glyph glyph-name="uni02D80309.cap" 
d="M-98 929l-10 49q27 6 53.5 9t54.5 3q52 0 80.5 -14.5t28.5 -40.5q0 -27 -29 -46t-96 -38l-12 39q40 13 55 20.5t15 15.5t-11.5 11.5t-35.5 3.5q-23 0 -46.5 -3t-46.5 -9zM0 803q29 0 48 11t26 32h56q-6 -46 -41 -73t-89 -27t-89 27t-41 73h56q7 -20 26.5 -31.5
t47.5 -11.5z" />
    <glyph glyph-name="uni02D80303.cap" 
d="M-51 916q-11 0 -19.5 -9.5t-19.5 -35.5l-46 16q17 46 35 66.5t43 20.5q14 0 26.5 -4.5t36.5 -18.5q21 -12 31 -16t19 -4q11 0 19.5 9.5t18.5 34.5l47 -16q-17 -46 -35 -66.5t-43 -20.5q-14 0 -27 5t-37 19q-24 13 -32.5 16.5t-16.5 3.5zM0 803q29 0 48 11t26 32h56
q-6 -46 -41 -73t-89 -27t-89 27t-41 73h56q7 -20 26.5 -31.5t47.5 -11.5z" />
    <glyph glyph-name="uni02C60301.cap" 
d="M311 919l-132 -86h-73l85 86h120zM69 749l-70 45l-69 -45h-69l96 93h86l96 -93h-70z" />
    <glyph glyph-name="uni02C60300.cap" 
d="M139 919l86 -86h-73l-132 86h119zM69 749l-70 45l-69 -45h-69l96 93h86l96 -93h-70z" />
    <glyph glyph-name="uni02C60309.cap" 
d="M61 893l-9 47q22 6 44.5 9t47.5 3q45 0 70.5 -15t25.5 -41t-25.5 -45t-84.5 -37l-12 39q35 11 49 18.5t14 15.5t-10.5 12t-31.5 4q-18 0 -37.5 -2.5t-40.5 -7.5zM69 749l-70 45l-69 -45h-69l96 93h86l96 -93h-70z" />
    <glyph glyph-name="uni02C60303.cap" 
d="M-48 907q-11 0 -19 -10t-19 -35l-47 16q17 46 35 66.5t43 20.5q14 0 26.5 -4.5t37.5 -18.5q20 -12 30 -16t19 -4q11 0 19.5 9.5t19.5 34.5l46 -16q-17 -46 -35 -66.5t-43 -20.5q-14 0 -26.5 4.5t-36.5 18.5t-33 17.5t-17 3.5zM70 749l-71 42l-70 -42h-70l98 89h86l98 -89
h-71z" />
    <glyph glyph-name="zero.num" horiz-adv-x="432" 
d="M391 491q0 -99 -48 -158t-127 -59t-127 59t-48 158t48 157.5t127 58.5t127 -58.5t48 -157.5zM317 490q0 71 -28 113.5t-73 42.5q-46 0 -73.5 -41.5t-27.5 -112.5q0 -72 28 -114.5t73 -42.5q46 0 73.5 41.5t27.5 113.5z" />
    </font>
</defs>
</svg>
